<svg width="1477" height="172" viewBox="0 0 1477 172" fill="none" xmlns="http://www.w3.org/2000/svg">
<path d="M99.5089 102.036L140.617 165.371C141.732 167.124 141.254 168 139.183 168H101.66C100.385 168 99.5089 167.522 99.0309 166.566L77.5209 130.716L61.0299 105.86H37.1299L37.8469 165.849C37.8469 167.283 37.1299 168 35.6959 168H2.95286C1.51886 168 0.801863 167.283 0.801863 165.849L1.75786 84.35L0.801863 2.85099C0.801863 1.41699 1.51886 0.699989 2.95286 0.699989H70.8289C92.0202 0.699989 108.272 5.16132 119.585 14.084C131.057 23.0067 136.793 36.072 136.793 53.28C136.793 65.5487 133.527 75.8257 126.994 84.111C120.621 92.3963 111.459 98.3713 99.5089 102.036ZM72.2629 27.229H37.6079L36.8909 79.331H73.2189C81.5042 79.331 88.2759 77.2597 93.5339 73.117C98.9512 68.9743 101.66 62.601 101.66 53.997C101.66 36.1517 91.8609 27.229 72.2629 27.229ZM200.363 147.207C213.428 147.207 221.395 140.913 224.263 128.326C224.741 127.051 225.538 126.414 226.653 126.414H256.767C258.52 126.414 259.237 127.131 258.918 128.565C257.325 140.515 251.19 150.633 240.515 158.918C229.999 167.044 216.456 171.107 199.885 171.107C179.809 171.107 164.194 165.212 153.041 153.421C142.047 141.471 136.55 125.936 136.55 106.816C136.55 87.0587 142.127 71.2847 153.28 59.494C164.433 47.7033 179.729 41.808 199.168 41.808C219.085 41.808 234.54 48.022 245.534 60.45C256.687 72.7187 262.423 89.7673 262.742 111.596C262.742 113.03 262.025 113.747 260.591 113.747H172.639C173.276 125.219 175.905 133.664 180.526 139.081C185.147 144.498 191.759 147.207 200.363 147.207ZM199.407 65.469C185.067 65.469 176.463 73.9933 173.595 91.042H224.024C223.227 83.7127 220.758 77.658 216.615 72.878C212.472 67.9387 206.736 65.469 199.407 65.469ZM332 147.207C345.065 147.207 353.032 140.913 355.9 128.326C356.378 127.051 357.175 126.414 358.29 126.414H388.404C390.157 126.414 390.874 127.131 390.555 128.565C388.962 140.515 382.827 150.633 372.152 158.918C361.636 167.044 348.093 171.107 331.522 171.107C311.446 171.107 295.831 165.212 284.678 153.421C273.684 141.471 268.187 125.936 268.187 106.816C268.187 87.0587 273.764 71.2847 284.917 59.494C296.07 47.7033 311.366 41.808 330.805 41.808C350.722 41.808 366.177 48.022 377.171 60.45C388.324 72.7187 394.06 89.7673 394.379 111.596C394.379 113.03 393.662 113.747 392.228 113.747H304.276C304.913 125.219 307.542 133.664 312.163 139.081C316.784 144.498 323.396 147.207 332 147.207ZM331.044 65.469C316.704 65.469 308.1 73.9933 305.232 91.042H355.661C354.864 83.7127 352.395 77.658 348.252 72.878C344.109 67.9387 338.373 65.469 331.044 65.469ZM438.303 84.35L439.259 165.849C439.259 167.283 438.542 168 437.108 168H405.799C404.365 168 403.648 167.283 403.648 165.849L404.604 84.35L403.648 2.85099C403.648 1.41699 404.365 0.699989 405.799 0.699989H437.108C438.542 0.699989 439.259 1.41699 439.259 2.85099L438.303 84.35ZM508.587 170.868C490.423 170.868 476.004 167.283 465.328 160.113C454.812 152.784 449.236 142.347 448.598 128.804C448.598 127.37 449.315 126.653 450.749 126.653H481.341C482.775 126.653 483.492 127.37 483.492 128.804C484.448 142.029 493.371 148.641 510.26 148.641C524.76 148.641 532.009 143.622 532.009 133.584C532.009 129.441 529.221 126.334 523.644 124.263C518.227 122.192 511.535 120.678 503.568 119.722C495.761 118.766 487.874 117.332 479.907 115.42C471.941 113.508 465.169 109.764 459.592 104.187C454.175 98.451 451.466 90.803 451.466 81.243C451.466 68.6557 456.167 59.016 465.567 52.324C475.127 45.4727 488.352 42.047 505.241 42.047C521.812 42.047 535.037 45.393 544.915 52.085C554.794 58.6177 560.291 68.1777 561.406 80.765C561.566 82.199 560.928 82.916 559.494 82.916H530.097C528.982 82.916 528.265 82.2787 527.946 81.004C525.875 69.532 518.147 63.796 504.763 63.796C492.017 63.796 485.643 68.7353 485.643 78.614C485.643 82.7567 488.352 85.8637 493.769 87.935C499.346 89.847 506.038 91.281 513.845 92.237C521.812 93.0337 529.779 94.388 537.745 96.3C545.712 98.0527 552.404 101.797 557.821 107.533C563.398 113.11 566.186 120.758 566.186 130.477C566.186 143.064 560.849 152.943 550.173 160.113C539.498 167.283 525.636 170.868 508.587 170.868ZM678.035 170.868C659.871 170.868 645.451 167.283 634.776 160.113C624.26 152.784 618.683 142.347 618.046 128.804C618.046 127.37 618.763 126.653 620.197 126.653H650.789C652.223 126.653 652.94 127.37 652.94 128.804C653.896 142.029 662.818 148.641 679.708 148.641C694.207 148.641 701.457 143.622 701.457 133.584C701.457 129.441 698.668 126.334 693.092 124.263C687.674 122.192 680.982 120.678 673.016 119.722C665.208 118.766 657.321 117.332 649.355 115.42C641.388 113.508 634.616 109.764 629.04 104.187C623.622 98.451 620.914 90.803 620.914 81.243C620.914 68.6557 625.614 59.016 635.015 52.324C644.575 45.4727 657.799 42.047 674.689 42.047C691.259 42.047 704.484 45.393 714.363 52.085C724.241 58.6177 729.738 68.1777 730.854 80.765C731.013 82.199 730.376 82.916 728.942 82.916H699.545C698.429 82.916 697.712 82.2787 697.394 81.004C695.322 69.532 687.595 63.796 674.211 63.796C661.464 63.796 655.091 68.7353 655.091 78.614C655.091 82.7567 657.799 85.8637 663.217 87.935C668.793 89.847 675.485 91.281 683.293 92.237C691.259 93.0337 699.226 94.388 707.193 96.3C715.159 98.0527 721.851 101.797 727.269 107.533C732.845 113.11 735.634 120.758 735.634 130.477C735.634 143.064 730.296 152.943 719.621 160.113C708.945 167.283 695.083 170.868 678.035 170.868ZM804.142 171.107C784.544 171.107 769.169 165.371 758.015 153.899C746.862 142.268 741.285 126.573 741.285 106.816C741.285 87.0587 746.862 71.2847 758.015 59.494C769.328 47.7033 784.943 41.808 804.859 41.808C820.474 41.808 833.141 45.871 842.86 53.997C852.739 62.123 858.395 72.9577 859.829 86.501C860.148 87.935 859.511 88.652 857.917 88.652H828.759C827.644 88.652 826.927 88.0147 826.608 86.74C825.334 79.8887 822.705 74.7103 818.721 71.205C814.897 67.6997 810.277 65.947 804.859 65.947C787.014 66.1063 778.091 79.6497 778.091 106.577C778.091 120.598 780.242 130.875 784.544 137.408C789.006 143.781 795.777 147.048 804.859 147.207C811.073 147.366 816.252 145.295 820.394 140.993C824.537 136.691 826.927 130.636 827.564 122.829C827.724 121.395 828.52 120.678 829.954 120.678H859.59C861.184 120.678 861.821 121.315 861.502 122.59C860.228 136.771 854.332 148.402 843.816 157.484C833.3 166.566 820.076 171.107 804.142 171.107ZM956.245 58.06L955.767 47.066C955.767 45.632 956.405 44.915 957.679 44.915H989.705C991.139 44.915 991.856 45.632 991.856 47.066L991.139 106.577L991.856 165.849C991.856 167.283 991.139 168 989.705 168H957.918C956.484 168 955.767 167.283 955.767 165.849L956.245 153.66C947.163 164.813 935.054 170.39 919.917 170.39C903.028 170.39 889.883 164.495 880.482 152.704C871.241 140.754 866.62 125.458 866.62 106.816C866.62 88.4927 871.56 73.1967 881.438 60.928C891.317 48.6593 904.382 42.525 920.634 42.525C935.771 42.525 947.641 47.7033 956.245 58.06ZM929.955 146.49C947.641 146.49 956.644 133.425 956.962 107.294C957.122 94.2287 954.891 84.1907 950.27 77.18C945.809 70.1693 939.276 66.5843 930.672 66.425C912.349 65.947 903.187 78.7733 903.187 104.904C903.187 118.607 905.498 129.043 910.118 136.213C914.739 143.224 921.351 146.649 929.955 146.49ZM1039.32 115.659L1039.8 165.849C1039.8 167.283 1039.08 168 1037.65 168H1005.14C1003.71 168 1002.99 167.283 1002.99 165.849L1003.71 108.967L1003.47 47.066C1003.47 45.632 1004.19 44.915 1005.62 44.915H1035.97C1037.41 44.915 1038.13 45.632 1038.13 47.066L1037.41 60.45C1046.97 48.1813 1060.19 42.047 1077.08 42.047C1090.15 42.047 1100.5 46.2693 1108.15 54.714C1115.96 63.1587 1119.86 74.8697 1119.86 89.847V115.659L1120.58 165.849C1120.58 167.283 1119.86 168 1118.43 168H1086.4C1084.97 168 1084.25 167.283 1084.25 165.849L1084.73 115.659V90.325C1084.73 83.7923 1082.98 78.5343 1079.47 74.551C1075.97 70.4083 1071.51 68.337 1066.09 68.337C1058.92 68.337 1052.62 71.683 1047.21 78.375C1041.95 84.9077 1039.32 94.3083 1039.32 106.577V115.659ZM1166.99 115.659L1167.47 165.849C1167.47 167.283 1166.75 168 1165.32 168H1132.81C1131.38 168 1130.66 167.283 1130.66 165.849L1131.38 108.967L1131.14 47.066C1131.14 45.632 1131.86 44.915 1133.29 44.915H1163.64C1165.08 44.915 1165.79 45.632 1165.79 47.066L1165.08 60.45C1174.64 48.1813 1187.86 42.047 1204.75 42.047C1217.82 42.047 1228.17 46.2693 1235.82 54.714C1243.63 63.1587 1247.53 74.8697 1247.53 89.847V115.659L1248.25 165.849C1248.25 167.283 1247.53 168 1246.1 168H1214.07C1212.64 168 1211.92 167.283 1211.92 165.849L1212.4 115.659V90.325C1212.4 83.7923 1210.65 78.5343 1207.14 74.551C1203.64 70.4083 1199.17 68.337 1193.76 68.337C1186.59 68.337 1180.29 71.683 1174.88 78.375C1169.62 84.9077 1166.99 94.3083 1166.99 106.577V115.659ZM1319.28 147.207C1332.34 147.207 1340.31 140.913 1343.18 128.326C1343.65 127.051 1344.45 126.414 1345.57 126.414H1375.68C1377.43 126.414 1378.15 127.131 1377.83 128.565C1376.24 140.515 1370.1 150.633 1359.43 158.918C1348.91 167.044 1335.37 171.107 1318.8 171.107C1298.72 171.107 1283.11 165.212 1271.95 153.421C1260.96 141.471 1255.46 125.936 1255.46 106.816C1255.46 87.0587 1261.04 71.2847 1272.19 59.494C1283.35 47.7033 1298.64 41.808 1318.08 41.808C1338 41.808 1353.45 48.022 1364.45 60.45C1375.6 72.7187 1381.34 89.7673 1381.65 111.596C1381.65 113.03 1380.94 113.747 1379.5 113.747H1291.55C1292.19 125.219 1294.82 133.664 1299.44 139.081C1304.06 144.498 1310.67 147.207 1319.28 147.207ZM1318.32 65.469C1303.98 65.469 1295.38 73.9933 1292.51 91.042H1342.94C1342.14 83.7127 1339.67 77.658 1335.53 72.878C1331.38 67.9387 1325.65 65.469 1318.32 65.469ZM1425.58 113.269V165.849C1425.58 167.283 1424.86 168 1423.43 168H1391.88C1390.44 168 1389.73 167.283 1389.73 165.849L1390.68 106.338L1389.73 47.066C1389.73 45.632 1390.44 44.915 1391.88 44.915H1423.43C1424.86 44.915 1425.58 45.632 1425.58 47.066L1424.62 65.708C1434.18 51.2087 1448.84 43.959 1468.6 43.959C1470.19 43.959 1472.1 44.1183 1474.33 44.437C1475.61 44.7557 1476.25 45.5523 1476.25 46.827V69.054C1476.25 70.488 1475.53 71.205 1474.09 71.205C1473.14 71.0457 1471.63 70.966 1469.55 70.966C1456.33 70.966 1445.65 74.6307 1437.53 81.96C1429.4 89.13 1425.42 99.5663 1425.58 113.269Z" fill="url(#paint0_linear_2133_767)" fill-opacity="0.85"/>
<defs>
<linearGradient id="paint0_linear_2133_767" x1="768.411" y1="71" x2="768.411" y2="194" gradientUnits="userSpaceOnUse">
<stop stop-color="#131312"/>
<stop offset="1" stop-color="#131312" stop-opacity="0"/>
</linearGradient>
</defs>
</svg>
