<svg width="21" height="19" viewBox="0 0 21 19" fill="none" xmlns="http://www.w3.org/2000/svg">
<path d="M18.0988 13.35C18.6027 13.35 19.086 13.1498 19.4423 12.7935C19.7986 12.4372 19.9988 11.9539 19.9988 11.45V5.75C19.9988 5.24609 19.7986 4.76282 19.4423 4.4065C19.086 4.05018 18.6027 3.85 18.0988 3.85H14.3938C14.0761 3.85312 13.7626 3.77648 13.4821 3.62711C13.2016 3.47774 12.9631 3.26041 12.7883 2.995L12.0188 1.855C11.8458 1.5923 11.6103 1.37666 11.3334 1.22743C11.0565 1.0782 10.7469 1.00005 10.4323 1H6.69883C6.19492 1 5.71164 1.20018 5.35533 1.5565C4.99901 1.91282 4.79883 2.39609 4.79883 2.9V11.45C4.79883 11.9539 4.99901 12.4372 5.35533 12.7935C5.71164 13.1498 6.19492 13.35 6.69883 13.35H18.0988Z" stroke="#FF6500" stroke-width="2" stroke-linecap="round" stroke-linejoin="round"/>
<path d="M1 4.7998V15.2498C1 15.7537 1.20018 16.237 1.5565 16.5933C1.91282 16.9496 2.39609 17.1498 2.9 17.1498H16.2" stroke="#FF6500" stroke-width="2" stroke-linecap="round" stroke-linejoin="round"/>
</svg>
