<svg width="23" height="21" viewBox="0 0 23 21" fill="none" xmlns="http://www.w3.org/2000/svg">
<path d="M11.615 17.7956L11.5 17.9101L11.3735 17.7956C5.911 12.8632 2.3 9.60163 2.3 6.29428C2.3 4.00545 4.025 2.28883 6.325 2.28883C8.096 2.28883 9.821 3.43324 10.4305 4.98965H12.5695C13.179 3.43324 14.904 2.28883 16.675 2.28883C18.975 2.28883 20.7 4.00545 20.7 6.29428C20.7 9.60163 17.089 12.8632 11.615 17.7956ZM16.675 0C14.674 0 12.7535 0.926975 11.5 2.38038C10.2465 0.926975 8.326 0 6.325 0C2.783 0 0 2.75804 0 6.29428C0 10.6087 3.91 14.145 9.8325 19.4894L11.5 21L13.1675 19.4894C19.09 14.145 23 10.6087 23 6.29428C23 2.75804 20.217 0 16.675 0Z" fill="#FF6500"/>
</svg>
