<svg width="20" height="18" viewBox="0 0 20 18" fill="none" xmlns="http://www.w3.org/2000/svg">
<path d="M20.0012 2.4797C20.0012 3.16167 19.4496 3.71175 18.773 3.71175H15.6914C15.8646 3.26139 15.9576 2.77243 15.9576 2.26095C15.9576 1.91032 15.9127 1.56933 15.8293 1.24121H18.773C19.4528 1.24121 20.0012 1.79773 20.0012 2.47648V2.4797Z" fill="#FF6500"/>
<path d="M8.70611 3.70601C8.66442 3.70601 8.62594 3.71244 8.58426 3.71244H1.22815C0.548341 3.71244 0 3.15914 0 2.48039C0 1.80163 0.551547 1.24512 1.22815 1.24512H8.57143C8.48805 1.57324 8.44316 1.91422 8.44316 2.26486C8.44316 2.77312 8.53615 3.26208 8.70611 3.70922V3.70601Z" fill="#FF6500"/>
<path d="M3.09764 8.70373C3.09764 9.13157 3.16498 9.54976 3.28684 9.939H1.22815C0.548341 9.939 0 9.38249 0 8.70373C0 8.02498 0.551547 7.47168 1.22815 7.47168H3.28684C3.16498 7.86414 3.09764 8.27589 3.09764 8.70373Z" fill="#FF6500"/>
<path d="M20.0002 8.70414C20.0002 9.38611 19.4487 9.93941 18.772 9.93941H10.502C10.4764 9.93941 10.4475 9.93941 10.4219 9.93941C10.5437 9.54695 10.6111 9.13519 10.6111 8.70735C10.6111 8.27951 10.5437 7.86454 10.4251 7.47852C10.4507 7.47852 10.4764 7.47852 10.502 7.47852H18.772C19.4519 7.47852 20.0002 8.03181 20.0002 8.71057V8.70414Z" fill="#FF6500"/>
<path d="M20.0012 14.9318C20.0012 15.6138 19.4496 16.1671 18.773 16.1671H15.8293C15.9127 15.839 15.9576 15.498 15.9576 15.1442C15.9576 14.6327 15.8646 14.1437 15.6914 13.6934H18.773C19.4528 13.6934 20.0012 14.2499 20.0012 14.9286V14.9318Z" fill="#FF6500"/>
<path d="M8.44316 15.1478C8.44316 15.5016 8.48805 15.8426 8.57143 16.1707H1.22815C0.548341 16.1707 0 15.6142 0 14.9355C0 14.2567 0.551547 13.7002 1.22815 13.7002H8.58426C8.62594 13.7002 8.66442 13.7002 8.70611 13.7066C8.53615 14.1538 8.44316 14.6427 8.44316 15.151V15.1478Z" fill="#FF6500"/>
<path d="M12.1976 4.52289C13.4427 4.52289 14.4519 3.51041 14.4519 2.26145C14.4519 1.01248 13.4427 0 12.1976 0C10.9526 0 9.94336 1.01248 9.94336 2.26145C9.94336 3.51041 10.9526 4.52289 12.1976 4.52289Z" fill="#FF6500"/>
<path d="M6.85585 10.9662C8.10086 10.9662 9.11014 9.95377 9.11014 8.70481C9.11014 7.45584 8.10086 6.44336 6.85585 6.44336C5.61084 6.44336 4.60156 7.45584 4.60156 8.70481C4.60156 9.95377 5.61084 10.9662 6.85585 10.9662Z" fill="#FF6500"/>
<path d="M12.1976 17.4096C13.4427 17.4096 14.4519 16.3971 14.4519 15.1482C14.4519 13.8992 13.4427 12.8867 12.1976 12.8867C10.9526 12.8867 9.94336 13.8992 9.94336 15.1482C9.94336 16.3971 10.9526 17.4096 12.1976 17.4096Z" fill="#FF6500"/>
</svg>
