<svg width="24" height="20" viewBox="0 0 24 20" fill="none" xmlns="http://www.w3.org/2000/svg">
<g clip-path="url(#clip0_2133_753)">
<path d="M23.9559 9.32222L22.3691 17.3222C22.219 18.0772 21.8142 18.7564 21.2236 19.2446C20.6331 19.7327 19.8931 19.9996 19.1295 20H3.30579C2.42904 20 1.5882 19.6488 0.968242 19.0237C0.348287 18.3986 0 17.5507 0 16.6667V3.33333C0 2.44928 0.348287 1.60143 0.968242 0.976311C1.5882 0.35119 2.42904 0 3.30579 0H7.7135C7.92951 0.00170092 8.14027 0.0673862 8.31956 0.188889L11.3499 2.22222H17.6309C18.5076 2.22222 19.3484 2.57341 19.9684 3.19853C20.5884 3.82365 20.9366 4.6715 20.9366 5.55556H18.7328C18.7328 5.26087 18.6167 4.97826 18.41 4.76988C18.2034 4.56151 17.9231 4.44444 17.6309 4.44444H11.0193C10.8033 4.44274 10.5925 4.37706 10.4132 4.25556L7.38292 2.22222H3.30579C3.01354 2.22222 2.73326 2.33929 2.5266 2.54766C2.31995 2.75603 2.20386 3.03865 2.20386 3.33333V16.6667C2.20386 16.9614 2.31995 17.244 2.5266 17.4523C2.73326 17.6607 3.01354 17.7778 3.30579 17.7778H3.50413L5.17906 9.34444C5.32924 8.58949 5.734 7.91024 6.32457 7.4221C6.91514 6.93396 7.6551 6.66703 8.41873 6.66667H21.7961C22.1226 6.66585 22.4453 6.73819 22.7406 6.87847C23.036 7.01874 23.2968 7.22345 23.5041 7.47778C23.71 7.73243 23.8572 8.02993 23.9354 8.34886C24.0135 8.6678 24.0205 9.00023 23.9559 9.32222Z" fill="#FF6500"/>
</g>
<defs>
<clipPath id="clip0_2133_753">
<rect width="24" height="20" fill="white"/>
</clipPath>
</defs>
</svg>
