<svg width="36" height="18" viewBox="0 0 36 18" fill="none" xmlns="http://www.w3.org/2000/svg">
<path d="M24.6923 0.534464C23.9953 -0.170334 22.8596 -0.179225 22.1517 0.514655L8.87244 13.639L3.09983 7.66293C2.41133 6.94534 1.2715 6.92179 0.553991 7.61029C-0.163597 8.29879 -0.18715 9.43862 0.501348 10.1561L0.510629 10.1657L7.5491 17.4598C7.71586 17.63 7.91473 17.7653 8.13418 17.858C8.35362 17.9507 8.58928 17.999 8.82751 18H8.84732C9.31942 17.9985 9.77204 17.8116 10.1077 17.4796L24.6761 3.07508C25.3799 2.37706 25.3871 1.24145 24.6923 0.534464ZM18.3525 17.4598C18.5188 17.6295 18.7171 17.7646 18.9359 17.8573C19.1547 17.95 19.3897 17.9985 19.6273 18H19.6471C20.1192 17.9985 20.5718 17.8116 20.9075 17.4796L35.4759 3.07508C36.1363 2.33152 36.0688 1.19348 35.3253 0.533138C34.6513 -0.0655151 33.6384 -0.0733921 32.9551 0.514655L19.6813 13.639L19.2077 13.1474C18.5193 12.4299 17.3795 12.4062 16.6619 13.0947C15.9443 13.7832 15.9207 14.923 16.6091 15.6406L16.6185 15.6502L18.3525 17.4598Z" fill="#FF6500"/>
</svg>
