<svg width="30" height="25" viewBox="0 0 30 25" fill="none" xmlns="http://www.w3.org/2000/svg">
<path d="M8.90332 14.2653C9.3195 13.7946 8.98048 13.0595 8.34711 13.0595H6.45081C6.43819 12.8733 6.43177 12.6867 6.43155 12.5C6.43155 7.84105 10.2753 4.05076 15 4.05076C17.2705 4.05076 19.3372 4.92637 20.872 6.35277L23.546 3.26809C21.2052 1.15658 18.1929 0 15 0C11.614 0 8.43071 1.30026 6.03645 3.66115C3.64224 6.02211 2.32363 9.16111 2.32363 12.5C2.32363 12.6872 2.32838 12.8736 2.33663 13.0595H0.739361C0.105992 13.0595 -0.233086 13.7945 0.183151 14.2653L3.78637 18.3409L4.54321 19.1969L7.26051 16.1234L8.90332 14.2653ZM29.8169 11.8875L27.1294 8.84765L25.4568 6.95585L23.0688 9.65688L21.0968 11.8875C20.6806 12.3583 21.0196 13.0933 21.653 13.0933H23.547C23.2372 17.4765 19.5224 20.9492 15 20.9492C13.0259 20.9492 11.2059 20.2872 9.75547 19.1768L7.08131 22.2617C9.32155 24.0358 12.0855 25 15.0001 25C18.3861 25 21.5694 23.6998 23.9636 21.3388C26.2155 19.1183 27.5155 16.2094 27.6622 13.0934H29.2607C29.894 13.0933 30.2331 12.3583 29.8169 11.8875Z" fill="#FF6500"/>
</svg>
