<svg width="23" height="26" viewBox="0 0 23 26" fill="none" xmlns="http://www.w3.org/2000/svg">
<path d="M11.0713 25.5307C12.5815 25.5307 13.882 24.6244 14.4527 23.3308H7.68997C8.26061 24.6244 9.56116 25.5307 11.0713 25.5307ZM18.6982 12.6175V11.011C18.6982 7.59749 16.4145 4.70433 13.2856 3.75937V2.69997C13.2856 1.48691 12.2923 0.5 11.0713 0.5C9.85039 0.5 8.85708 1.48691 8.85708 2.69997V3.75937C5.7281 4.70433 3.44447 7.59744 3.44447 11.011V12.6175C3.44447 15.6159 2.29415 18.4591 0.205423 20.6232C0.105274 20.727 0.0380179 20.8577 0.0120172 20.9991C-0.0139836 21.1405 0.00241742 21.2863 0.0591812 21.4186C0.115945 21.5508 0.210568 21.6635 0.331287 21.7427C0.452007 21.8219 0.593498 21.8642 0.738171 21.8641H21.4045C21.5491 21.8641 21.6906 21.8219 21.8113 21.7427C21.932 21.6635 22.0266 21.5507 22.0834 21.4185C22.1402 21.2863 22.1566 21.1405 22.1306 20.9991C22.1046 20.8577 22.0373 20.727 21.9372 20.6232C19.8485 18.4591 18.6982 15.6159 18.6982 12.6175ZM11.8094 3.46888C11.5665 3.44561 11.3203 3.43329 11.0713 3.43329C10.8223 3.43329 10.5762 3.44561 10.3332 3.46888V2.69997C10.3332 2.29561 10.6643 1.96665 11.0713 1.96665C11.4783 1.96665 11.8094 2.29561 11.8094 2.69997V3.46888Z" fill="#FF6500"/>
</svg>
