<svg width="40" height="40" viewBox="0 0 40 40" fill="none" xmlns="http://www.w3.org/2000/svg">
<circle cx="20" cy="20" r="20" fill="#FF6500" fill-opacity="0.13"/>
<path d="M23.7904 26.2733L23.5691 27.1872C22.905 27.4519 22.3745 27.6534 21.9795 27.7919C21.584 27.9307 21.1245 28.0001 20.601 28C19.7971 28 19.1717 27.8011 18.7258 27.406C18.2798 27.0094 18.0567 26.5068 18.0567 25.8971C18.0567 25.661 18.0729 25.4182 18.1065 25.1709C18.1405 24.9232 18.1944 24.6443 18.2683 24.3326L19.0982 21.3659C19.172 21.0819 19.2348 20.8127 19.2851 20.5582C19.336 20.3052 19.3606 20.0725 19.3606 19.863C19.3606 19.4841 19.2829 19.2191 19.1283 19.0701C18.9737 18.9216 18.6786 18.8461 18.2406 18.8461C18.026 18.8461 17.8055 18.8808 17.5807 18.948C17.355 19.0154 17.162 19.0805 17 19.141L17.2219 18.2264C17.7656 18.0028 18.2853 17.8114 18.7824 17.6525C19.2795 17.4932 19.7492 17.4134 20.1935 17.4134C20.9919 17.4134 21.608 17.6083 22.0407 17.9981C22.4733 18.3881 22.6896 18.8938 22.6896 19.5168C22.6896 19.6457 22.6754 19.8729 22.6448 20.1975C22.6149 20.5229 22.5595 20.8211 22.4786 21.0922L21.6522 24.0469C21.5845 24.2843 21.5235 24.5556 21.4706 24.8609C21.4159 25.1641 21.3898 25.3959 21.3898 25.5513C21.3898 25.9439 21.4765 26.2114 21.6501 26.3539C21.8249 26.4962 22.1263 26.5673 22.5542 26.5672C22.7552 26.5672 22.9838 26.5312 23.2378 26.4605C23.4911 26.3898 23.6758 26.3277 23.7904 26.2733ZM24 13.8685C24 14.3833 23.8079 14.8229 23.4218 15.1845C23.0367 15.5474 22.5728 15.7288 22.0299 15.7288C21.4853 15.7288 21.0202 15.5473 20.6307 15.1845C20.2419 14.8228 20.0471 14.3833 20.0471 13.8685C20.0473 13.3545 20.2418 12.9145 20.6307 12.5482C21.0193 12.1827 21.4857 12 22.0299 12C22.5727 12.0002 23.0366 12.1829 23.4218 12.5482C23.8082 12.9143 24 13.3548 24 13.8685Z" fill="#FF6500"/>
</svg>
