<svg width="40" height="40" viewBox="0 0 40 40" fill="none" xmlns="http://www.w3.org/2000/svg">
<circle cx="20" cy="20" r="20" fill="#FF6500" fill-opacity="0.13"/>
<g clip-path="url(#clip0_4147_220)">
<path d="M14.1053 16H25.8947C26.4253 16.0015 26.8807 16.3745 26.9816 16.8904L20 20.7445L13.0184 16.8904C13.1193 16.3745 13.5747 16.0015 14.1053 16ZM25.8947 25H14.1053C13.4956 24.9981 13.0017 24.509 13 23.9051V17.7153L19.8195 21.4817C19.8749 21.5119 19.9368 21.5282 20 21.5292C20.0634 21.5299 20.1258 21.5135 20.1805 21.4817L27 17.7153V23.9051C26.9996 24.5096 26.5049 24.9994 25.8947 25Z" fill="#FF6500"/>
</g>
<defs>
<clipPath id="clip0_4147_220">
<rect width="14" height="9" fill="white" transform="translate(13 16)"/>
</clipPath>
</defs>
</svg>
