<svg width="56" height="56" viewBox="0 0 56 56" fill="none" xmlns="http://www.w3.org/2000/svg">
<circle cx="28" cy="28" r="28" fill="#FF6500" fill-opacity="0.13"/>
<path d="M20 23C20 22.606 20.0776 22.2159 20.2284 21.8519C20.3791 21.488 20.6001 21.1573 20.8787 20.8787C21.1573 20.6001 21.488 20.3791 21.8519 20.2284C22.2159 20.0776 22.606 20 23 20C23.394 20 23.7841 20.0776 24.1481 20.2284C24.512 20.3791 24.8427 20.6001 25.1213 20.8787C25.3999 21.1573 25.6209 21.488 25.7716 21.8519C25.9224 22.2159 26 22.606 26 23C26 23.7956 25.6839 24.5587 25.1213 25.1213C24.5587 25.6839 23.7956 26 23 26C22.2044 26 21.4413 25.6839 20.8787 25.1213C20.3161 24.5587 20 23.7956 20 23ZM23 18C21.6739 18 20.4021 18.5268 19.4645 19.4645C18.5268 20.4021 18 21.6739 18 23C18 24.3261 18.5268 25.5979 19.4645 26.5355C20.4021 27.4732 21.6739 28 23 28C24.3261 28 25.5979 27.4732 26.5355 26.5355C27.4732 25.5979 28 24.3261 28 23C28 21.6739 27.4732 20.4021 26.5355 19.4645C25.5979 18.5268 24.3261 18 23 18ZM33 24C33 23.4696 33.2107 22.9609 33.5858 22.5858C33.9609 22.2107 34.4696 22 35 22C35.5304 22 36.0391 22.2107 36.4142 22.5858C36.7893 22.9609 37 23.4696 37 24C37 24.5304 36.7893 25.0391 36.4142 25.4142C36.0391 25.7893 35.5304 26 35 26C34.4696 26 33.9609 25.7893 33.5858 25.4142C33.2107 25.0391 33 24.5304 33 24ZM35 20C33.9391 20 32.9217 20.4214 32.1716 21.1716C31.4214 21.9217 31 22.9391 31 24C31 25.0609 31.4214 26.0783 32.1716 26.8284C32.9217 27.5786 33.9391 28 35 28C36.0609 28 37.0783 27.5786 37.8284 26.8284C38.5786 26.0783 39 25.0609 39 24C39 22.9391 38.5786 21.9217 37.8284 21.1716C37.0783 20.4214 36.0609 20 35 20ZM15 33C15 32.2044 15.3161 31.4413 15.8787 30.8787C16.4413 30.3161 17.2044 30 18 30H28C28.7956 30 29.5587 30.3161 30.1213 30.8787C30.6839 31.4413 31 32.2044 31 33V33.224C30.9996 33.3157 30.9929 33.4072 30.98 33.498C30.8663 34.4677 30.5054 35.3918 29.932 36.182C28.838 37.692 26.758 39 23 39C19.242 39 17.164 37.692 16.066 36.182C15.4933 35.3916 15.1331 34.4675 15.02 33.498C15.0102 33.4069 15.0035 33.3155 15 33.224V33ZM17 33.18V33.194L17.008 33.292C17.0852 33.9112 17.3177 34.5008 17.684 35.006C18.336 35.902 19.756 37 23 37C26.244 37 27.664 35.902 28.316 35.006C28.6823 34.5008 28.9148 33.9112 28.992 33.292L29 33.192V33C29 32.7348 28.8946 32.4804 28.7071 32.2929C28.5196 32.1054 28.2652 32 28 32H18C17.7348 32 17.4804 32.1054 17.2929 32.2929C17.1054 32.4804 17 32.7348 17 33V33.18ZM35 37C33.824 37 32.86 36.82 32.08 36.524C32.3977 35.9353 32.6402 35.3091 32.802 34.66C33.338 34.862 34.05 35 35 35C37.238 35 38.156 34.236 38.56 33.668C38.798 33.3377 38.948 32.9523 38.996 32.548L39 32.492C38.9979 32.3608 38.9443 32.2357 38.8508 32.1436C38.7572 32.0516 38.6312 32 38.5 32H32.9C32.7517 31.2749 32.4443 30.5918 32 30H38.5C39.88 30 41 31.12 41 32.5V32.534C40.9986 32.6069 40.9933 32.6797 40.984 32.752C40.9014 33.5021 40.6273 34.2184 40.188 34.832C39.344 36.014 37.762 37 35 37Z" fill="#FF6500"/>
</svg>
