<svg width="56" height="56" viewBox="0 0 56 56" fill="none" xmlns="http://www.w3.org/2000/svg">
<circle cx="28" cy="28" r="28" fill="#FF6500" fill-opacity="0.13"/>
<path d="M36 23.993C36 19.5916 32.4053 16 28 16C23.5947 16 20 19.5916 20 23.993C20 24.6268 20.0705 25.2606 20.2467 25.8944C20.4582 26.9155 20.8458 27.5493 21.3745 28.4296C21.4802 28.6409 21.6211 28.8521 21.7621 29.0986C21.9383 29.3803 22.0793 29.662 22.2555 29.9085C22.9604 31.0704 23.3833 31.7395 23.3833 33.1127V36.4225C23.3833 37.2676 23.9824 37.9366 24.793 38.0775C25.1454 39.8733 26.2026 41 28 41C29.7974 41 30.8899 39.8733 31.207 38.0775C32.0176 37.9366 32.6167 37.2324 32.6167 36.4225V33.1127C32.6167 31.7395 33.0396 31.0352 33.7445 29.9085C33.8855 29.662 34.0617 29.3803 34.2379 29.0986C34.3789 28.8521 34.5198 28.6409 34.6255 28.4296C35.1542 27.5493 35.5418 26.9155 35.7533 25.8944C35.9295 25.2606 36 24.6268 36 23.993ZM31.2423 33.9577H24.8282V33.1479C24.8282 32.9718 24.8282 32.831 24.793 32.6901H31.2423C31.2423 32.831 31.207 32.9718 31.207 33.1479V33.9577H31.2423ZM30.9251 36.7394H25.0749C24.8987 36.7394 24.793 36.5986 24.793 36.4578V35.3662H31.207V36.4578C31.2423 36.5986 31.1013 36.7394 30.9251 36.7394ZM28 39.6268C27.6123 39.6268 26.6256 39.6268 26.2379 38.1479H29.7973C29.4097 39.6268 28.3877 39.6268 28 39.6268ZM34.3788 25.6127C34.2026 26.3873 33.9207 26.9155 33.4273 27.7254C33.2863 27.9366 33.1806 28.1479 33.0396 28.3944C32.8634 28.6761 32.7225 28.9577 32.5815 29.169C32.1586 29.8732 31.7709 30.5071 31.5242 31.2465H24.5463C24.2996 30.5071 23.9471 29.8732 23.489 29.169C23.348 28.9225 23.1718 28.6761 23.0308 28.3944C22.8899 28.1479 22.7489 27.9014 22.6432 27.7254C22.1498 26.8803 21.8678 26.3873 21.6916 25.5775C21.5507 25.0493 21.4802 24.5211 21.4802 23.993C21.4802 20.3662 24.4405 17.4085 28.0705 17.4085C31.7004 17.4085 34.6608 20.3662 34.6608 23.993C34.5903 24.5211 34.5198 25.0493 34.3788 25.6127Z" fill="#FF6500"/>
</svg>
