<svg width="56" height="56" viewBox="0 0 56 56" fill="none" xmlns="http://www.w3.org/2000/svg">
<circle cx="28" cy="28" r="28" fill="#FF6500" fill-opacity="0.13"/>
<path d="M17.166 22.5837C17.166 22.009 17.3943 21.4579 17.8006 21.0516C18.2069 20.6453 18.758 20.417 19.3327 20.417H36.666C37.2406 20.417 37.7917 20.6453 38.1981 21.0516C38.6044 21.4579 38.8327 22.009 38.8327 22.5837V33.417C38.8327 33.9916 38.6044 34.5427 38.1981 34.9491C37.7917 35.3554 37.2406 35.5837 36.666 35.5837H19.3327C18.758 35.5837 18.2069 35.3554 17.8006 34.9491C17.3943 34.5427 17.166 33.9916 17.166 33.417V22.5837Z" stroke="#FF6500" stroke-width="1.73333" stroke-linecap="round" stroke-linejoin="round"/>
<path d="M28 31.2505C29.7949 31.2505 31.25 29.7954 31.25 28.0005C31.25 26.2056 29.7949 24.7505 28 24.7505C26.2051 24.7505 24.75 26.2056 24.75 28.0005C24.75 29.7954 26.2051 31.2505 28 31.2505Z" stroke="#FF6500" stroke-width="1.73333" stroke-linecap="round" stroke-linejoin="round"/>
<path d="M17.166 24.7503C18.3153 24.7503 19.4175 24.2938 20.2301 23.4811C21.0428 22.6685 21.4993 21.5663 21.4993 20.417M34.4993 35.5837C34.4993 34.4344 34.9559 33.3322 35.7686 32.5195C36.5812 31.7069 37.6834 31.2503 38.8327 31.2503" stroke="#FF6500" stroke-width="1.73333" stroke-linecap="round" stroke-linejoin="round"/>
</svg>
