<svg width="56" height="56" viewBox="0 0 56 56" fill="none" xmlns="http://www.w3.org/2000/svg">
<circle cx="28" cy="28" r="28" fill="#FF6500" fill-opacity="0.13"/>
<path d="M31.2992 27.6999C31.2992 28.5751 30.9515 29.4145 30.3327 30.0334C29.7138 30.6522 28.8744 30.9999 27.9992 30.9999C27.124 30.9999 26.2846 30.6522 25.6658 30.0334C25.0469 29.4145 24.6992 28.5751 24.6992 27.6999C24.6992 26.8247 25.0469 25.9853 25.6658 25.3664C26.2846 24.7476 27.124 24.3999 27.9992 24.3999C28.8744 24.3999 29.7138 24.7476 30.3327 25.3664C30.9515 25.9853 31.2992 26.8247 31.2992 27.6999Z" stroke="#FF6500" stroke-width="2.2" stroke-linecap="round" stroke-linejoin="round"/>
<path d="M17 27.7C18.76 23.1933 22.8696 20 28 20C33.1304 20 37.24 23.1933 39 27.7C37.24 32.2067 33.1304 35.4 28 35.4C22.8696 35.4 18.76 32.2067 17 27.7Z" stroke="#FF6500" stroke-width="2.2" stroke-linecap="round" stroke-linejoin="round"/>
</svg>
