<svg width="303" height="213" viewBox="0 0 303 213" fill="none" xmlns="http://www.w3.org/2000/svg">
<g filter="url(#filter0_d_2184_234)">
<rect x="16" y="24.0303" width="55.5016" height="54.7087" rx="13.4789" transform="rotate(-16.7877 16 24.0303)" fill="white"/>
</g>
<g clip-path="url(#clip0_2184_234)">
<path d="M51.5003 47.7146L51.4404 47.8263L51.3201 47.769C46.1286 45.3004 42.6966 43.6677 41.9485 41.1879C41.4307 39.4718 42.3295 37.7964 44.0456 37.2787C45.3671 36.8801 46.913 37.3498 47.7198 38.3796L49.3158 37.8981C49.4185 36.5939 50.4468 35.3476 51.7682 34.9489C53.4843 34.4312 55.1597 35.33 55.6774 37.0461C56.4255 39.5259 54.469 42.7842 51.5003 47.7146ZM51.2504 33.2328C49.7574 33.6832 48.5341 34.8106 47.9276 36.1825C46.6636 35.3749 45.0209 35.1122 43.5279 35.5626C40.8851 36.3599 39.4325 39.0542 40.2323 41.7056C41.2082 44.9405 44.9255 46.7118 50.5534 49.3858L52.1393 50.1431L53.0418 48.6351C56.2519 43.2948 58.3694 39.7633 57.3935 36.5284C56.5936 33.877 53.8933 32.4355 51.2504 33.2328Z" fill="#FF6500"/>
</g>
<g filter="url(#filter1_d_2184_234)">
<rect x="156.559" y="15.5186" width="55.5016" height="54.7087" rx="13.4789" transform="rotate(30.6805 156.559 15.5186)" fill="white"/>
</g>
<g clip-path="url(#clip1_2184_234)">
<path d="M163.104 57.6903L162.981 57.7217L162.942 57.5943C161.251 52.0999 160.134 48.4671 161.456 46.2395C162.371 44.6979 164.213 44.2277 165.754 45.1423C166.942 45.8465 167.64 47.3033 167.427 48.594L168.861 49.4446C169.891 48.6387 171.505 48.5539 172.692 49.2581C174.233 50.1727 174.704 52.0149 173.789 53.5565C172.467 55.7841 168.744 56.545 163.104 57.6903ZM173.606 47.7165C172.265 46.9208 170.607 46.7814 169.187 47.2619C168.927 45.7845 168.01 44.3964 166.669 43.6007C164.295 42.1922 161.328 42.9431 159.914 45.3249C158.19 48.2308 159.398 52.1674 161.232 58.1223L161.746 59.8028L163.467 59.4485C169.573 58.204 173.606 57.3771 175.331 54.4712C176.744 52.0894 175.98 49.125 173.606 47.7165Z" fill="#FF6500"/>
</g>
<g filter="url(#filter2_d_2184_234)">
<rect x="185.453" y="1" width="38.6777" height="38.1251" rx="9.39315" transform="rotate(30.6805 185.453 1)" fill="white"/>
</g>
<g clip-path="url(#clip2_2184_234)">
<path d="M190.015 30.3884L189.929 30.4103L189.902 30.3215C188.724 26.4926 187.945 23.961 188.866 22.4086C189.504 21.3343 190.788 21.0066 191.862 21.644C192.689 22.1348 193.176 23.15 193.027 24.0494L194.027 24.6422C194.745 24.0806 195.869 24.0214 196.696 24.5122C197.771 25.1496 198.098 26.4334 197.461 27.5077C196.54 29.0601 193.945 29.5903 190.015 30.3884ZM197.334 23.4379C196.399 22.8834 195.244 22.7863 194.254 23.1211C194.073 22.0915 193.434 21.1242 192.499 20.5697C190.845 19.5881 188.777 20.1114 187.792 21.7712C186.591 23.7963 187.432 26.5397 188.71 30.6894L189.068 31.8606L190.268 31.6136C194.523 30.7464 197.334 30.1701 198.535 28.1451C199.52 26.4853 198.988 24.4195 197.334 23.4379Z" fill="#FF6500"/>
</g>
<g filter="url(#filter3_d_2184_234)">
<rect x="205.984" y="22.9385" width="42.8525" height="42.2403" rx="10.407" transform="rotate(10.4788 205.984 22.9385)" fill="white"/>
</g>
<g clip-path="url(#clip3_2184_234)">
<path d="M221.972 51.7511L221.892 51.8066L221.829 51.7247C219.14 48.1941 217.362 45.8596 217.725 43.8931C217.977 42.5322 219.187 41.7003 220.547 41.952C221.595 42.1458 222.49 43.0151 222.68 44.0072L223.945 44.2413C224.477 43.3826 225.624 42.8909 226.672 43.0847C228.032 43.3364 228.864 44.5459 228.613 45.9068C228.249 47.8733 225.754 49.4174 221.972 51.7511ZM226.923 41.7238C225.739 41.5048 224.501 41.8458 223.599 42.5728C223.018 41.5715 221.983 40.8101 220.799 40.5911C218.703 40.2035 216.753 41.5388 216.364 43.6414C215.89 46.2067 217.815 48.7372 220.731 52.5631L221.552 53.6438L222.705 52.9281C226.797 50.3985 229.499 48.7238 229.974 46.1585C230.362 44.0559 229.019 42.1114 226.923 41.7238Z" fill="#FF6500"/>
</g>
<g filter="url(#filter4_d_2184_234)">
<rect x="111.684" y="18" width="42.8525" height="42.2403" rx="10.407" transform="rotate(10.4788 111.684 18)" fill="white"/>
</g>
<g clip-path="url(#clip4_2184_234)">
<path d="M127.671 46.8126L127.591 46.8681L127.529 46.7862C124.839 43.2556 123.061 40.9212 123.425 38.9547C123.676 37.5937 124.886 36.7618 126.247 37.0136C127.295 37.2074 128.189 38.0766 128.379 39.0687L129.645 39.3028C130.176 38.4441 131.323 37.9524 132.371 38.1462C133.732 38.398 134.564 39.6074 134.312 40.9683C133.948 42.9348 131.453 44.4789 127.671 46.8126ZM132.622 36.7853C131.438 36.5663 130.2 36.9073 129.299 37.6343C128.717 36.633 127.682 35.8716 126.498 35.6526C124.403 35.265 122.453 36.6003 122.064 38.7029C121.589 41.2683 123.514 43.7988 126.43 47.6246L127.251 48.7053L128.404 47.9896C132.496 45.46 135.198 43.7853 135.673 41.22C136.062 39.1174 134.718 37.173 132.622 36.7853Z" fill="#FF6500"/>
</g>
<g filter="url(#filter5_d_2184_234)">
<rect x="71.1328" y="14.4365" width="37.2134" height="36.6818" rx="9.03755" transform="rotate(0.331718 71.1328 14.4365)" fill="white"/>
</g>
<path d="M89.2066 36.6202L89.1462 36.68L89.0804 36.6195C86.241 34.013 84.3641 32.2894 84.3741 30.5528C84.3811 29.3509 85.2877 28.4547 86.4895 28.4617C87.415 28.4671 88.3129 29.0732 88.6266 29.8923L89.7443 29.8988C90.0676 29.0834 90.9724 28.4877 91.8978 28.493C93.0997 28.5 93.9959 29.4066 93.9889 30.6084C93.9788 32.3451 92.082 34.0468 89.2066 36.6202ZM91.9048 27.2912C90.8592 27.2851 89.8528 27.7661 89.1934 28.5254C88.5428 27.7585 87.5421 27.2659 86.4965 27.2599C84.6456 27.2491 83.183 28.6889 83.1723 30.5458C83.1592 32.8113 85.1915 34.68 88.2701 37.5042L89.1368 38.3025L90.0127 37.5143C93.1237 34.7259 95.1776 32.8809 95.1907 30.6154C95.2015 28.7585 93.7556 27.3019 91.9048 27.2912Z" fill="#FF6500"/>
<g filter="url(#filter6_d_2184_234)">
<rect x="70.0234" y="36" width="61.4924" height="60.6139" rx="14.9339" transform="rotate(10.4788 70.0234 36)" fill="white"/>
</g>
<path d="M92.9658 77.345L92.8501 77.4246L92.7608 77.3071C88.9011 72.2408 86.3498 68.8909 86.8717 66.069C87.2329 64.1161 88.9684 62.9224 90.9213 63.2836C92.425 63.5617 93.7091 64.809 93.981 66.2327L95.7972 66.5686C96.5603 65.3364 98.2055 64.6308 99.7092 64.9089C101.662 65.2701 102.856 67.0057 102.495 68.9586C101.973 71.7805 98.392 73.9962 92.9658 77.345ZM100.07 62.9561C98.3714 62.6418 96.5945 63.1311 95.3008 64.1744C94.4659 62.7374 92.9815 61.6449 91.2825 61.3307C88.2751 60.7744 85.4769 62.6906 84.9188 65.7078C84.238 69.389 86.9998 73.0202 91.1851 78.5102L92.3625 80.061L94.0167 79.034C99.8888 75.4041 103.767 73.0009 104.448 69.3198C105.006 66.3026 103.078 63.5123 100.07 62.9561Z" fill="#FF6500"/>
<g filter="url(#filter7_d_2184_234)">
<rect x="110" y="60" width="74.8951" height="73.8252" rx="18.1888" fill="white"/>
</g>
<path d="M146.633 104.435L146.512 104.556L146.379 104.435C140.634 99.2224 136.837 95.7755 136.837 92.2803C136.837 89.8614 138.651 88.0473 141.07 88.0473C142.932 88.0473 144.746 89.2567 145.387 90.9015H147.637C148.278 89.2567 150.092 88.0473 151.955 88.0473C154.374 88.0473 156.188 89.8614 156.188 92.2803C156.188 95.7755 152.39 99.2224 146.633 104.435ZM151.955 85.6284C149.85 85.6284 147.831 86.6081 146.512 88.144C145.194 86.6081 143.174 85.6284 141.07 85.6284C137.345 85.6284 134.418 88.5431 134.418 92.2803C134.418 96.8398 138.53 100.577 144.759 106.225L146.512 107.821L148.266 106.225C154.494 100.577 158.607 96.8398 158.607 92.2803C158.607 88.5431 155.68 85.6284 151.955 85.6284Z" fill="#FF6500"/>
<g filter="url(#filter8_d_2184_234)">
<rect x="51.1182" y="54" width="71.2567" height="70.2387" rx="17.3052" transform="rotate(26.2974 51.1182 54)" fill="white"/>
</g>
<g clip-path="url(#clip5_2184_234)">
<path d="M63.92 107.989L63.7629 108.031L63.7108 107.868C61.457 100.841 59.9677 96.194 61.6304 93.3141C62.7811 91.3211 65.1389 90.6893 67.1319 91.84C68.6665 92.726 69.586 94.5855 69.3317 96.2457L71.1852 97.3158C72.4958 96.2655 74.5659 96.132 76.1005 97.018C78.0935 98.1687 78.7253 100.526 77.5746 102.52C75.9119 105.399 71.1432 106.433 63.92 107.989ZM77.2512 95.025C75.5173 94.0239 73.3871 93.8703 71.5702 94.5087C71.2147 92.616 70.0165 90.8481 68.2826 89.847C65.2133 88.0749 61.4152 89.0842 59.6374 92.1634C57.4684 95.9203 59.0787 100.956 61.524 108.572L62.2095 110.722L64.4138 110.241C72.2327 108.55 77.3986 107.427 79.5677 103.67C81.3455 100.591 80.3205 96.797 77.2512 95.025Z" fill="#FF6500"/>
</g>
<g filter="url(#filter9_d_2184_234)">
<rect x="198" y="68.2041" width="71.0023" height="69.9879" rx="17.2434" transform="rotate(-19.9313 198 68.2041)" fill="white"/>
</g>
<g clip-path="url(#clip6_2184_234)">
<path d="M246.212 96.1568L246.147 96.3055L245.988 96.2453C239.107 93.6514 234.557 91.9358 233.339 88.8542C232.496 86.7217 233.464 84.49 235.596 83.6471C237.238 82.9981 239.259 83.4322 240.398 84.659L242.381 83.8751C242.373 82.2016 243.551 80.5031 245.193 79.8541C247.325 79.0111 249.557 79.9784 250.4 82.111C251.618 85.1926 249.471 89.5549 246.212 96.1568ZM244.35 77.7215C242.495 78.4548 241.055 80.0223 240.428 81.8359C238.731 80.9411 236.609 80.7812 234.753 81.5145C231.469 82.8126 229.904 86.4023 231.207 89.6972C232.796 93.7171 237.723 95.579 245.183 98.3881L247.285 99.1845L248.275 97.1659C251.798 90.0158 254.121 85.288 252.533 81.2681C251.23 77.9732 247.634 76.4234 244.35 77.7215Z" fill="#FF6500"/>
</g>
<g filter="url(#filter10_d_2184_234)">
<rect x="185.073" y="96.21" width="71.6949" height="70.6707" rx="17.4116" transform="rotate(18.256 185.073 96.21)" fill="white"/>
</g>
<g clip-path="url(#clip7_2184_234)">
<path d="M205.888 148.492L205.744 148.569L205.655 148.422C201.813 142.068 199.273 137.866 200.23 134.66C200.893 132.441 203.054 131.274 205.272 131.936C206.981 132.446 208.314 134.052 208.451 135.737L210.515 136.352C211.553 135.019 213.548 134.407 215.257 134.917C217.475 135.579 218.643 137.74 217.98 139.958C217.023 143.165 212.596 145.286 205.888 148.492ZM215.919 132.698C213.989 132.122 211.868 132.467 210.238 133.515C209.449 131.745 207.865 130.294 205.935 129.717C202.518 128.697 199.035 130.57 198.012 133.998C196.763 138.18 199.512 142.734 203.678 149.62L204.85 151.565L206.896 150.58C214.155 147.105 218.951 144.803 220.199 140.621C221.222 137.193 219.336 133.718 215.919 132.698Z" fill="#FF6500"/>
</g>
<defs>
<filter id="filter0_d_2184_234" x="0.651983" y="4.82331" width="99.6335" height="99.1042" filterUnits="userSpaceOnUse" color-interpolation-filters="sRGB">
<feFlood flood-opacity="0" result="BackgroundImageFix"/>
<feColorMatrix in="SourceAlpha" type="matrix" values="0 0 0 0 0 0 0 0 0 0 0 0 0 0 0 0 0 0 127 0" result="hardAlpha"/>
<feOffset dy="12.1718"/>
<feGaussianBlur stdDeviation="9.33172"/>
<feComposite in2="hardAlpha" operator="out"/>
<feColorMatrix type="matrix" values="0 0 0 0 0.6625 0 0 0 0 0.6625 0 0 0 0 0.6625 0 0 0 0.09 0"/>
<feBlend mode="normal" in2="BackgroundImageFix" result="effect1_dropShadow_2184_234"/>
<feBlend mode="normal" in="SourceGraphic" in2="effect1_dropShadow_2184_234" result="shape"/>
</filter>
<filter id="filter1_d_2184_234" x="119.043" y="15.4329" width="94.8489" height="94.571" filterUnits="userSpaceOnUse" color-interpolation-filters="sRGB">
<feFlood flood-opacity="0" result="BackgroundImageFix"/>
<feColorMatrix in="SourceAlpha" type="matrix" values="0 0 0 0 0 0 0 0 0 0 0 0 0 0 0 0 0 0 127 0" result="hardAlpha"/>
<feOffset dy="9.51455"/>
<feGaussianBlur stdDeviation="7.29449"/>
<feComposite in2="hardAlpha" operator="out"/>
<feColorMatrix type="matrix" values="0 0 0 0 0.6625 0 0 0 0 0.6625 0 0 0 0 0.6625 0 0 0 0.21 0"/>
<feBlend mode="normal" in2="BackgroundImageFix" result="effect1_dropShadow_2184_234"/>
<feBlend mode="normal" in="SourceGraphic" in2="effect1_dropShadow_2184_234" result="shape"/>
</filter>
<filter id="filter2_d_2184_234" x="159.31" y="0.940319" width="66.0971" height="65.9042" filterUnits="userSpaceOnUse" color-interpolation-filters="sRGB">
<feFlood flood-opacity="0" result="BackgroundImageFix"/>
<feColorMatrix in="SourceAlpha" type="matrix" values="0 0 0 0 0 0 0 0 0 0 0 0 0 0 0 0 0 0 127 0" result="hardAlpha"/>
<feOffset dy="6.63046"/>
<feGaussianBlur stdDeviation="5.08335"/>
<feComposite in2="hardAlpha" operator="out"/>
<feColorMatrix type="matrix" values="0 0 0 0 0.6625 0 0 0 0 0.6625 0 0 0 0 0.6625 0 0 0 0.21 0"/>
<feBlend mode="normal" in2="BackgroundImageFix" result="effect1_dropShadow_2184_234"/>
<feBlend mode="normal" in="SourceGraphic" in2="effect1_dropShadow_2184_234" result="shape"/>
</filter>
<filter id="filter3_d_2184_234" x="188.755" y="20.7378" width="68.9139" height="68.4232" filterUnits="userSpaceOnUse" color-interpolation-filters="sRGB">
<feFlood flood-opacity="0" result="BackgroundImageFix"/>
<feColorMatrix in="SourceAlpha" type="matrix" values="0 0 0 0 0 0 0 0 0 0 0 0 0 0 0 0 0 0 127 0" result="hardAlpha"/>
<feOffset dy="7.34615"/>
<feGaussianBlur stdDeviation="5.63205"/>
<feComposite in2="hardAlpha" operator="out"/>
<feColorMatrix type="matrix" values="0 0 0 0 0.6625 0 0 0 0 0.6625 0 0 0 0 0.6625 0 0 0 0.21 0"/>
<feBlend mode="normal" in2="BackgroundImageFix" result="effect1_dropShadow_2184_234"/>
<feBlend mode="normal" in="SourceGraphic" in2="effect1_dropShadow_2184_234" result="shape"/>
</filter>
<filter id="filter4_d_2184_234" x="94.4547" y="15.7993" width="68.9139" height="68.4232" filterUnits="userSpaceOnUse" color-interpolation-filters="sRGB">
<feFlood flood-opacity="0" result="BackgroundImageFix"/>
<feColorMatrix in="SourceAlpha" type="matrix" values="0 0 0 0 0 0 0 0 0 0 0 0 0 0 0 0 0 0 127 0" result="hardAlpha"/>
<feOffset dy="7.34615"/>
<feGaussianBlur stdDeviation="5.63205"/>
<feComposite in2="hardAlpha" operator="out"/>
<feColorMatrix type="matrix" values="0 0 0 0 0.6625 0 0 0 0 0.6625 0 0 0 0 0.6625 0 0 0 0.21 0"/>
<feBlend mode="normal" in2="BackgroundImageFix" result="effect1_dropShadow_2184_234"/>
<feBlend mode="normal" in="SourceGraphic" in2="effect1_dropShadow_2184_234" result="shape"/>
</filter>
<filter id="filter5_d_2184_234" x="61.1908" y="11.0864" width="56.8849" height="56.3561" filterUnits="userSpaceOnUse" color-interpolation-filters="sRGB">
<feFlood flood-opacity="0" result="BackgroundImageFix"/>
<feColorMatrix in="SourceAlpha" type="matrix" values="0 0 0 0 0 0 0 0 0 0 0 0 0 0 0 0 0 0 127 0" result="hardAlpha"/>
<feOffset dy="6.37945"/>
<feGaussianBlur stdDeviation="4.89091"/>
<feComposite in2="hardAlpha" operator="out"/>
<feColorMatrix type="matrix" values="0 0 0 0 0.6625 0 0 0 0 0.6625 0 0 0 0 0.6625 0 0 0 0.21 0"/>
<feBlend mode="normal" in2="BackgroundImageFix" result="effect1_dropShadow_2184_234"/>
<feBlend mode="normal" in="SourceGraphic" in2="effect1_dropShadow_2184_234" result="shape"/>
</filter>
<filter id="filter6_d_2184_234" x="42.8004" y="31.9727" width="103.889" height="103.185" filterUnits="userSpaceOnUse" color-interpolation-filters="sRGB">
<feFlood flood-opacity="0" result="BackgroundImageFix"/>
<feColorMatrix in="SourceAlpha" type="matrix" values="0 0 0 0 0 0 0 0 0 0 0 0 0 0 0 0 0 0 127 0" result="hardAlpha"/>
<feOffset dy="12.1718"/>
<feGaussianBlur stdDeviation="9.33172"/>
<feComposite in2="hardAlpha" operator="out"/>
<feColorMatrix type="matrix" values="0 0 0 0 0.6625 0 0 0 0 0.6625 0 0 0 0 0.6625 0 0 0 0.09 0"/>
<feBlend mode="normal" in2="BackgroundImageFix" result="effect1_dropShadow_2184_234"/>
<feBlend mode="normal" in="SourceGraphic" in2="effect1_dropShadow_2184_234" result="shape"/>
</filter>
<filter id="filter7_d_2184_234" x="91.3366" y="53.5084" width="112.222" height="111.152" filterUnits="userSpaceOnUse" color-interpolation-filters="sRGB">
<feFlood flood-opacity="0" result="BackgroundImageFix"/>
<feColorMatrix in="SourceAlpha" type="matrix" values="0 0 0 0 0 0 0 0 0 0 0 0 0 0 0 0 0 0 127 0" result="hardAlpha"/>
<feOffset dy="12.1718"/>
<feGaussianBlur stdDeviation="9.33172"/>
<feComposite in2="hardAlpha" operator="out"/>
<feColorMatrix type="matrix" values="0 0 0 0 0.6625 0 0 0 0 0.6625 0 0 0 0 0.6625 0 0 0 0.09 0"/>
<feBlend mode="normal" in2="BackgroundImageFix" result="effect1_dropShadow_2184_234"/>
<feBlend mode="normal" in="SourceGraphic" in2="effect1_dropShadow_2184_234" result="shape"/>
</filter>
<filter id="filter8_d_2184_234" x="7.20862" y="53.3804" width="120.583" height="120.121" filterUnits="userSpaceOnUse" color-interpolation-filters="sRGB">
<feFlood flood-opacity="0" result="BackgroundImageFix"/>
<feColorMatrix in="SourceAlpha" type="matrix" values="0 0 0 0 0 0 0 0 0 0 0 0 0 0 0 0 0 0 127 0" result="hardAlpha"/>
<feOffset dy="12.1718"/>
<feGaussianBlur stdDeviation="9.33172"/>
<feComposite in2="hardAlpha" operator="out"/>
<feColorMatrix type="matrix" values="0 0 0 0 0.6625 0 0 0 0 0.6625 0 0 0 0 0.6625 0 0 0 0.09 0"/>
<feBlend mode="normal" in2="BackgroundImageFix" result="effect1_dropShadow_2184_234"/>
<feBlend mode="normal" in="SourceGraphic" in2="effect1_dropShadow_2184_234" result="shape"/>
</filter>
<filter id="filter9_d_2184_234" x="184.177" y="42.3487" width="118.254" height="117.646" filterUnits="userSpaceOnUse" color-interpolation-filters="sRGB">
<feFlood flood-opacity="0" result="BackgroundImageFix"/>
<feColorMatrix in="SourceAlpha" type="matrix" values="0 0 0 0 0 0 0 0 0 0 0 0 0 0 0 0 0 0 127 0" result="hardAlpha"/>
<feOffset dy="12.1718"/>
<feGaussianBlur stdDeviation="9.33172"/>
<feComposite in2="hardAlpha" operator="out"/>
<feColorMatrix type="matrix" values="0 0 0 0 0.6625 0 0 0 0 0.6625 0 0 0 0 0.6625 0 0 0 0.09 0"/>
<feBlend mode="normal" in2="BackgroundImageFix" result="effect1_dropShadow_2184_234"/>
<feBlend mode="normal" in="SourceGraphic" in2="effect1_dropShadow_2184_234" result="shape"/>
</filter>
<filter id="filter10_d_2184_234" x="148.844" y="94.2916" width="118.405" height="117.753" filterUnits="userSpaceOnUse" color-interpolation-filters="sRGB">
<feFlood flood-opacity="0" result="BackgroundImageFix"/>
<feColorMatrix in="SourceAlpha" type="matrix" values="0 0 0 0 0 0 0 0 0 0 0 0 0 0 0 0 0 0 127 0" result="hardAlpha"/>
<feOffset dy="12.1718"/>
<feGaussianBlur stdDeviation="9.33172"/>
<feComposite in2="hardAlpha" operator="out"/>
<feColorMatrix type="matrix" values="0 0 0 0 0.6625 0 0 0 0 0.6625 0 0 0 0 0.6625 0 0 0 0.09 0"/>
<feBlend mode="normal" in2="BackgroundImageFix" result="effect1_dropShadow_2184_234"/>
<feBlend mode="normal" in="SourceGraphic" in2="effect1_dropShadow_2184_234" result="shape"/>
</filter>
<clipPath id="clip0_2184_234">
<rect width="21.5101" height="21.5101" fill="white" transform="translate(36.3164 34.9302) rotate(-16.7877)"/>
</clipPath>
<clipPath id="clip1_2184_234">
<rect width="21.5101" height="21.5101" fill="white" transform="translate(162.26 37.8584) rotate(30.6805)"/>
</clipPath>
<clipPath id="clip2_2184_234">
<rect width="14.9899" height="14.9899" fill="white" transform="translate(189.428 16.5679) rotate(30.6805)"/>
</clipPath>
<clipPath id="clip3_2184_234">
<rect width="16.6079" height="16.6079" fill="white" transform="translate(216.072 37.6055) rotate(10.4788)"/>
</clipPath>
<clipPath id="clip4_2184_234">
<rect width="16.6079" height="16.6079" fill="white" transform="translate(121.771 32.667) rotate(10.4788)"/>
</clipPath>
<clipPath id="clip5_2184_234">
<rect width="27.6162" height="27.6162" fill="white" transform="translate(62.5361 82.5425) rotate(30)"/>
</clipPath>
<clipPath id="clip6_2184_234">
<rect width="27.5176" height="27.5176" fill="white" transform="translate(225.492 81.4761) rotate(-21.5664)"/>
</clipPath>
<clipPath id="clip7_2184_234">
<rect width="27.786" height="27.786" fill="white" transform="translate(198.608 123.906) rotate(16.621)"/>
</clipPath>
</defs>
</svg>
