<svg width="322" height="153" viewBox="0 0 322 153" fill="none" xmlns="http://www.w3.org/2000/svg">
<path d="M280.297 75.9652C280.297 95.801 267.23 113.844 245.923 126.955C224.625 140.062 195.169 148.186 162.604 148.186C130.039 148.186 100.583 140.062 79.2853 126.955C57.9789 113.844 44.9119 95.801 44.9119 75.9652C44.9119 56.1295 57.9789 38.0867 79.2853 24.9751C100.583 11.8688 130.039 3.74493 162.604 3.74493C195.169 3.74493 224.625 11.8688 245.923 24.9751C267.23 38.0867 280.297 56.1295 280.297 75.9652Z" stroke="#DFDFDF" stroke-width="1.06993"/>
<line x1="70.0566" y1="75.4299" x2="264.784" y2="75.4299" stroke="#DFDFDF" stroke-width="1.06993"/>
<line x1="162.605" y1="3.20996" x2="162.605" y2="148.72" stroke="#DFDFDF" stroke-width="1.06993"/>
<g filter="url(#filter0_d_2184_232)">
<rect x="19.7695" y="39.5879" width="74.8951" height="73.8252" rx="18.1888" fill="white"/>
</g>
<g filter="url(#filter1_d_2184_232)">
<rect x="123.553" y="39.5879" width="74.8951" height="73.8252" rx="18.1888" fill="white"/>
</g>
<g filter="url(#filter2_d_2184_232)">
<rect x="227.336" y="39.5879" width="74.8951" height="73.8252" rx="18.1888" fill="white"/>
</g>
<circle cx="162.606" cy="149.255" r="3.74476" fill="#FF6500"/>
<circle cx="162.606" cy="3.74476" r="3.74476" fill="#FF6500"/>
<path d="M44.5111 92.3834C42.184 92.3834 40.4026 91.1156 40.4026 89.0132C40.4026 87.6971 41.1569 86.654 42.5692 86.2206C41.3816 85.7873 40.7396 84.8404 40.7557 83.717C40.7878 81.8232 42.168 80.7319 44.5111 80.7319C46.8703 80.7319 48.2505 81.8232 48.2826 83.717C48.2987 84.7923 47.6407 85.7552 46.437 86.2206C47.8653 86.654 48.6357 87.6971 48.6357 89.0132C48.6357 91.1156 46.8543 92.3834 44.5111 92.3834ZM44.5111 85.675C45.6666 85.675 46.3728 84.8886 46.3728 83.9096C46.3728 82.7701 45.6345 82.0479 44.5111 82.0479C43.3877 82.0479 42.6655 82.7701 42.6494 83.9096C42.6494 84.9367 43.3716 85.675 44.5111 85.675ZM44.5111 91.0353C45.8271 91.0353 46.7098 90.1687 46.7098 88.965C46.6938 87.7292 45.8753 86.9107 44.5111 86.9107C43.163 86.9107 42.3285 87.7292 42.3285 88.965C42.3124 90.1687 43.2112 91.0353 44.5111 91.0353ZM56.0949 80.9405C56.1752 80.9405 56.2233 80.9887 56.2233 81.0689V87.8897H57.3147C57.3949 87.8897 57.4431 87.9379 57.4431 88.0181V89.2378C57.4431 89.3181 57.3949 89.3662 57.3147 89.3662H56.2233V92.0625C56.2233 92.1427 56.1752 92.1909 56.0949 92.1909H54.3938C54.3135 92.1909 54.2654 92.1427 54.2654 92.0625V89.3662H49.2741C49.1939 89.3662 49.1458 89.3181 49.1458 89.2378V87.7934C49.1458 87.7292 49.1618 87.6971 49.1939 87.633L53.5271 81.0208C53.5592 80.9566 53.6074 80.9405 53.6716 80.9405H56.0949ZM54.2654 84.4392L54.3296 82.3689L50.7506 87.8897H54.2654V84.4392ZM61.6829 92.3995C59.3237 92.3995 58.0558 91.1316 57.8632 89.2378C57.8472 89.1576 57.8953 89.1095 57.9756 89.1095H59.6607C59.7409 89.1095 59.7891 89.1576 59.7891 89.2378C59.8693 90.3613 60.5434 91.0353 61.6668 91.0353C62.9668 91.0353 63.7692 90.0403 63.7692 88.2428C63.7692 86.5095 63.0952 85.5626 61.731 85.5626C60.7199 85.5626 60.0459 86.0762 59.8372 87.007C59.8051 87.0873 59.757 87.1194 59.6928 87.1194H58.2163C58.136 87.1194 58.104 87.0873 58.104 86.991L58.4891 81.0689C58.4891 80.9887 58.5533 80.9405 58.6336 80.9405H65.005C65.0852 80.9405 65.1334 80.9887 65.1334 81.0689V82.2887C65.1334 82.3689 65.0852 82.417 65.005 82.417H60.2224L59.9977 85.0491C60.5915 84.4553 61.3619 84.1664 62.3088 84.1664C64.2988 84.1664 65.8395 85.7071 65.8395 88.0984C65.8395 90.7464 64.1544 92.3995 61.6829 92.3995ZM71.1867 83.9898C71.2188 83.9417 71.283 83.9096 71.3472 83.9096H73.1928C73.3052 83.9096 73.3212 83.9898 73.257 84.0701L70.6732 86.8947L73.6743 92.0143C73.7225 92.0946 73.6904 92.1748 73.5941 92.1748H71.6361C71.5719 92.1748 71.5238 92.1427 71.4917 92.0785L70.7213 90.6662L69.3251 88.2589L68.4103 89.3341L68.4424 92.0464C68.4424 92.1427 68.3942 92.1748 68.314 92.1748H66.6449C66.5646 92.1748 66.5165 92.1427 66.5165 92.0464L66.5807 86.5898L66.5165 81.0689C66.5165 80.9726 66.5646 80.9405 66.6449 80.9405H68.314C68.3942 80.9405 68.4424 80.9726 68.4424 81.0689L68.3942 86.5416V87.2478L71.1867 83.9898Z" fill="#1B1B1B"/>
<path d="M148.931 92.0785C148.915 92.1588 148.883 92.1909 148.803 92.1909H147.005C146.925 92.1909 146.861 92.1427 146.877 92.0464C147.439 88.5959 148.466 85.1614 150.007 82.417H145.176C145.096 82.417 145.047 82.3689 145.047 82.2887V81.0689C145.047 80.9887 145.096 80.9405 145.176 80.9405H151.997C152.077 80.9405 152.125 80.9887 152.125 81.0689V82.3689C152.125 82.417 152.109 82.4652 152.093 82.5133C150.681 85.354 149.461 88.5317 148.931 92.0785ZM156.627 92.0785C156.611 92.1588 156.579 92.1909 156.498 92.1909H154.701C154.621 92.1909 154.556 92.1427 154.572 92.0464C155.134 88.5959 156.161 85.1614 157.702 82.417H152.871C152.791 82.417 152.743 82.3689 152.743 82.2887V81.0689C152.743 80.9887 152.791 80.9405 152.871 80.9405H159.692C159.772 80.9405 159.82 80.9887 159.82 81.0689V82.3689C159.82 82.417 159.804 82.4652 159.788 82.5133C158.376 85.354 157.156 88.5317 156.627 92.0785ZM164.084 92.3995C161.517 92.3995 159.847 90.2971 159.847 86.5737C159.847 82.7541 161.517 80.7159 164.084 80.7159C166.652 80.7159 168.353 82.722 168.353 86.5737C168.353 90.2971 166.668 92.3995 164.084 92.3995ZM164.1 90.8748C165.497 90.8748 166.315 89.5107 166.315 86.5737C166.315 83.6528 165.497 82.2405 164.084 82.2405C162.656 82.2405 161.87 83.6207 161.87 86.5737C161.87 89.4946 162.704 90.8748 164.1 90.8748ZM173.768 83.9898C173.8 83.9417 173.864 83.9096 173.928 83.9096H175.774C175.886 83.9096 175.902 83.9898 175.838 84.0701L173.254 86.8947L176.255 92.0143C176.303 92.0946 176.271 92.1748 176.175 92.1748H174.217C174.153 92.1748 174.105 92.1427 174.073 92.0785L173.302 90.6662L171.906 88.2589L170.991 89.3341L171.023 92.0464C171.023 92.1427 170.975 92.1748 170.895 92.1748H169.226C169.146 92.1748 169.097 92.1427 169.097 92.0464L169.162 86.5898L169.097 81.0689C169.097 80.9726 169.146 80.9405 169.226 80.9405H170.895C170.975 80.9405 171.023 80.9726 171.023 81.0689L170.975 86.5416V87.2478L173.768 83.9898Z" fill="#1B1B1B"/>
<path d="M255.319 90.6983C255.4 90.6983 255.448 90.7464 255.448 90.8267V92.0464C255.448 92.1267 255.4 92.1748 255.319 92.1748H248.129C248.049 92.1748 248.001 92.1267 248.001 92.0464V90.6662C248.001 86.2527 253.666 86.7503 253.666 84.1182C253.698 82.9467 253.057 82.1603 251.789 82.1763C250.585 82.1924 249.847 83.0269 249.799 84.6318C249.799 84.712 249.75 84.7602 249.67 84.7602H248.146C248.065 84.7602 248.017 84.712 248.017 84.6318C248.033 82.1442 249.333 80.764 251.805 80.748C254.18 80.748 255.432 81.9998 255.48 84.054C255.48 88.1305 249.831 87.7613 249.831 90.3452V90.6983H255.319ZM259.765 92.3353C257.39 92.3353 256.09 91.1156 255.929 88.7724C255.913 88.6922 255.961 88.644 256.042 88.644H257.679C257.759 88.644 257.807 88.6922 257.807 88.7724C257.855 90.1847 258.497 91.0032 259.813 90.9872C261.081 90.9872 261.819 90.1526 261.851 88.8527C261.867 87.4725 261.065 86.8466 259.348 86.8466H258.898C258.818 86.8466 258.77 86.7984 258.77 86.7182V85.691C258.77 85.6108 258.818 85.5626 258.898 85.5626H259.348C260.904 85.5626 261.627 84.8725 261.627 83.8454C261.627 82.8022 260.888 82.1282 259.909 82.1282C258.69 82.1282 258.048 82.7862 257.951 84.1503C257.951 84.2306 257.903 84.2787 257.823 84.2787H256.218C256.138 84.2787 256.09 84.2306 256.09 84.1503C256.218 81.9516 257.679 80.78 260.006 80.78C262.092 80.78 263.553 81.8874 263.569 83.6528C263.569 85.0491 262.734 85.7552 261.675 86.1083C263.039 86.4293 263.841 87.3922 263.841 88.8045C263.841 91.0032 262.06 92.3353 259.765 92.3353ZM268.678 92.3995C266.11 92.3995 264.441 90.2971 264.441 86.5737C264.441 82.7541 266.11 80.7159 268.678 80.7159C271.246 80.7159 272.947 82.722 272.947 86.5737C272.947 90.2971 271.262 92.3995 268.678 92.3995ZM268.694 90.8748C270.09 90.8748 270.909 89.5107 270.909 86.5737C270.909 83.6528 270.09 82.2405 268.678 82.2405C267.25 82.2405 266.463 83.6207 266.463 86.5737C266.463 89.4946 267.298 90.8748 268.694 90.8748ZM278.361 83.9898C278.393 83.9417 278.458 83.9096 278.522 83.9096H280.367C280.48 83.9096 280.496 83.9898 280.432 84.0701L277.848 86.8947L280.849 92.0143C280.897 92.0946 280.865 92.1748 280.769 92.1748H278.811C278.746 92.1748 278.698 92.1427 278.666 92.0785L277.896 90.6662L276.5 88.2589L275.585 89.3341L275.617 92.0464C275.617 92.1427 275.569 92.1748 275.489 92.1748H273.819C273.739 92.1748 273.691 92.1427 273.691 92.0464L273.755 86.5898L273.691 81.0689C273.691 80.9726 273.739 80.9405 273.819 80.9405H275.489C275.569 80.9405 275.617 80.9726 275.617 81.0689L275.569 86.5416V87.2478L278.361 83.9898Z" fill="#1B1B1B"/>
<g clip-path="url(#clip0_2184_232)">
<path fill-rule="evenodd" clip-rule="evenodd" d="M60.0696 66.3361C60.0696 67.0928 59.769 67.8185 59.2339 68.3535C58.6988 68.8886 57.9731 69.1892 57.2164 69.1892C56.4597 69.1892 55.734 68.8886 55.1989 68.3535C54.6639 67.8185 54.3633 67.0928 54.3633 66.3361C54.3633 65.5794 54.6639 64.8536 55.1989 64.3186C55.734 63.7835 56.4597 63.4829 57.2164 63.4829C57.9731 63.4829 58.6988 63.7835 59.2339 64.3186C59.769 64.8536 60.0696 65.5794 60.0696 66.3361ZM58.643 66.3361C58.643 66.7144 58.4927 67.0773 58.2252 67.3448C57.9576 67.6123 57.5948 67.7626 57.2164 67.7626C56.8381 67.7626 56.4752 67.6123 56.2077 67.3448C55.9402 67.0773 55.7899 66.7144 55.7899 66.3361C55.7899 65.9577 55.9402 65.5949 56.2077 65.3273C56.4752 65.0598 56.8381 64.9095 57.2164 64.9095C57.5948 64.9095 57.9576 65.0598 58.2252 65.3273C58.4927 65.5949 58.643 65.9577 58.643 66.3361Z" fill="#FF6500"/>
<path fill-rule="evenodd" clip-rule="evenodd" d="M57.2176 59.916C61.2063 59.916 64.5573 62.6436 65.5074 66.3356C64.5573 70.0276 61.2063 72.7552 57.2176 72.7552C53.2289 72.7552 49.8778 70.0276 48.9277 66.3356C49.8778 62.6436 53.2289 59.916 57.2176 59.916ZM57.2176 71.3286C54.0249 71.3286 51.3194 69.2301 50.4107 66.3356C51.3194 63.4411 54.0249 61.3426 57.2176 61.3426C60.4102 61.3426 63.1157 63.4411 64.0244 66.3356C63.1157 69.2301 60.4102 71.3286 57.2176 71.3286Z" fill="#FF6500"/>
</g>
<g clip-path="url(#clip1_2184_232)">
<path fill-rule="evenodd" clip-rule="evenodd" d="M163.855 66.3361C163.855 67.0928 163.554 67.8185 163.019 68.3535C162.484 68.8886 161.758 69.1892 161.002 69.1892C160.245 69.1892 159.519 68.8886 158.984 68.3535C158.449 67.8185 158.148 67.0928 158.148 66.3361C158.148 65.5794 158.449 64.8536 158.984 64.3186C159.519 63.7835 160.245 63.4829 161.002 63.4829C161.758 63.4829 162.484 63.7835 163.019 64.3186C163.554 64.8536 163.855 65.5794 163.855 66.3361ZM162.428 66.3361C162.428 66.7144 162.278 67.0773 162.01 67.3448C161.743 67.6123 161.38 67.7626 161.002 67.7626C160.623 67.7626 160.26 67.6123 159.993 67.3448C159.725 67.0773 159.575 66.7144 159.575 66.3361C159.575 65.9577 159.725 65.5949 159.993 65.3273C160.26 65.0598 160.623 64.9095 161.002 64.9095C161.38 64.9095 161.743 65.0598 162.01 65.3273C162.278 65.5949 162.428 65.9577 162.428 66.3361Z" fill="#FF6500"/>
<path fill-rule="evenodd" clip-rule="evenodd" d="M161.001 59.916C164.989 59.916 168.34 62.6436 169.291 66.3356C168.34 70.0276 164.989 72.7552 161.001 72.7552C157.012 72.7552 153.661 70.0276 152.711 66.3356C153.661 62.6436 157.012 59.916 161.001 59.916ZM161.001 71.3286C157.808 71.3286 155.103 69.2301 154.194 66.3356C155.103 63.4411 157.808 61.3426 161.001 61.3426C164.193 61.3426 166.899 63.4411 167.808 66.3356C166.899 69.2301 164.193 71.3286 161.001 71.3286Z" fill="#FF6500"/>
</g>
<g clip-path="url(#clip2_2184_232)">
<path fill-rule="evenodd" clip-rule="evenodd" d="M267.636 66.3361C267.636 67.0928 267.335 67.8185 266.8 68.3535C266.265 68.8886 265.54 69.1892 264.783 69.1892C264.026 69.1892 263.3 68.8886 262.765 68.3535C262.23 67.8185 261.93 67.0928 261.93 66.3361C261.93 65.5794 262.23 64.8536 262.765 64.3186C263.3 63.7835 264.026 63.4829 264.783 63.4829C265.54 63.4829 266.265 63.7835 266.8 64.3186C267.335 64.8536 267.636 65.5794 267.636 66.3361ZM266.209 66.3361C266.209 66.7144 266.059 67.0773 265.792 67.3448C265.524 67.6123 265.161 67.7626 264.783 67.7626C264.404 67.7626 264.042 67.6123 263.774 67.3448C263.507 67.0773 263.356 66.7144 263.356 66.3361C263.356 65.9577 263.507 65.5949 263.774 65.3273C264.042 65.0598 264.404 64.9095 264.783 64.9095C265.161 64.9095 265.524 65.0598 265.792 65.3273C266.059 65.5949 266.209 65.9577 266.209 66.3361Z" fill="#FF6500"/>
<path fill-rule="evenodd" clip-rule="evenodd" d="M264.784 59.916C268.773 59.916 272.124 62.6436 273.074 66.3356C272.124 70.0276 268.773 72.7552 264.784 72.7552C260.795 72.7552 257.444 70.0276 256.494 66.3356C257.444 62.6436 260.795 59.916 264.784 59.916ZM264.784 71.3286C261.591 71.3286 258.886 69.2301 257.977 66.3356C258.886 63.4411 261.591 61.3426 264.784 61.3426C267.977 61.3426 270.682 63.4411 271.591 66.3356C270.682 69.2301 267.977 71.3286 264.784 71.3286Z" fill="#FF6500"/>
</g>
<defs>
<filter id="filter0_d_2184_232" x="0.082819" y="32.7403" width="114.269" height="113.199" filterUnits="userSpaceOnUse" color-interpolation-filters="sRGB">
<feFlood flood-opacity="0" result="BackgroundImageFix"/>
<feColorMatrix in="SourceAlpha" type="matrix" values="0 0 0 0 0 0 0 0 0 0 0 0 0 0 0 0 0 0 127 0" result="hardAlpha"/>
<feOffset dy="12.8392"/>
<feGaussianBlur stdDeviation="9.84336"/>
<feComposite in2="hardAlpha" operator="out"/>
<feColorMatrix type="matrix" values="0 0 0 0 0.6625 0 0 0 0 0.6625 0 0 0 0 0.6625 0 0 0 0.21 0"/>
<feBlend mode="normal" in2="BackgroundImageFix" result="effect1_dropShadow_2184_232"/>
<feBlend mode="normal" in="SourceGraphic" in2="effect1_dropShadow_2184_232" result="shape"/>
</filter>
<filter id="filter1_d_2184_232" x="103.866" y="32.7403" width="114.269" height="113.199" filterUnits="userSpaceOnUse" color-interpolation-filters="sRGB">
<feFlood flood-opacity="0" result="BackgroundImageFix"/>
<feColorMatrix in="SourceAlpha" type="matrix" values="0 0 0 0 0 0 0 0 0 0 0 0 0 0 0 0 0 0 127 0" result="hardAlpha"/>
<feOffset dy="12.8392"/>
<feGaussianBlur stdDeviation="9.84336"/>
<feComposite in2="hardAlpha" operator="out"/>
<feColorMatrix type="matrix" values="0 0 0 0 0.6625 0 0 0 0 0.6625 0 0 0 0 0.6625 0 0 0 0.21 0"/>
<feBlend mode="normal" in2="BackgroundImageFix" result="effect1_dropShadow_2184_232"/>
<feBlend mode="normal" in="SourceGraphic" in2="effect1_dropShadow_2184_232" result="shape"/>
</filter>
<filter id="filter2_d_2184_232" x="207.649" y="32.7403" width="114.269" height="113.199" filterUnits="userSpaceOnUse" color-interpolation-filters="sRGB">
<feFlood flood-opacity="0" result="BackgroundImageFix"/>
<feColorMatrix in="SourceAlpha" type="matrix" values="0 0 0 0 0 0 0 0 0 0 0 0 0 0 0 0 0 0 127 0" result="hardAlpha"/>
<feOffset dy="12.8392"/>
<feGaussianBlur stdDeviation="9.84336"/>
<feComposite in2="hardAlpha" operator="out"/>
<feColorMatrix type="matrix" values="0 0 0 0 0.6625 0 0 0 0 0.6625 0 0 0 0 0.6625 0 0 0 0.21 0"/>
<feBlend mode="normal" in2="BackgroundImageFix" result="effect1_dropShadow_2184_232"/>
<feBlend mode="normal" in="SourceGraphic" in2="effect1_dropShadow_2184_232" result="shape"/>
</filter>
<clipPath id="clip0_2184_232">
<rect width="17.1189" height="17.1189" fill="white" transform="translate(48.6582 57.7764)"/>
</clipPath>
<clipPath id="clip1_2184_232">
<rect width="17.1189" height="17.1189" fill="white" transform="translate(152.441 57.7764)"/>
</clipPath>
<clipPath id="clip2_2184_232">
<rect width="17.1189" height="17.1189" fill="white" transform="translate(256.225 57.7764)"/>
</clipPath>
</defs>
</svg>
