<svg width="282" height="263" viewBox="0 0 282 263" fill="none" xmlns="http://www.w3.org/2000/svg">
<path d="M230 114C227.423 121.259 220.722 128 209.381 128C197.01 128 184.639 128 180 128" stroke="#C2C2C2"/>
<path d="M57 114C59.5773 121.259 66.2783 128 77.6186 128C89.9897 128 102.361 128 107 128" stroke="#C2C2C2"/>
<path d="M229.5 141.5C227 134.5 220.5 128 209.5 128C197.5 128 154.5 128 150 128" stroke="#C2C2C2"/>
<path d="M57.5 141.5C60 134.5 66.5 128 77.5 128C89.5 128 132.5 128 137 128" stroke="#C2C2C2"/>
<g filter="url(#filter0_d_2184_245)">
<rect x="21" y="139" width="62" height="62" rx="17" fill="white"/>
<rect x="21.5" y="139.5" width="61" height="61" rx="16.5" stroke="#EBE9F7"/>
</g>
<g filter="url(#filter1_d_2184_245)">
<rect x="110" y="8" width="62" height="62" rx="17" fill="white"/>
<rect x="110.5" y="8.5" width="61" height="61" rx="16.5" stroke="#EBE9F7"/>
</g>
<g filter="url(#filter2_d_2184_245)">
<rect x="110" y="185" width="62" height="62" rx="17" fill="white"/>
<rect x="110.5" y="185.5" width="61" height="61" rx="16.5" stroke="#EBE9F7"/>
</g>
<g filter="url(#filter3_d_2184_245)">
<rect x="199" y="139" width="62" height="62" rx="17" fill="white"/>
<rect x="199.5" y="139.5" width="61" height="61" rx="16.5" stroke="#EBE9F7"/>
</g>
<path d="M0 185H282V262H0V185Z" fill="url(#paint0_linear_2184_245)"/>
<path d="M282 86L0 86L6.73155e-06 8.99998L282 9L282 86Z" fill="url(#paint1_linear_2184_245)"/>
<g filter="url(#filter4_d_2184_245)">
<rect x="21" y="54" width="62" height="62" rx="17" fill="white"/>
<rect x="21.5" y="54.5" width="61" height="61" rx="16.5" stroke="#EBE9F7"/>
</g>
<g filter="url(#filter5_d_2184_245)">
<rect x="199" y="54" width="62" height="62" rx="17" fill="white"/>
<rect x="199.5" y="54.5" width="61" height="61" rx="16.5" stroke="#EBE9F7"/>
</g>
<path d="M52.9408 179.956C55.2584 179.74 57.4273 178.719 59.0707 177.071C62.9757 173.166 62.9757 166.834 59.0707 162.929C55.1657 159.024 48.8337 159.024 44.9288 162.929C41.0238 166.834 41.0238 173.166 44.9288 177.071C45.93 178.074 47.1333 178.852 48.4588 179.354C49.7842 179.856 51.2013 180.069 52.6158 179.981C52.7246 179.996 52.8356 179.988 52.9408 179.956ZM43.5768 168.854C43.7907 167.266 44.4514 165.771 45.4818 164.544L50.9397 170L49.8518 171.088C48.7998 170.238 47.6278 169.78 46.5108 169.48C45.8608 169.306 45.2148 169.18 44.6238 169.067L44.6077 169.063C44.2411 168.994 43.8978 168.924 43.5778 168.854M43.5088 170.374C43.7754 170.429 44.0421 170.482 44.3088 170.534L44.3228 170.536C44.9258 170.653 45.5248 170.769 46.1218 170.929C47.0748 171.185 47.9828 171.545 48.7838 172.157L45.4838 175.457C44.2831 174.026 43.5887 172.239 43.5088 170.374ZM49.8477 173.214C50.5227 174.076 50.8878 175.02 51.1448 175.987C51.2698 176.457 51.3658 176.915 51.4628 177.379L51.5468 177.774C51.5968 178.014 51.6517 178.254 51.7118 178.495C49.8163 178.433 47.9965 177.737 46.5438 176.518L49.8477 173.214ZM53.2408 178.41C53.1551 178.095 53.0791 177.779 53.0127 177.46L52.9358 177.093C52.8378 176.624 52.7308 176.113 52.5948 175.601C52.2938 174.473 51.8328 173.264 50.9148 172.147L51.9998 171.061L57.4568 176.518C56.254 177.528 54.7938 178.183 53.2397 178.41M53.0598 170L54.2718 168.789C55.3858 169.731 56.5517 170.249 57.6367 170.615C58.0837 170.767 58.5338 170.897 58.9478 171.018L59.4078 171.152C59.7578 171.258 60.0788 171.36 60.3717 171.473C60.1159 172.941 59.4763 174.315 58.5177 175.457L53.0598 170ZM59.8368 169.715L59.3347 169.568C58.9264 169.452 58.5206 169.327 58.1178 169.194C57.1737 168.874 56.2297 168.454 55.3368 167.724L58.5168 164.543C59.7835 166.052 60.4848 167.955 60.4998 169.925C60.2784 169.85 60.0574 169.78 59.8368 169.715ZM57.4568 163.482L54.2758 166.663C53.5457 165.77 53.1248 164.826 52.8057 163.882C52.6719 163.479 52.5472 163.073 52.4318 162.664L52.2838 162.163C52.2184 161.941 52.1488 161.72 52.0747 161.5C54.0447 161.514 55.9478 162.215 57.4568 163.482ZM51.3837 164.362C51.7507 165.447 52.2678 166.614 53.2108 167.728L51.9998 168.94L46.5428 163.482C47.684 162.523 49.0585 161.884 50.5268 161.628C50.6398 161.921 50.7418 162.241 50.8468 162.592L50.9818 163.052C51.1018 163.466 51.2317 163.915 51.3837 164.362Z" fill="#FF6500"/>
<line x1="140.5" y1="185" x2="140.5" y2="70" stroke="#C2C2C2"/>
<rect x="110" y="97" width="62" height="62" rx="17" fill="#1E1A35"/>
<path d="M141.001 124.4C140.046 124.4 139.131 124.779 138.456 125.454C137.78 126.13 137.401 127.045 137.401 128C137.401 128.955 137.78 129.87 138.456 130.546C139.131 131.221 140.046 131.6 141.001 131.6C141.956 131.6 142.872 131.221 143.547 130.546C144.222 129.87 144.601 128.955 144.601 128C144.601 127.045 144.222 126.13 143.547 125.454C142.872 124.779 141.956 124.4 141.001 124.4ZM141.001 122C142.592 122 144.119 122.632 145.244 123.757C146.369 124.883 147.001 126.409 147.001 128C147.001 129.591 146.369 131.117 145.244 132.243C144.119 133.368 142.592 134 141.001 134C139.41 134 137.884 133.368 136.759 132.243C135.633 131.117 135.001 129.591 135.001 128C135.001 126.409 135.633 124.883 136.759 123.757C137.884 122.632 139.41 122 141.001 122ZM148.801 121.7C148.801 122.098 148.643 122.479 148.362 122.761C148.081 123.042 147.699 123.2 147.301 123.2C146.903 123.2 146.522 123.042 146.241 122.761C145.959 122.479 145.801 122.098 145.801 121.7C145.801 121.302 145.959 120.921 146.241 120.639C146.522 120.358 146.903 120.2 147.301 120.2C147.699 120.2 148.081 120.358 148.362 120.639C148.643 120.921 148.801 121.302 148.801 121.7ZM141.001 118.4C138.032 118.4 137.548 118.408 136.166 118.47C135.226 118.514 134.594 118.64 134.009 118.868C133.519 119.048 133.076 119.337 132.713 119.712C132.338 120.075 132.049 120.518 131.868 121.008C131.64 121.596 131.514 122.226 131.471 123.165C131.408 124.49 131.4 124.953 131.4 128C131.4 130.97 131.408 131.454 131.47 132.835C131.514 133.774 131.64 134.407 131.867 134.991C132.071 135.513 132.311 135.889 132.709 136.287C133.114 136.69 133.489 136.932 134.005 137.131C134.598 137.36 135.229 137.487 136.165 137.53C137.49 137.593 137.953 137.6 141 137.6C143.97 137.6 144.454 137.592 145.835 137.53C146.773 137.486 147.404 137.36 147.991 137.133C148.481 136.953 148.924 136.664 149.287 136.29C149.692 135.886 149.933 135.511 150.132 134.994C150.36 134.403 150.487 133.772 150.53 132.834C150.593 131.51 150.6 131.046 150.6 128C150.6 125.031 150.592 124.546 150.53 123.165C150.486 122.227 150.359 121.593 150.132 121.008C149.952 120.518 149.663 120.075 149.288 119.712C148.925 119.336 148.482 119.048 147.992 118.867C147.404 118.639 146.773 118.513 145.835 118.47C144.511 118.407 144.048 118.4 141 118.4M141 116C144.26 116 144.667 116.012 145.948 116.072C147.224 116.132 148.096 116.332 148.86 116.63C149.652 116.935 150.319 117.348 150.986 118.014C151.597 118.613 152.069 119.339 152.37 120.14C152.666 120.904 152.868 121.776 152.928 123.054C152.984 124.333 153 124.74 153 128C153 131.26 152.988 131.667 152.928 132.946C152.868 134.226 152.666 135.094 152.37 135.86C152.069 136.661 151.597 137.387 150.986 137.986C150.387 138.597 149.661 139.069 148.86 139.37C148.096 139.666 147.224 139.868 145.948 139.928C144.667 139.984 144.26 140 141 140C137.74 140 137.333 139.988 136.052 139.928C134.776 139.868 133.906 139.666 133.14 139.37C132.339 139.069 131.613 138.597 131.014 137.986C130.403 137.387 129.931 136.661 129.63 135.86C129.332 135.096 129.132 134.224 129.072 132.946C129.014 131.667 129 131.26 129 128C129 124.74 129.012 124.333 129.072 123.054C129.132 121.774 129.332 120.906 129.63 120.14C129.931 119.339 130.403 118.613 131.014 118.014C131.613 117.403 132.339 116.931 133.14 116.63C133.904 116.332 134.774 116.132 136.052 116.072C137.334 116.016 137.741 116 141.001 116" fill="#FF6500"/>
<g clip-path="url(#clip0_2184_245)">
<path d="M57.7143 76.7857V82.5C57.7201 83.6593 57.2897 84.7784 56.5084 85.6349C55.7272 86.4915 54.6524 87.0229 53.4975 87.1236C53.3981 87.1318 53.298 87.1197 53.2034 87.0879C53.1088 87.0561 53.0217 87.0053 52.9475 86.9386C52.874 86.8716 52.8153 86.79 52.7751 86.6991C52.735 86.6081 52.7143 86.5098 52.7143 86.4104V77.5C52.7149 77.0266 52.9032 76.5727 53.2379 76.2379C53.5727 75.9032 54.0266 75.7149 54.5 75.7143H55.2143V75H48.7857V75.7143H49.5C49.9734 75.7149 50.4273 75.9032 50.7621 76.2379C51.0968 76.5727 51.2851 77.0266 51.2857 77.5V86.4104C51.2857 86.6114 51.2007 86.8032 51.0525 86.9386C50.9025 87.0736 50.7036 87.1407 50.5025 87.1236C49.3476 87.0229 48.2728 86.4915 47.4916 85.6349C46.7103 84.7784 46.2799 83.6593 46.2857 82.5V76.7857C46.2851 76.3123 46.0968 75.8584 45.7621 75.5236C45.4273 75.1889 44.9734 75.0006 44.5 75H42V75.7143H43.0714C43.5449 75.7149 43.9987 75.9032 44.3335 76.2379C44.6683 76.5727 44.8566 77.0266 44.8571 77.5V82.5C44.8554 85.7264 47.3786 88.39 50.6004 88.5629C50.7844 88.5712 50.9583 88.65 51.0858 88.783C51.2134 88.9159 51.285 89.0929 51.2857 89.2771V92.5C51.2851 92.9734 51.0968 93.4273 50.7621 93.7621C50.4273 94.0968 49.9734 94.2851 49.5 94.2857H48.7857V95H55.2143V94.2857H54.5C54.0266 94.2851 53.5727 94.0968 53.2379 93.7621C52.9032 93.4273 52.7149 92.9734 52.7143 92.5V89.2757C52.715 89.0914 52.7866 88.9145 52.9142 88.7815C53.0417 88.6486 53.2156 88.5698 53.3996 88.5614C56.6211 88.3886 59.1439 85.7257 59.1429 82.5V77.5C59.1434 77.0266 59.3317 76.5727 59.6665 76.2379C60.0013 75.9032 60.4551 75.7149 60.9286 75.7143H62V75H59.5C59.0266 75.0006 58.5727 75.1889 58.2379 75.5236C57.9032 75.8584 57.7149 76.3123 57.7143 76.7857Z" fill="#FF6500"/>
</g>
<path fill-rule="evenodd" clip-rule="evenodd" d="M229.656 80.1448V81.1252H222.906C222.235 81.1252 221.591 81.3918 221.117 81.8669C220.642 82.3414 220.375 82.9852 220.375 83.6564V94.6252H219.531C219.307 94.6252 219.093 94.7141 218.935 94.8723C218.776 95.0306 218.688 95.2452 218.688 95.4689C218.688 95.6927 218.776 95.9073 218.935 96.0656C219.093 96.2238 219.307 96.3127 219.531 96.3127H241.469C241.693 96.3127 241.907 96.2238 242.065 96.0656C242.224 95.9073 242.312 95.6927 242.312 95.4689C242.312 95.2452 242.224 95.0306 242.065 94.8723C241.907 94.7141 241.693 94.6252 241.469 94.6252H240.625V83.6564C240.625 82.9848 240.358 82.341 239.883 81.8669C239.409 81.3921 238.765 81.1253 238.094 81.1252H231.344V80.1448C231.873 79.9671 232.333 79.6279 232.659 79.175C232.985 78.7221 233.161 78.1783 233.161 77.6203C233.161 77.1689 232.982 76.531 232.702 75.8669C232.143 74.5465 231.212 73.0792 231.212 73.0792C231.136 72.9593 231.031 72.8606 230.906 72.7922C230.782 72.7238 230.642 72.688 230.5 72.688C230.358 72.688 230.218 72.7238 230.094 72.7922C229.969 72.8606 229.864 72.9593 229.788 73.0792C229.788 73.0792 228.857 74.5465 228.298 75.8669C228.018 76.531 227.839 77.1689 227.839 77.6203C227.839 78.7939 228.601 79.7912 229.656 80.1448ZM238.938 90.0133L234.714 87.1909C234.562 87.0896 234.382 87.0401 234.2 87.0498C234.018 87.0596 233.844 87.128 233.704 87.2449L231.72 88.9037C231.265 89.2846 230.69 89.4932 230.096 89.4932C229.503 89.4932 228.928 89.2846 228.472 88.9037L226.509 87.2609C226.367 87.1422 226.19 87.0736 226.005 87.0655C225.82 87.0574 225.637 87.1104 225.486 87.2162L222.062 89.6024V94.6252H238.938V90.0133ZM238.938 87.984V83.6564C238.938 83.5456 238.916 83.4357 238.874 83.3332C238.832 83.2306 238.77 83.1375 238.691 83.0591C238.613 82.9807 238.52 82.9185 238.417 82.8762C238.315 82.834 238.205 82.8124 238.094 82.8127H222.906C222.795 82.8124 222.685 82.834 222.583 82.8762C222.48 82.9185 222.387 82.9807 222.309 83.0591C222.23 83.1375 222.168 83.2306 222.126 83.3332C222.084 83.4357 222.062 83.5456 222.062 83.6564V87.5453L224.52 85.8316C224.976 85.514 225.524 85.3551 226.079 85.3795C226.634 85.4039 227.165 85.6102 227.592 85.9666L229.555 87.6094C229.707 87.7362 229.899 87.8056 230.096 87.8055C230.294 87.8053 230.486 87.7356 230.638 87.6086L232.621 85.9506C233.041 85.5997 233.563 85.3942 234.109 85.3649C234.655 85.3355 235.196 85.4839 235.651 85.7878L238.938 87.984ZM230.5 75.2046C230.638 75.4594 230.783 75.7362 230.917 76.0163C231.203 76.612 231.474 77.2178 231.474 77.6203C231.474 77.8785 231.371 78.1262 231.189 78.3088C231.006 78.4914 230.758 78.5939 230.5 78.5939C230.242 78.5939 229.994 78.4914 229.811 78.3088C229.629 78.1262 229.526 77.8785 229.526 77.6203C229.526 77.2178 229.797 76.612 230.083 76.0163C230.217 75.7362 230.362 75.4594 230.5 75.2046Z" fill="#FF6500"/>
<path d="M230.369 162.632L229.558 161.822C227.319 159.583 223.689 159.583 221.451 161.822C219.212 164.06 219.212 167.69 221.451 169.929L230.369 178.847L239.287 169.929C241.526 167.69 241.526 164.06 239.287 161.822C237.048 159.583 233.418 159.583 231.18 161.822L230.369 162.632Z" stroke="#FF6500" stroke-width="1.44508" stroke-miterlimit="10" stroke-linecap="round" stroke-linejoin="round"/>
<path d="M235.137 169.495H241.977" stroke="#FF6500" stroke-width="1.44508" stroke-miterlimit="10" stroke-linecap="round" stroke-linejoin="round"/>
<path d="M218.76 169.495H224.588" stroke="#FF6500" stroke-width="1.44508" stroke-miterlimit="10" stroke-linecap="round" stroke-linejoin="round"/>
<path d="M224.588 169.495L226.611 164.678" stroke="#FF6500" stroke-width="1.44508" stroke-miterlimit="10" stroke-linecap="round" stroke-linejoin="round"/>
<path d="M226.611 164.678L230.272 171.903L233.307 166.605" stroke="#FF6500" stroke-width="1.44508" stroke-miterlimit="10" stroke-linecap="round" stroke-linejoin="round"/>
<path d="M235.137 169.495L233.307 166.604" stroke="#FF6500" stroke-width="1.44508" stroke-miterlimit="10" stroke-linecap="round" stroke-linejoin="round"/>
<defs>
<filter id="filter0_d_2184_245" x="9.8" y="131.8" width="84.4" height="84.4" filterUnits="userSpaceOnUse" color-interpolation-filters="sRGB">
<feFlood flood-opacity="0" result="BackgroundImageFix"/>
<feColorMatrix in="SourceAlpha" type="matrix" values="0 0 0 0 0 0 0 0 0 0 0 0 0 0 0 0 0 0 127 0" result="hardAlpha"/>
<feOffset dy="4"/>
<feGaussianBlur stdDeviation="5.6"/>
<feComposite in2="hardAlpha" operator="out"/>
<feColorMatrix type="matrix" values="0 0 0 0 0.941176 0 0 0 0 0.941176 0 0 0 0 0.94902 0 0 0 1 0"/>
<feBlend mode="normal" in2="BackgroundImageFix" result="effect1_dropShadow_2184_245"/>
<feBlend mode="normal" in="SourceGraphic" in2="effect1_dropShadow_2184_245" result="shape"/>
</filter>
<filter id="filter1_d_2184_245" x="98.8" y="0.8" width="84.4" height="84.4" filterUnits="userSpaceOnUse" color-interpolation-filters="sRGB">
<feFlood flood-opacity="0" result="BackgroundImageFix"/>
<feColorMatrix in="SourceAlpha" type="matrix" values="0 0 0 0 0 0 0 0 0 0 0 0 0 0 0 0 0 0 127 0" result="hardAlpha"/>
<feOffset dy="4"/>
<feGaussianBlur stdDeviation="5.6"/>
<feComposite in2="hardAlpha" operator="out"/>
<feColorMatrix type="matrix" values="0 0 0 0 0.941176 0 0 0 0 0.941176 0 0 0 0 0.94902 0 0 0 1 0"/>
<feBlend mode="normal" in2="BackgroundImageFix" result="effect1_dropShadow_2184_245"/>
<feBlend mode="normal" in="SourceGraphic" in2="effect1_dropShadow_2184_245" result="shape"/>
</filter>
<filter id="filter2_d_2184_245" x="98.8" y="177.8" width="84.4" height="84.4" filterUnits="userSpaceOnUse" color-interpolation-filters="sRGB">
<feFlood flood-opacity="0" result="BackgroundImageFix"/>
<feColorMatrix in="SourceAlpha" type="matrix" values="0 0 0 0 0 0 0 0 0 0 0 0 0 0 0 0 0 0 127 0" result="hardAlpha"/>
<feOffset dy="4"/>
<feGaussianBlur stdDeviation="5.6"/>
<feComposite in2="hardAlpha" operator="out"/>
<feColorMatrix type="matrix" values="0 0 0 0 0.941176 0 0 0 0 0.941176 0 0 0 0 0.94902 0 0 0 1 0"/>
<feBlend mode="normal" in2="BackgroundImageFix" result="effect1_dropShadow_2184_245"/>
<feBlend mode="normal" in="SourceGraphic" in2="effect1_dropShadow_2184_245" result="shape"/>
</filter>
<filter id="filter3_d_2184_245" x="187.8" y="131.8" width="84.4" height="84.4" filterUnits="userSpaceOnUse" color-interpolation-filters="sRGB">
<feFlood flood-opacity="0" result="BackgroundImageFix"/>
<feColorMatrix in="SourceAlpha" type="matrix" values="0 0 0 0 0 0 0 0 0 0 0 0 0 0 0 0 0 0 127 0" result="hardAlpha"/>
<feOffset dy="4"/>
<feGaussianBlur stdDeviation="5.6"/>
<feComposite in2="hardAlpha" operator="out"/>
<feColorMatrix type="matrix" values="0 0 0 0 0.941176 0 0 0 0 0.941176 0 0 0 0 0.94902 0 0 0 1 0"/>
<feBlend mode="normal" in2="BackgroundImageFix" result="effect1_dropShadow_2184_245"/>
<feBlend mode="normal" in="SourceGraphic" in2="effect1_dropShadow_2184_245" result="shape"/>
</filter>
<filter id="filter4_d_2184_245" x="9.8" y="46.8" width="84.4" height="84.4" filterUnits="userSpaceOnUse" color-interpolation-filters="sRGB">
<feFlood flood-opacity="0" result="BackgroundImageFix"/>
<feColorMatrix in="SourceAlpha" type="matrix" values="0 0 0 0 0 0 0 0 0 0 0 0 0 0 0 0 0 0 127 0" result="hardAlpha"/>
<feOffset dy="4"/>
<feGaussianBlur stdDeviation="5.6"/>
<feComposite in2="hardAlpha" operator="out"/>
<feColorMatrix type="matrix" values="0 0 0 0 0.941176 0 0 0 0 0.941176 0 0 0 0 0.94902 0 0 0 1 0"/>
<feBlend mode="normal" in2="BackgroundImageFix" result="effect1_dropShadow_2184_245"/>
<feBlend mode="normal" in="SourceGraphic" in2="effect1_dropShadow_2184_245" result="shape"/>
</filter>
<filter id="filter5_d_2184_245" x="187.8" y="46.8" width="84.4" height="84.4" filterUnits="userSpaceOnUse" color-interpolation-filters="sRGB">
<feFlood flood-opacity="0" result="BackgroundImageFix"/>
<feColorMatrix in="SourceAlpha" type="matrix" values="0 0 0 0 0 0 0 0 0 0 0 0 0 0 0 0 0 0 127 0" result="hardAlpha"/>
<feOffset dy="4"/>
<feGaussianBlur stdDeviation="5.6"/>
<feComposite in2="hardAlpha" operator="out"/>
<feColorMatrix type="matrix" values="0 0 0 0 0.941176 0 0 0 0 0.941176 0 0 0 0 0.94902 0 0 0 1 0"/>
<feBlend mode="normal" in2="BackgroundImageFix" result="effect1_dropShadow_2184_245"/>
<feBlend mode="normal" in="SourceGraphic" in2="effect1_dropShadow_2184_245" result="shape"/>
</filter>
<linearGradient id="paint0_linear_2184_245" x1="118.588" y1="202.062" x2="115.957" y2="244.377" gradientUnits="userSpaceOnUse">
<stop stop-color="#FBFAFF" stop-opacity="0"/>
<stop offset="0.395" stop-color="#FBFAFF" stop-opacity="0.64"/>
<stop offset="0.77" stop-color="#FBFAFF"/>
<stop offset="1" stop-color="#FBFAFF"/>
</linearGradient>
<linearGradient id="paint1_linear_2184_245" x1="163.412" y1="68.9375" x2="166.043" y2="26.623" gradientUnits="userSpaceOnUse">
<stop stop-color="#FBFAFF" stop-opacity="0"/>
<stop offset="0.395" stop-color="#FBFAFF" stop-opacity="0.64"/>
<stop offset="0.77" stop-color="#FBFAFF"/>
<stop offset="1" stop-color="#FBFAFF"/>
</linearGradient>
<clipPath id="clip0_2184_245">
<rect width="20" height="20" fill="white" transform="translate(42 75)"/>
</clipPath>
</defs>
</svg>
