<svg width="599" height="482" viewBox="0 0 599 482" fill="none" xmlns="http://www.w3.org/2000/svg">
<path d="M111.5 212L173.986 166.092C180.91 161.005 185 152.925 185 144.333V106.5V64C185 49.0883 197.088 37 212 37H365C379.912 37 392 49.0883 392 64V143.98C392 152.77 387.722 161.009 380.533 166.065L237.03 266.993C219.395 279.396 222.693 306.445 242.791 314.248L264.851 322.812C275.236 326.843 282.079 336.84 282.079 347.981V400C282.079 414.912 294.168 427 309.079 427H392.604C398.072 427 403.412 425.34 407.916 422.238L481.256 371.742C488.326 366.874 497.289 365.658 505.4 368.465L515.451 371.945C537.18 379.466 557.765 358.12 549.461 336.679L482 162.5" stroke="#E6E6E6" stroke-width="2"/>
<g filter="url(#filter0_d_2184_235)">
<rect x="100" y="103.635" width="165" height="51" rx="25.5" transform="rotate(-8.58644 100 103.635)" fill="white" shape-rendering="crispEdges"/>
<path d="M135.503 119.472L137.915 119.108C138.014 119.093 138.102 119.14 138.1 119.262L138.098 120.718C138.09 120.8 138.059 120.866 137.961 120.881L135.508 121.251L135.544 125.776L137.977 125.409C138.076 125.394 138.164 125.441 138.162 125.563L138.12 127.026C138.112 127.108 138.081 127.173 137.982 127.188L135.57 127.552L135.587 130.483C135.583 130.584 135.549 130.63 135.45 130.645L133.532 130.935C133.433 130.949 133.345 130.902 133.347 130.78L133.335 127.89L130.962 128.248L130.98 131.178C130.975 131.28 130.941 131.326 130.842 131.341L128.944 131.627C128.845 131.642 128.757 131.595 128.759 131.473L128.747 128.583L126.295 128.953C126.196 128.968 126.108 128.92 126.11 128.799L126.152 127.336C126.16 127.254 126.19 127.189 126.289 127.174L128.722 126.806L128.686 122.281L126.273 122.645C126.174 122.66 126.086 122.613 126.088 122.491L126.09 121.035C126.098 120.953 126.129 120.887 126.228 120.872L128.68 120.502L128.654 117.654C128.659 117.552 128.693 117.507 128.792 117.492L130.69 117.205C130.789 117.19 130.877 117.237 130.875 117.359L130.895 120.168L133.268 119.809L133.242 116.961C133.247 116.859 133.281 116.814 133.38 116.799L135.298 116.509C135.397 116.494 135.485 116.542 135.483 116.663L135.503 119.472ZM130.901 121.947L130.937 126.472L133.31 126.114L133.274 121.588L130.901 121.947ZM152.457 122.858C152.905 125.825 151.646 128.199 147.819 128.98L148.293 131.982C148.311 132.101 148.257 132.15 148.158 132.165L146.102 132.475C146.003 132.49 145.938 132.459 145.92 132.341L145.486 129.332C141.639 129.71 139.718 127.836 139.273 124.89C138.828 121.943 140.121 119.523 143.908 118.749L143.37 115.452C143.352 115.334 143.405 115.285 143.504 115.27L145.561 114.96C145.659 114.945 145.725 114.975 145.743 115.094L146.222 118.399C150.243 117.974 152.006 119.872 152.457 122.858ZM141.646 124.531C141.974 126.707 142.926 127.918 145.269 127.767L144.685 123.627L144.144 120.311C141.998 120.837 141.314 122.336 141.646 124.531ZM146.441 119.985L146.911 123.231L147.563 127.42C149.805 126.859 150.407 125.353 150.09 123.256C149.759 121.061 148.666 119.851 146.441 119.985ZM158.963 127.337C155.739 127.824 153.606 126.022 153.12 122.799C152.633 119.575 154.13 117.165 157.353 116.678C160.557 116.194 162.673 118.019 163.16 121.242C163.644 124.446 162.166 126.854 158.963 127.337ZM158.721 125.736C160.441 125.476 161.084 124.104 160.714 121.652C160.346 119.22 159.296 118.023 157.575 118.283C155.818 118.569 155.185 119.999 155.552 122.432C155.922 124.884 156.981 125.998 158.721 125.736ZM162.197 116.351C162.182 116.252 162.232 116.184 162.331 116.169L171.27 114.82C171.369 114.805 171.437 114.855 171.452 114.954L171.661 116.338C171.676 116.437 171.626 116.505 171.527 116.52L168.244 117.016L168.723 120.322L169.521 125.339C169.539 125.457 169.485 125.506 169.386 125.521L167.27 125.84C167.172 125.855 167.106 125.825 167.088 125.706L166.389 120.674L165.851 117.377L162.588 117.87C162.489 117.885 162.421 117.835 162.406 117.736L162.197 116.351ZM177.831 124.488C174.607 124.975 172.475 123.173 171.988 119.95C171.501 116.726 172.998 114.316 176.221 113.829C179.425 113.345 181.541 115.17 182.028 118.393C182.512 121.597 181.035 124.005 177.831 124.488ZM177.589 122.887C179.31 122.627 179.952 121.255 179.582 118.803C179.214 116.371 178.164 115.174 176.443 115.434C174.686 115.72 174.053 117.15 174.42 119.583C174.79 122.035 175.849 123.149 177.589 122.887ZM182.04 113.355C182.022 113.237 182.075 113.188 182.174 113.173L188.582 112.206C188.68 112.191 188.749 112.241 188.764 112.34L188.973 113.724C188.988 113.823 188.937 113.891 188.838 113.906L184.685 114.533L185.164 117.839L185.962 122.856C185.98 122.975 185.927 123.023 185.828 123.038L183.712 123.358C183.613 123.373 183.548 123.342 183.53 123.223L182.831 118.191L182.04 113.355ZM194.861 111.055C197.669 110.631 199.518 112.698 199.966 115.665C200.411 118.611 199.148 121.229 196.419 121.641C195.094 121.841 193.988 121.482 193.152 120.638L193.867 125.101C193.885 125.22 193.831 125.268 193.732 125.283L191.616 125.603C191.517 125.618 191.452 125.587 191.434 125.468L190.359 117.945L189.437 112.238C189.419 112.12 189.472 112.071 189.571 112.056L191.647 111.743C191.746 111.728 191.811 111.758 191.829 111.877L191.978 113.129C192.518 112.016 193.496 111.261 194.861 111.055ZM195.521 120.118C197.261 119.855 197.906 118.363 197.574 116.167C197.219 113.814 196.157 112.538 194.476 112.792C192.874 113.034 192.127 114.381 192.462 116.737C192.804 119.133 193.919 120.36 195.521 120.118ZM207.468 110.689L207.236 109.551C207.218 109.432 207.271 109.384 207.37 109.369L209.466 109.052C209.565 109.037 209.63 109.068 209.648 109.187L210.326 114.08L211.138 119.055C211.156 119.173 211.103 119.222 211.004 119.237L208.927 119.55C208.829 119.565 208.763 119.535 208.745 119.416L208.597 118.164C208.057 119.277 207.079 120.032 205.714 120.238C202.886 120.665 201.057 118.595 200.609 115.628C200.164 112.682 201.427 110.064 204.156 109.652C205.501 109.449 206.627 109.805 207.468 110.689ZM206.102 118.521C207.704 118.279 208.451 116.932 208.113 114.556C207.768 112.14 206.655 110.933 205.051 111.155C203.307 111.398 202.666 112.911 203 115.126C203.356 117.479 204.424 118.794 206.102 118.521ZM224.396 111.996C224.844 114.963 223.584 117.337 219.758 118.117L220.231 121.12C220.249 121.239 220.196 121.287 220.097 121.302L218.04 121.613C217.941 121.628 217.876 121.597 217.858 121.479L217.424 118.47C213.577 118.848 211.656 116.974 211.211 114.027C210.766 111.081 212.059 108.661 215.846 107.887L215.308 104.59C215.29 104.471 215.343 104.423 215.442 104.408L217.499 104.097C217.598 104.082 217.663 104.113 217.681 104.232L218.16 107.537C222.182 107.112 223.945 109.01 224.396 111.996ZM213.584 113.669C213.913 115.844 214.864 117.056 217.208 116.904L216.623 112.765L216.082 109.449C213.937 109.975 213.253 111.474 213.584 113.669ZM218.379 109.122L218.849 112.368L219.502 116.558C221.743 115.997 222.345 114.49 222.029 112.394C221.697 110.199 220.604 108.989 218.379 109.122ZM227.912 114.075L230.93 105.933C230.957 105.848 231.011 105.799 231.09 105.787L233.582 105.411C233.681 105.396 233.746 105.427 233.764 105.545L234.436 110.399L235.254 115.413C235.272 115.532 235.218 115.581 235.119 115.595L233.063 115.906C232.964 115.921 232.899 115.89 232.881 115.772L232.157 110.845L231.84 108.344L228.833 116.423C228.805 116.508 228.752 116.557 228.673 116.569L226.161 116.948C226.062 116.963 225.997 116.932 225.979 116.814L225.245 111.686L224.469 106.949C224.451 106.83 224.505 106.781 224.603 106.767L226.68 106.453C226.779 106.438 226.844 106.469 226.862 106.587L227.565 111.376L227.912 114.075ZM239.169 104.567L243.263 103.949C243.361 103.934 243.427 103.965 243.445 104.083L244.137 108.935L244.935 113.952C244.953 114.07 244.899 114.119 244.8 114.134L242.704 114.45C242.605 114.465 242.54 114.435 242.522 114.316L242.03 110.79L240.092 111.082L238.612 114.947C238.585 115.032 238.531 115.08 238.452 115.092L236.336 115.412C236.218 115.43 236.163 115.337 236.208 115.229L237.98 111.159C236.391 110.954 235.411 110.09 235.161 108.429C234.835 106.273 236.222 105.012 239.169 104.567ZM241.808 109.185L241.287 105.866L239.349 106.158C238.043 106.355 237.427 107.096 237.579 108.104C237.746 109.212 238.565 109.675 239.85 109.481L241.808 109.185Z" fill="#1B1B1B"/>
</g>
<g filter="url(#filter1_d_2184_235)">
<rect x="338" y="79" width="109" height="51" rx="25.5" fill="white" shape-rendering="crispEdges"/>
<path d="M370.74 99.96H373.18C373.28 99.96 373.36 100.02 373.34 100.14L373.12 101.58C373.1 101.66 373.06 101.72 372.96 101.72H370.48L369.84 106.2H372.3C372.4 106.2 372.48 106.26 372.46 106.38L372.2 107.82C372.18 107.9 372.14 107.96 372.04 107.96H369.6L369.18 110.86C369.16 110.96 369.12 111 369.02 111H367.08C366.98 111 366.9 110.94 366.92 110.82L367.34 107.96H364.94L364.52 110.86C364.5 110.96 364.46 111 364.36 111H362.44C362.34 111 362.26 110.94 362.28 110.82L362.7 107.96H360.22C360.12 107.96 360.04 107.9 360.06 107.78L360.32 106.34C360.34 106.26 360.38 106.2 360.48 106.2H362.94L363.58 101.72H361.14C361.04 101.72 360.96 101.66 360.98 101.54L361.2 100.1C361.22 100.02 361.26 99.96 361.36 99.96H363.84L364.24 97.14C364.26 97.04 364.3 97 364.4 97H366.32C366.42 97 366.5 97.06 366.48 97.18L366.08 99.96H368.48L368.88 97.14C368.9 97.04 368.94 97 369.04 97H370.98C371.08 97 371.16 97.06 371.14 97.18L370.74 99.96ZM365.82 101.72L365.18 106.2H367.58L368.22 101.72H365.82ZM378.699 111.24C375.499 111.24 373.659 109.14 373.659 105.88C373.659 102.62 375.499 100.46 378.739 100.46C381.339 100.46 382.979 101.92 383.199 104.14C383.219 104.24 383.159 104.3 383.059 104.3H381.139C381.039 104.3 380.999 104.26 380.979 104.16C380.739 102.8 379.879 102.1 378.739 102.1C376.959 102.12 376.119 103.42 376.119 105.86C376.119 108.36 376.979 109.6 378.739 109.62C380.039 109.64 380.939 108.78 381.059 107.26C381.079 107.16 381.139 107.1 381.239 107.1H383.199C383.299 107.1 383.359 107.16 383.339 107.24C383.139 109.58 381.379 111.24 378.699 111.24ZM384.075 100.86C384.075 100.74 384.135 100.7 384.235 100.7H392.935C393.035 100.7 393.095 100.74 393.095 100.86L393.055 105.76L393.095 110.84C393.095 110.96 393.035 111 392.935 111H390.795C390.695 111 390.635 110.96 390.635 110.84L390.695 105.76L390.675 102.42H386.515L386.495 105.76L386.535 110.84C386.535 110.96 386.475 111 386.375 111H384.235C384.135 111 384.075 110.96 384.075 110.84L384.135 105.76L384.075 100.86ZM399.032 111.24C395.772 111.24 393.932 109.14 393.932 105.88C393.932 102.62 395.772 100.46 399.032 100.46C402.272 100.46 404.092 102.58 404.092 105.84C404.092 109.08 402.272 111.24 399.032 111.24ZM399.032 109.62C400.772 109.62 401.612 108.36 401.612 105.88C401.612 103.42 400.752 102.08 399.012 102.08C397.232 102.1 396.392 103.42 396.392 105.88C396.392 108.36 397.272 109.62 399.032 109.62ZM410.455 100.5C413.295 100.5 414.815 102.82 414.815 105.82C414.815 108.8 413.175 111.2 410.415 111.2C409.075 111.2 408.035 110.68 407.335 109.72L407.375 114.24C407.375 114.36 407.315 114.4 407.215 114.4H405.075C404.975 114.4 404.915 114.36 404.915 114.24L404.975 106.64L404.915 100.86C404.915 100.74 404.975 100.7 405.075 100.7H407.175C407.275 100.7 407.335 100.74 407.335 100.86L407.295 102.12C407.995 101.1 409.075 100.5 410.455 100.5ZM409.755 109.56C411.515 109.56 412.375 108.18 412.375 105.96C412.375 103.58 411.515 102.16 409.815 102.16C408.195 102.16 407.255 103.38 407.235 105.76C407.215 108.18 408.135 109.56 409.755 109.56ZM414.593 100.86C414.593 100.76 414.653 100.7 414.753 100.7H423.793C423.893 100.7 423.953 100.76 423.953 100.86V102.26C423.953 102.36 423.893 102.42 423.793 102.42H420.473L420.453 105.76L420.493 110.84C420.493 110.96 420.433 111 420.333 111H418.193C418.093 111 418.033 110.96 418.033 110.84L418.093 105.76L418.053 102.42H414.753C414.653 102.42 414.593 102.36 414.593 102.26V100.86Z" fill="#1B1B1B"/>
</g>
<g filter="url(#filter2_d_2184_235)">
<rect x="240.646" y="164" width="193" height="51" rx="25.5" transform="rotate(14.3572 240.646 164)" fill="white" shape-rendering="crispEdges"/>
<path d="M267.167 192.424L269.531 193.029C269.628 193.054 269.69 193.132 269.641 193.243L269.071 194.583C269.032 194.656 268.978 194.704 268.881 194.679L266.479 194.064L264.748 198.246L267.131 198.856C267.228 198.881 267.29 198.959 267.241 199.07L266.632 200.4C266.593 200.473 266.539 200.521 266.443 200.496L264.079 199.891L262.953 202.597C262.909 202.689 262.86 202.717 262.763 202.693L260.884 202.211C260.787 202.187 260.724 202.109 260.773 201.997L261.889 199.331L259.564 198.736L258.438 201.441C258.394 201.533 258.346 201.562 258.249 201.537L256.389 201.061C256.292 201.036 256.229 200.958 256.278 200.847L257.394 198.18L254.992 197.565C254.895 197.541 254.832 197.463 254.881 197.351L255.49 196.021C255.53 195.948 255.583 195.9 255.68 195.925L258.063 196.535L259.794 192.353L257.43 191.748C257.333 191.724 257.271 191.646 257.32 191.534L257.89 190.194C257.929 190.121 257.983 190.073 258.08 190.098L260.482 190.713L261.569 188.08C261.613 187.988 261.662 187.959 261.759 187.984L263.619 188.46C263.716 188.485 263.778 188.563 263.729 188.674L262.652 191.268L264.978 191.863L266.064 189.231C266.108 189.139 266.157 189.11 266.254 189.135L268.133 189.616C268.23 189.641 268.293 189.719 268.244 189.83L267.167 192.424ZM261.964 192.909L260.233 197.09L262.558 197.685L264.289 193.504L261.964 192.909ZM276.219 195.608C276.278 195.54 276.341 195.536 276.418 195.556L278.394 196.062C278.511 196.091 278.549 196.184 278.442 196.28L274.547 199.639L276.471 205.995C276.5 206.126 276.441 206.194 276.325 206.164L273.942 205.554C273.864 205.534 273.816 205.48 273.797 205.393L273.298 203.469L272.413 200.394L270.999 200.032L269.932 204.362C269.902 204.479 269.834 204.502 269.737 204.478L267.664 203.947C267.567 203.922 267.519 203.869 267.549 203.752L268.866 198.846L270.023 194.084C270.053 193.968 270.121 193.944 270.218 193.969L272.291 194.499C272.388 194.524 272.436 194.578 272.407 194.694L271.426 198.365L272.84 198.727L276.219 195.608ZM279.782 204.385L285.735 198.064C285.794 197.997 285.862 197.973 285.939 197.993L288.38 198.618C288.477 198.642 288.526 198.696 288.496 198.812L287.223 203.544L286.021 208.481C285.991 208.597 285.923 208.621 285.826 208.596L283.811 208.08C283.715 208.055 283.666 208.002 283.696 207.885L284.95 203.066L285.633 200.639L279.714 206.907C279.656 206.975 279.588 206.999 279.51 206.979L277.049 206.349C276.953 206.324 276.904 206.271 276.934 206.155L278.257 201.146L279.389 196.481C279.419 196.365 279.487 196.341 279.584 196.366L281.618 196.887C281.715 196.912 281.764 196.965 281.734 197.081L280.514 201.765L279.782 204.385ZM295.161 204.503L296.08 200.753C296.109 200.637 296.177 200.613 296.274 200.638L298.328 201.164C298.425 201.189 298.473 201.242 298.443 201.358L297.17 206.091L295.969 211.027C295.939 211.143 295.871 211.167 295.774 211.142L293.72 210.616C293.623 210.592 293.575 210.538 293.605 210.422L294.735 206.169L290.492 205.083L289.439 209.355C289.409 209.472 289.341 209.496 289.245 209.471L287.191 208.945C287.094 208.92 287.046 208.867 287.075 208.75L288.393 203.844L289.55 199.082C289.58 198.966 289.648 198.942 289.745 198.967L291.799 199.492C291.895 199.517 291.944 199.571 291.914 199.687L290.918 203.417L295.161 204.503ZM301.599 212.881C298.441 212.072 297.179 209.582 297.987 206.423C298.795 203.265 301.114 201.629 304.272 202.437C307.411 203.241 308.648 205.746 307.84 208.904C307.036 212.043 304.738 213.684 301.599 212.881ZM302 211.311C303.686 211.743 304.812 210.73 305.427 208.328C306.037 205.945 305.536 204.433 303.851 204.002C302.121 203.58 300.98 204.65 300.37 207.033C299.755 209.436 300.295 210.875 302 211.311ZM313.575 213.035L319.528 206.714C319.587 206.646 319.655 206.623 319.733 206.642L322.174 207.267C322.271 207.292 322.319 207.346 322.289 207.462L321.016 212.194L319.814 217.13C319.785 217.247 319.717 217.27 319.62 217.246L317.605 216.73C317.508 216.705 317.46 216.651 317.489 216.535L318.744 211.716L319.427 209.289L313.508 215.557C313.449 215.625 313.381 215.649 313.303 215.629L310.843 214.999C310.746 214.974 310.698 214.921 310.727 214.804L312.051 209.796L313.183 205.131C313.213 205.015 313.281 204.991 313.377 205.016L315.412 205.537C315.509 205.561 315.557 205.615 315.527 205.731L314.308 210.415L313.575 213.035ZM328.882 219.864C325.782 219.071 324.52 216.58 325.328 213.422C326.137 210.264 328.455 208.627 331.594 209.431C334.112 210.075 335.339 211.896 335.002 214.102C334.996 214.204 334.923 214.247 334.827 214.222L332.967 213.746C332.87 213.721 332.841 213.672 332.846 213.571C332.951 212.194 332.291 211.302 331.187 211.019C329.458 210.597 328.321 211.649 327.716 214.012C327.097 216.434 327.622 217.849 329.322 218.305C330.577 218.646 331.662 218.036 332.155 216.594C332.199 216.502 332.272 216.458 332.369 216.483L334.268 216.969C334.365 216.994 334.408 217.067 334.369 217.14C333.595 219.357 331.478 220.529 328.882 219.864ZM339.238 220.843C340.459 221.155 341.417 220.719 342.045 219.476C342.089 219.384 342.157 219.36 342.235 219.38L344.172 219.876C344.269 219.901 344.332 219.979 344.288 220.071C343.496 221.953 341.472 223.087 338.798 222.402C335.582 221.579 334.408 218.987 335.186 215.945C335.99 212.806 338.352 211.16 341.393 211.939C344.494 212.733 345.707 215.252 344.897 218.658C344.872 218.755 344.799 218.798 344.702 218.773L337.417 216.908C336.954 219.122 337.553 220.411 339.238 220.843ZM341.016 213.494C339.602 213.132 338.56 213.815 337.881 215.417L342.725 216.657C342.995 215.281 342.547 213.886 341.016 213.494ZM352.432 214.806C355.184 215.51 356.081 218.135 355.337 221.041C354.598 223.928 352.414 225.846 349.74 225.162C348.442 224.83 347.564 224.068 347.124 222.964L346.042 227.353C346.012 227.469 345.944 227.493 345.847 227.468L343.774 226.938C343.677 226.913 343.629 226.859 343.658 226.743L345.601 219.395L346.976 213.781C347.006 213.665 347.074 213.641 347.171 213.666L349.205 214.186C349.302 214.211 349.35 214.265 349.321 214.381L348.969 215.592C349.9 214.777 351.095 214.464 352.432 214.806ZM349.508 223.409C351.213 223.846 352.388 222.722 352.939 220.571C353.529 218.266 353.048 216.677 351.401 216.255C349.831 215.854 348.618 216.802 348.009 219.103C347.389 221.443 347.938 223.008 349.508 223.409ZM357.756 224.344L363.71 218.023C363.768 217.955 363.836 217.931 363.914 217.951L366.355 218.576C366.452 218.601 366.5 218.654 366.47 218.771L365.197 223.503L363.996 228.439C363.966 228.555 363.898 228.579 363.801 228.554L361.786 228.039C361.689 228.014 361.641 227.96 361.671 227.844L362.925 223.024L363.608 220.598L357.689 226.866C357.63 226.934 357.562 226.957 357.485 226.938L355.024 226.308C354.927 226.283 354.879 226.229 354.909 226.113L356.232 221.105L357.364 216.44C357.394 216.324 357.462 216.3 357.559 216.324L359.593 216.845C359.69 216.87 359.738 216.924 359.708 217.04L358.489 221.724L357.756 224.344ZM374.27 221.965L374.5 220.826C374.53 220.71 374.598 220.686 374.694 220.711L376.748 221.236C376.845 221.261 376.893 221.315 376.864 221.431L375.58 226.202L374.389 231.099C374.359 231.215 374.291 231.239 374.194 231.215L372.16 230.694C372.063 230.669 372.015 230.615 372.044 230.499L372.396 229.288C371.465 230.103 370.27 230.416 368.933 230.074C366.162 229.365 365.284 226.746 366.028 223.839C366.767 220.952 368.951 219.034 371.625 219.718C372.942 220.056 373.84 220.822 374.27 221.965ZM369.959 228.644C371.529 229.046 372.742 228.097 373.356 225.777C373.981 223.418 373.427 221.872 371.862 221.451C370.162 220.996 368.982 222.139 368.426 224.309C367.836 226.614 368.307 228.242 369.959 228.644ZM386.884 223.831C386.981 223.855 387.029 223.909 386.999 224.025L385.725 228.922L384.563 233.704C384.534 233.82 384.466 233.844 384.369 233.819L382.315 233.293C382.218 233.268 382.17 233.215 382.2 233.099L383.439 228.337L384.249 224.932L381.168 224.143C380.699 225.654 379.997 227.91 379.554 229.159C378.8 231.217 377.945 232.381 375.968 231.875C375.562 231.771 375.286 231.638 375.093 231.506C375.02 231.467 375.001 231.38 375.021 231.302L375.343 230.043C375.368 229.946 375.441 229.903 375.552 229.952C375.664 230.001 375.794 230.055 375.911 230.085C376.686 230.283 377.11 229.917 377.642 228.402C378.14 227.022 378.985 224.204 379.579 222.126C379.603 222.029 379.676 221.986 379.773 222.011L386.884 223.831ZM390.384 224.706C390.481 224.731 390.529 224.784 390.5 224.901L389.588 228.301L391.041 228.673C393.967 229.422 395.24 230.821 394.679 233.01C394.114 235.219 392.301 235.849 389.395 235.105L387.961 234.738L387.956 234.758L385.728 234.187C385.631 234.163 385.583 234.109 385.612 233.993L386.915 229.144L388.116 224.291C388.146 224.174 388.214 224.15 388.311 224.175L390.384 224.706ZM395.823 231.527L397.024 226.591C397.054 226.475 397.122 226.451 397.219 226.476L399.292 227.007C399.389 227.031 399.437 227.085 399.407 227.201L398.109 232.113L396.933 236.87C396.903 236.986 396.835 237.01 396.738 236.985L394.665 236.454C394.568 236.429 394.52 236.376 394.549 236.26L395.823 231.527ZM389.172 229.846L388.338 233.183L389.811 233.56C391.128 233.897 392.008 233.606 392.3 232.463C392.578 231.378 392.136 230.605 390.664 230.228L389.172 229.846Z" fill="#1B1B1B"/>
</g>
<g filter="url(#filter3_d_2184_235)">
<rect x="141" y="272" width="174" height="51" rx="25.5" fill="white" shape-rendering="crispEdges"/>
<path d="M173.74 292.96H176.18C176.28 292.96 176.36 293.02 176.34 293.14L176.12 294.58C176.1 294.66 176.06 294.72 175.96 294.72H173.48L172.84 299.2H175.3C175.4 299.2 175.48 299.26 175.46 299.38L175.2 300.82C175.18 300.9 175.14 300.96 175.04 300.96H172.6L172.18 303.86C172.16 303.96 172.12 304 172.02 304H170.08C169.98 304 169.9 303.94 169.92 303.82L170.34 300.96H167.94L167.52 303.86C167.5 303.96 167.46 304 167.36 304H165.44C165.34 304 165.26 303.94 165.28 303.82L165.7 300.96H163.22C163.12 300.96 163.04 300.9 163.06 300.78L163.32 299.34C163.34 299.26 163.38 299.2 163.48 299.2H165.94L166.58 294.72H164.14C164.04 294.72 163.96 294.66 163.98 294.54L164.2 293.1C164.22 293.02 164.26 292.96 164.36 292.96H166.84L167.24 290.14C167.26 290.04 167.3 290 167.4 290H169.32C169.42 290 169.5 290.06 169.48 290.18L169.08 292.96H171.48L171.88 290.14C171.9 290.04 171.94 290 172.04 290H173.98C174.08 290 174.16 290.06 174.14 290.18L173.74 292.96ZM168.82 294.72L168.18 299.2H170.58L171.22 294.72H168.82ZM179.519 296.92L179.599 303.84C179.599 303.96 179.539 304 179.439 304H177.279C177.179 304 177.119 303.96 177.119 303.84L177.199 296.92L177.119 290.16C177.119 290.04 177.179 290 177.279 290H179.439C179.539 290 179.599 290.04 179.599 290.16L179.519 296.92ZM186.904 297.04L187.004 303.84C187.004 303.96 186.944 304 186.844 304H184.604C184.504 304 184.444 303.96 184.444 303.84L184.544 297.04L184.484 291.84H180.584C180.484 291.84 180.424 291.78 180.424 291.68V290.16C180.424 290.06 180.484 290 180.584 290H190.864C190.964 290 191.024 290.06 191.024 290.16V291.68C191.024 291.78 190.964 291.84 190.864 291.84H186.984L186.904 297.04ZM194.527 293.86C194.527 293.76 194.587 293.7 194.687 293.7H203.727C203.827 293.7 203.887 293.76 203.887 293.86V295.26C203.887 295.36 203.827 295.42 203.727 295.42H200.407L200.387 298.76L200.427 303.84C200.427 303.96 200.367 304 200.267 304H198.127C198.027 304 197.967 303.96 197.967 303.84L198.027 298.76L197.987 295.42H194.687C194.587 295.42 194.527 295.36 194.527 295.26V293.86ZM208.811 302.62C210.071 302.62 210.891 301.96 211.191 300.6C211.211 300.5 211.271 300.46 211.351 300.46H213.351C213.451 300.46 213.531 300.52 213.511 300.62C213.211 302.64 211.531 304.24 208.771 304.24C205.451 304.24 203.671 302.02 203.671 298.88C203.671 295.64 205.551 293.46 208.691 293.46C211.891 293.46 213.691 295.6 213.751 299.1C213.751 299.2 213.691 299.26 213.591 299.26H206.071C206.171 301.52 207.071 302.62 208.811 302.62ZM208.711 295.06C207.251 295.06 206.411 295.98 206.151 297.7H211.151C211.071 296.3 210.291 295.06 208.711 295.06ZM222.138 293.7C222.258 293.7 222.298 293.78 222.238 293.9L219.338 298.68L222.498 303.8C222.558 303.9 222.518 304 222.398 304H220.018C219.938 304 219.878 303.94 219.838 303.88L217.618 300.04L215.438 303.88C215.398 303.96 215.338 304 215.258 304H213.098C212.978 304 212.938 303.92 212.998 303.8L216.198 298.52L213.218 293.9C213.158 293.8 213.198 293.7 213.318 293.7H215.678C215.758 293.7 215.818 293.76 215.858 293.82L217.918 297.38L219.858 293.82C219.898 293.74 219.958 293.7 220.038 293.7H222.138ZM229.715 297.72L229.675 293.86C229.675 293.74 229.735 293.7 229.835 293.7H231.955C232.055 293.7 232.115 293.74 232.115 293.86L232.055 298.76L232.115 303.84C232.115 303.96 232.055 304 231.955 304H229.835C229.735 304 229.675 303.96 229.675 303.84L229.715 299.44H225.335L225.375 303.84C225.375 303.96 225.315 304 225.215 304H223.095C222.995 304 222.935 303.96 222.935 303.84L222.995 298.76L222.935 293.86C222.935 293.74 222.995 293.7 223.095 293.7H225.215C225.315 293.7 225.375 293.74 225.375 293.86L225.335 297.72H229.715ZM238.028 304.24C234.768 304.24 232.928 302.14 232.928 298.88C232.928 295.62 234.768 293.46 238.028 293.46C241.268 293.46 243.088 295.58 243.088 298.84C243.088 302.08 241.268 304.24 238.028 304.24ZM238.028 302.62C239.768 302.62 240.608 301.36 240.608 298.88C240.608 296.42 239.748 295.08 238.008 295.08C236.228 295.1 235.388 296.42 235.388 298.88C235.388 301.36 236.268 302.62 238.028 302.62ZM252.35 293.7C252.45 293.7 252.51 293.74 252.51 293.86L252.49 298.92L252.55 303.84C252.55 303.96 252.49 304 252.39 304H250.27C250.17 304 250.11 303.96 250.11 303.84L250.13 298.92L250.07 295.42H246.89C246.81 297 246.69 299.36 246.57 300.68C246.35 302.86 245.81 304.2 243.77 304.2C243.35 304.2 243.05 304.14 242.83 304.06C242.75 304.04 242.71 303.96 242.71 303.88V302.58C242.71 302.48 242.77 302.42 242.89 302.44C243.01 302.46 243.15 302.48 243.27 302.48C244.07 302.48 244.39 302.02 244.53 300.42C244.67 298.96 244.79 296.02 244.85 293.86C244.85 293.76 244.91 293.7 245.01 293.7H252.35ZM258.439 304.24C255.179 304.24 253.339 302.14 253.339 298.88C253.339 295.62 255.179 293.46 258.439 293.46C261.679 293.46 263.499 295.58 263.499 298.84C263.499 302.08 261.679 304.24 258.439 304.24ZM258.439 302.62C260.179 302.62 261.019 301.36 261.019 298.88C261.019 296.42 260.159 295.08 258.419 295.08C256.639 295.1 255.799 296.42 255.799 298.88C255.799 301.36 256.679 302.62 258.439 302.62ZM264.263 293.86C264.263 293.74 264.323 293.7 264.423 293.7H270.903C271.003 293.7 271.063 293.76 271.063 293.86V295.26C271.063 295.36 271.003 295.42 270.903 295.42H266.703L266.683 298.76L266.723 303.84C266.723 303.96 266.663 304 266.563 304H264.423C264.323 304 264.263 303.96 264.263 303.84L264.323 298.76L264.263 293.86ZM274.083 301.42L278.283 293.82C278.323 293.74 278.383 293.7 278.463 293.7H280.983C281.083 293.7 281.143 293.74 281.143 293.86L281.083 298.76L281.143 303.84C281.143 303.96 281.083 304 280.983 304H278.903C278.803 304 278.743 303.96 278.743 303.84L278.763 298.86L278.823 296.34L274.643 303.88C274.603 303.96 274.543 304 274.463 304H271.923C271.823 304 271.763 303.96 271.763 303.84L271.803 298.66L271.743 293.86C271.743 293.74 271.803 293.7 271.903 293.7H274.003C274.103 293.7 274.163 293.74 274.163 293.86L274.143 298.7L274.083 301.42ZM284.571 301.42L288.771 293.82C288.811 293.74 288.871 293.7 288.951 293.7H291.471C291.571 293.7 291.631 293.74 291.631 293.86L291.571 298.76L291.631 303.84C291.631 303.96 291.571 304 291.471 304H289.391C289.291 304 289.231 303.96 289.231 303.84L289.251 298.86L289.311 296.34L285.131 303.88C285.091 303.96 285.031 304 284.951 304H282.411C282.311 304 282.251 303.96 282.251 303.84L282.291 298.66L282.231 293.86C282.231 293.74 282.291 293.7 282.391 293.7H284.491C284.591 293.7 284.651 293.74 284.651 293.86L284.631 298.7L284.571 301.42Z" fill="#1B1B1B"/>
</g>
<g filter="url(#filter4_d_2184_235)">
<rect x="19" y="193.742" width="129" height="51" rx="25.5" transform="rotate(-0.773584 19 193.742)" fill="white" shape-rendering="crispEdges"/>
<path d="M52.0197 214.258L54.4595 214.225C54.5595 214.224 54.6403 214.282 54.6219 214.403L54.4213 215.846C54.4024 215.926 54.3632 215.986 54.2632 215.988L51.7835 216.021L51.204 220.509L53.6638 220.476C53.7638 220.475 53.8446 220.534 53.8262 220.654L53.5857 222.097C53.5668 222.178 53.5276 222.238 53.4276 222.24L50.9878 222.272L50.607 225.178C50.5883 225.278 50.5489 225.319 50.4489 225.32L48.5091 225.346C48.4091 225.348 48.3283 225.289 48.3467 225.168L48.728 222.303L46.3282 222.335L45.9474 225.241C45.9288 225.341 45.8893 225.382 45.7893 225.383L43.8695 225.409C43.7695 225.41 43.6887 225.351 43.7071 225.231L44.0884 222.366L41.6087 222.399C41.5087 222.4 41.4279 222.342 41.4462 222.221L41.6868 220.778C41.7057 220.698 41.7449 220.637 41.8449 220.636L44.3046 220.603L44.8841 216.114L42.4443 216.147C42.3443 216.149 42.2635 216.09 42.2819 215.969L42.4824 214.527C42.5014 214.446 42.5405 214.386 42.6405 214.384L45.1203 214.351L45.4822 211.526C45.5009 211.426 45.5403 211.385 45.6403 211.384L47.5601 211.358C47.6601 211.356 47.7409 211.415 47.7225 211.536L47.3601 214.321L49.7599 214.288L50.1218 211.463C50.1404 211.363 50.1799 211.322 50.2799 211.321L52.2197 211.295C52.3197 211.293 52.4005 211.352 52.3821 211.473L52.0197 214.258ZM47.1239 216.084L46.5444 220.572L48.9442 220.54L49.5237 216.052L47.1239 216.084ZM61.5891 214.969C61.628 214.888 61.6877 214.867 61.7677 214.866L63.8075 214.839C63.9275 214.837 63.9886 214.916 63.9102 215.037L61.0274 219.297L64.5438 224.93C64.6054 225.049 64.5665 225.129 64.4465 225.131L61.9867 225.164C61.9068 225.165 61.8462 225.126 61.8051 225.047L60.8217 223.32L59.1646 220.582L57.7048 220.602L57.805 225.061C57.8066 225.181 57.7471 225.221 57.6471 225.223L55.5073 225.252C55.4073 225.253 55.3468 225.214 55.3452 225.094L55.3366 220.014L55.2105 215.115C55.2088 214.995 55.2683 214.954 55.3683 214.953L57.5081 214.924C57.6081 214.922 57.6686 214.962 57.6702 215.082L57.6815 218.882L59.1414 218.862L61.5891 214.969ZM70.4122 214.55C73.2519 214.511 74.8031 216.81 74.8436 219.81C74.8838 222.79 73.2764 225.212 70.5166 225.249C69.1768 225.267 68.1298 224.761 67.4169 223.811L67.518 228.33C67.5196 228.45 67.4601 228.491 67.3601 228.492L65.2203 228.521C65.1203 228.522 65.0598 228.483 65.0582 228.363L65.0156 220.763L64.8775 214.984C64.8759 214.864 64.9354 214.823 65.0354 214.822L67.1352 214.794C67.2352 214.792 67.2957 214.832 67.2973 214.952L67.2743 216.212C67.9605 215.183 69.0323 214.568 70.4122 214.55ZM69.8346 223.618C71.5944 223.594 72.4357 222.203 72.4057 219.983C72.3736 217.603 71.4945 216.195 69.7946 216.218C68.1748 216.24 67.2513 217.472 67.2635 219.853C67.2762 222.273 68.2147 223.64 69.8346 223.618ZM82.9523 215.9L82.8767 214.741C82.8751 214.621 82.9345 214.58 83.0345 214.579L85.1543 214.55C85.2543 214.549 85.3148 214.588 85.3165 214.708L85.3232 219.649L85.4512 224.687C85.4528 224.807 85.3934 224.848 85.2934 224.85L83.1936 224.878C83.0936 224.879 83.033 224.84 83.0314 224.72L83.0544 223.46C82.3682 224.489 81.2964 225.104 79.9166 225.122C77.0568 225.161 75.5256 222.861 75.4851 219.862C75.4449 216.882 77.0523 214.46 79.8121 214.423C81.172 214.404 82.2389 214.91 82.9523 215.9ZM80.5344 223.474C82.1542 223.452 83.0777 222.219 83.0653 219.819C83.0523 217.379 82.114 216.032 80.4939 216.034C78.7338 216.037 77.8928 217.449 77.923 219.689C77.9552 222.068 78.8348 223.517 80.5344 223.474ZM91.3187 225.008C88.119 225.051 86.2508 222.976 86.2068 219.717C86.1628 216.457 87.9735 214.272 91.2132 214.229C93.8129 214.194 95.4725 215.631 95.7225 217.848C95.7438 217.948 95.6846 218.009 95.5846 218.01L93.6648 218.036C93.5648 218.037 93.5243 217.998 93.5029 217.898C93.2446 216.541 92.3752 215.853 91.2353 215.869C89.4557 215.913 88.6334 217.224 88.6663 219.664C88.7001 222.163 89.5767 223.392 91.3368 223.388C92.637 223.39 93.5253 222.518 93.6248 220.997C93.6434 220.896 93.7026 220.836 93.8026 220.834L95.7624 220.808C95.8624 220.806 95.9232 220.866 95.9043 220.946C95.7359 223.288 93.9985 224.972 91.3187 225.008ZM101.554 224.87C98.2939 224.914 96.4257 222.839 96.3817 219.579C96.3377 216.32 98.1483 214.135 101.408 214.091C104.648 214.047 106.496 216.142 106.54 219.402C106.584 222.642 104.793 224.826 101.554 224.87ZM101.532 223.25C103.272 223.227 104.094 221.955 104.061 219.476C104.028 217.016 103.15 215.688 101.41 215.711C99.6303 215.755 98.8082 217.086 98.8414 219.546C98.8749 222.026 99.7719 223.274 101.532 223.25ZM106.251 214.426C106.25 214.326 106.309 214.265 106.409 214.263L115.448 214.141C115.548 214.14 115.609 214.199 115.61 214.299L115.629 215.699C115.631 215.799 115.571 215.86 115.471 215.861L112.152 215.906L112.177 219.246L112.285 224.325C112.287 224.445 112.227 224.486 112.127 224.487L109.988 224.516C109.888 224.517 109.827 224.478 109.826 224.358L109.817 219.278L109.732 215.939L106.432 215.983C106.332 215.985 106.271 215.926 106.27 215.826L106.251 214.426ZM122.929 215.361L122.854 214.201C122.852 214.081 122.911 214.041 123.011 214.039L125.131 214.011C125.231 214.009 125.292 214.049 125.293 214.169L125.3 219.109L125.428 224.148C125.43 224.268 125.37 224.308 125.27 224.31L123.17 224.338C123.07 224.339 123.01 224.3 123.008 224.18L123.031 222.92C122.345 223.949 121.273 224.564 119.893 224.582C117.034 224.621 115.502 222.321 115.462 219.322C115.422 216.342 117.029 213.92 119.789 213.883C121.149 213.864 122.216 214.37 122.929 215.361ZM120.511 222.934C122.131 222.912 123.054 221.679 123.042 219.279C123.029 216.839 122.091 215.492 120.471 215.494C118.711 215.498 117.87 216.909 117.9 219.149C117.932 221.529 118.812 222.977 120.511 222.934Z" fill="#1B1B1B"/>
</g>
<g filter="url(#filter5_d_2184_235)">
<rect x="451" y="153.292" width="106" height="51" rx="25.5" transform="rotate(-7.74916 451 153.292)" fill="white" shape-rendering="crispEdges"/>
<path d="M486.267 169.646L488.685 169.317C488.784 169.304 488.871 169.353 488.867 169.474L488.844 170.931C488.835 171.013 488.803 171.078 488.704 171.091L486.247 171.425L486.216 175.951L488.654 175.619C488.753 175.606 488.84 175.654 488.837 175.776L488.773 177.238C488.764 177.32 488.733 177.385 488.634 177.398L486.216 177.727L486.191 180.657C486.184 180.759 486.15 180.804 486.051 180.817L484.129 181.079C484.03 181.093 483.942 181.044 483.946 180.922L483.977 178.032L481.598 178.355L481.573 181.286C481.567 181.387 481.533 181.432 481.434 181.446L479.531 181.705C479.432 181.718 479.345 181.67 479.348 181.548L479.379 178.657L476.922 178.992C476.823 179.005 476.735 178.957 476.739 178.835L476.802 177.373C476.811 177.291 476.843 177.226 476.942 177.213L479.379 176.881L479.41 172.356L476.992 172.685C476.893 172.698 476.805 172.65 476.809 172.528L476.833 171.071C476.842 170.989 476.873 170.925 476.972 170.911L479.43 170.577L479.446 167.729C479.452 167.627 479.487 167.582 479.586 167.568L481.488 167.309C481.587 167.296 481.675 167.345 481.671 167.466L481.649 170.275L484.027 169.951L484.044 167.103C484.05 167.001 484.084 166.956 484.183 166.943L486.106 166.681C486.205 166.668 486.292 166.716 486.288 166.838L486.267 169.646ZM481.629 172.054L481.599 176.579L483.977 176.255L484.007 171.73L481.629 172.054ZM495.852 169.19C495.881 169.105 495.937 169.077 496.017 169.066L498.038 168.791C498.157 168.775 498.227 168.846 498.164 168.976L495.82 173.554L499.994 178.718C500.07 178.829 500.041 178.914 499.922 178.93L497.485 179.262C497.405 179.272 497.341 179.241 497.29 179.167L496.104 177.572L494.127 175.056L492.68 175.253L493.321 179.667C493.337 179.786 493.283 179.833 493.184 179.847L491.064 180.135C490.965 180.149 490.9 180.117 490.884 179.998L490.258 174.957L489.538 170.11C489.522 169.991 489.576 169.943 489.675 169.929L491.795 169.641C491.895 169.627 491.959 169.659 491.976 169.778L492.448 173.549L493.895 173.352L495.852 169.19ZM506.356 171.717L505.796 167.897C505.78 167.778 505.834 167.731 505.933 167.717L508.034 167.431C508.133 167.418 508.198 167.449 508.214 167.568L508.815 172.431L509.56 177.457C509.576 177.576 509.522 177.624 509.423 177.637L507.322 177.923C507.223 177.936 507.158 177.905 507.142 177.786L506.588 173.421L502.248 174.011L502.881 178.366C502.897 178.485 502.843 178.532 502.744 178.546L500.644 178.832C500.544 178.845 500.48 178.814 500.463 178.695L499.838 173.653L499.118 168.806C499.102 168.687 499.156 168.639 499.255 168.626L501.355 168.34C501.454 168.326 501.519 168.358 501.535 168.477L502.016 172.307L506.356 171.717ZM512.616 174.599L515.753 166.502C515.782 166.417 515.836 166.369 515.915 166.359L518.412 166.019C518.511 166.005 518.576 166.037 518.592 166.156L519.193 171.019L519.938 176.045C519.954 176.164 519.9 176.211 519.801 176.225L517.74 176.505C517.641 176.519 517.576 176.487 517.56 176.368L516.908 171.431L516.628 168.926L513.503 176.961C513.474 177.045 513.42 177.093 513.34 177.104L510.824 177.446C510.725 177.46 510.66 177.428 510.643 177.31L509.985 172.171L509.278 167.423C509.262 167.304 509.316 167.257 509.415 167.243L511.496 166.96C511.595 166.947 511.66 166.978 511.676 167.097L512.309 171.896L512.616 174.599ZM519.671 166.009C519.654 165.89 519.708 165.843 519.807 165.829L526.228 164.955C526.327 164.942 526.395 164.993 526.408 165.092L526.597 166.479C526.611 166.579 526.559 166.646 526.46 166.66L522.299 167.226L522.729 170.538L523.454 175.566C523.47 175.685 523.416 175.733 523.317 175.746L521.196 176.035C521.097 176.048 521.032 176.017 521.016 175.898L520.391 170.856L519.671 166.009ZM530.421 172.176L533.558 164.079C533.586 163.994 533.64 163.947 533.72 163.936L536.217 163.596C536.316 163.583 536.381 163.614 536.397 163.733L536.998 168.596L537.742 173.622C537.759 173.741 537.705 173.789 537.606 173.802L535.545 174.082C535.445 174.096 535.381 174.064 535.364 173.946L534.713 169.008L534.432 166.503L531.307 174.538C531.278 174.623 531.224 174.67 531.145 174.681L528.628 175.024C528.529 175.037 528.464 175.006 528.448 174.887L527.789 169.749L527.083 165.001C527.066 164.882 527.121 164.834 527.22 164.82L529.3 164.537C529.4 164.524 529.464 164.555 529.481 164.674L530.113 169.473L530.421 172.176Z" fill="#1B1B1B"/>
</g>
<g filter="url(#filter6_d_2184_235)">
<rect x="483.402" y="319" width="102" height="51" rx="25.5" transform="rotate(9.48378 483.402 319)" fill="white" shape-rendering="crispEdges"/>
<path d="M512.241 345.068L514.648 345.47C514.746 345.487 514.815 345.559 514.776 345.674L514.322 347.058C514.289 347.134 514.239 347.186 514.141 347.17L511.695 346.761L510.325 351.074L512.752 351.48C512.85 351.496 512.919 351.569 512.88 351.684L512.386 353.061C512.353 353.137 512.304 353.189 512.205 353.173L509.799 352.771L508.906 355.562C508.87 355.657 508.824 355.69 508.726 355.674L506.812 355.354C506.713 355.338 506.644 355.265 506.684 355.15L507.569 352.399L505.202 352.003L504.31 354.794C504.274 354.89 504.228 354.922 504.129 354.906L502.235 354.59C502.137 354.573 502.068 354.501 502.107 354.386L502.993 351.634L500.547 351.225C500.448 351.209 500.379 351.137 500.419 351.021L500.912 349.644C500.945 349.568 500.995 349.516 501.093 349.532L503.52 349.938L504.889 345.624L502.482 345.222C502.384 345.206 502.315 345.133 502.354 345.018L502.808 343.634C502.841 343.559 502.891 343.506 502.989 343.523L505.435 343.931L506.295 341.216C506.331 341.12 506.377 341.087 506.475 341.104L508.369 341.42C508.468 341.437 508.537 341.509 508.497 341.624L507.645 344.3L510.012 344.696L510.871 341.98C510.907 341.885 510.953 341.852 511.052 341.868L512.966 342.188C513.064 342.205 513.133 342.277 513.094 342.392L512.241 345.068ZM507.098 345.993L505.729 350.307L508.096 350.702L509.466 346.389L507.098 345.993ZM519.654 354.823L523.658 347.847C523.691 347.772 523.777 347.745 523.855 347.759L526.459 348.194C526.558 348.21 526.611 348.259 526.591 348.378L525.721 353.342L524.946 358.221C524.927 358.34 524.861 358.369 524.762 358.353L522.79 358.023C522.691 358.007 522.638 357.957 522.658 357.839L523.439 353.285L523.841 351.122L523.96 350.412L519.949 357.427C519.916 357.503 519.831 357.529 519.752 357.516L518.371 357.285C518.292 357.272 518.22 357.219 518.213 357.137L516.658 349.091L516.539 349.923L516.239 352.083L515.497 356.643C515.478 356.761 515.412 356.791 515.313 356.774L513.715 356.507C513.617 356.491 513.564 356.442 513.584 356.323L514.457 351.461L515.248 346.483C515.268 346.364 515.334 346.335 515.432 346.351L517.997 346.78C518.076 346.793 518.148 346.846 518.154 346.928L519.654 354.823ZM530.717 359.591C527.502 359.054 526.033 356.679 526.57 353.464C527.107 350.248 529.278 348.421 532.493 348.958C535.689 349.492 537.135 351.883 536.598 355.098C536.064 358.294 533.913 360.125 530.717 359.591ZM530.984 357.993C532.7 358.28 533.737 357.175 534.145 354.729C534.55 352.303 533.923 350.839 532.207 350.553C530.448 350.279 529.402 351.443 528.997 353.869C528.588 356.315 529.248 357.703 530.984 357.993ZM546.596 351.557C546.695 351.574 546.744 351.643 546.728 351.742L545.943 356.437L545.436 360.083L546.599 360.277C546.698 360.294 546.747 360.363 546.731 360.461L546.095 364.269C546.078 364.367 546.009 364.416 545.911 364.4L544.155 364.107C544.056 364.09 544.004 364.041 544.024 363.923L544.347 361.624L537.64 360.504L537.198 362.782C537.178 362.901 537.113 362.93 537.014 362.914L535.219 362.614C535.12 362.597 535.071 362.528 535.087 362.43L535.723 358.622C535.74 358.524 535.809 358.475 535.908 358.491L536.578 358.603C537.2 358.159 537.644 357.321 537.98 356.161C538.349 354.924 538.849 352.778 539.291 350.499C539.307 350.401 539.376 350.351 539.475 350.368L546.596 351.557ZM543.068 359.687L543.678 356.038L544.146 352.872L541.01 352.348C540.674 353.873 540.301 355.494 540.015 356.48C539.679 357.641 539.294 358.367 538.827 358.979L543.068 359.687ZM555.275 354.345L555.407 353.191C555.426 353.073 555.492 353.043 555.591 353.06L557.682 353.409C557.78 353.426 557.833 353.475 557.813 353.593L556.94 358.456L556.169 363.437C556.149 363.555 556.083 363.585 555.985 363.569L553.913 363.222C553.815 363.206 553.762 363.157 553.782 363.038L554.029 361.802C553.171 362.693 552.006 363.107 550.645 362.879C547.824 362.408 546.727 359.873 547.221 356.914C547.712 353.974 549.725 351.877 552.448 352.332C553.789 352.556 554.749 353.244 555.275 354.345ZM551.547 361.367C553.145 361.634 554.273 360.586 554.688 358.222C555.11 355.818 554.426 354.325 552.832 354.039C551.099 353.729 550.02 354.968 549.651 357.178C549.259 359.525 549.867 361.107 551.547 361.367Z" fill="#1B1B1B"/>
</g>
<g filter="url(#filter7_d_2184_235)">
<rect x="175" y="400" width="271" height="51" rx="25.5" fill="white" shape-rendering="crispEdges"/>
<path d="M207.74 420.96H210.18C210.28 420.96 210.36 421.02 210.34 421.14L210.12 422.58C210.1 422.66 210.06 422.72 209.96 422.72H207.48L206.84 427.2H209.3C209.4 427.2 209.48 427.26 209.46 427.38L209.2 428.82C209.18 428.9 209.14 428.96 209.04 428.96H206.6L206.18 431.86C206.16 431.96 206.12 432 206.02 432H204.08C203.98 432 203.9 431.94 203.92 431.82L204.34 428.96H201.94L201.52 431.86C201.5 431.96 201.46 432 201.36 432H199.44C199.34 432 199.26 431.94 199.28 431.82L199.7 428.96H197.22C197.12 428.96 197.04 428.9 197.06 428.78L197.32 427.34C197.34 427.26 197.38 427.2 197.48 427.2H199.94L200.58 422.72H198.14C198.04 422.72 197.96 422.66 197.98 422.54L198.2 421.1C198.22 421.02 198.26 420.96 198.36 420.96H200.84L201.24 418.14C201.26 418.04 201.3 418 201.4 418H203.32C203.42 418 203.5 418.06 203.48 418.18L203.08 420.96H205.48L205.88 418.14C205.9 418.04 205.94 418 206.04 418H207.98C208.08 418 208.16 418.06 208.14 418.18L207.74 420.96ZM202.82 422.72L202.18 427.2H204.58L205.22 422.72H202.82ZM215.699 432.24C212.499 432.24 210.659 430.14 210.659 426.88C210.659 423.62 212.499 421.46 215.739 421.46C218.339 421.46 219.979 422.92 220.199 425.14C220.219 425.24 220.159 425.3 220.059 425.3H218.139C218.039 425.3 217.999 425.26 217.979 425.16C217.739 423.8 216.879 423.1 215.739 423.1C213.959 423.12 213.119 424.42 213.119 426.86C213.119 429.36 213.979 430.6 215.739 430.62C217.039 430.64 217.939 429.78 218.059 428.26C218.079 428.16 218.139 428.1 218.239 428.1H220.199C220.299 428.1 220.359 428.16 220.339 428.24C220.139 430.58 218.379 432.24 215.699 432.24ZM221.075 421.86C221.075 421.74 221.135 421.7 221.235 421.7H229.935C230.035 421.7 230.095 421.74 230.095 421.86L230.055 426.76L230.095 431.84C230.095 431.96 230.035 432 229.935 432H227.795C227.695 432 227.635 431.96 227.635 431.84L227.695 426.76L227.675 423.42H223.515L223.495 426.76L223.535 431.84C223.535 431.96 223.475 432 223.375 432H221.235C221.135 432 221.075 431.96 221.075 431.84L221.135 426.76L221.075 421.86ZM236.032 432.24C232.772 432.24 230.932 430.14 230.932 426.88C230.932 423.62 232.772 421.46 236.032 421.46C239.272 421.46 241.092 423.58 241.092 426.84C241.092 430.08 239.272 432.24 236.032 432.24ZM236.032 430.62C237.772 430.62 238.612 429.36 238.612 426.88C238.612 424.42 237.752 423.08 236.012 423.08C234.232 423.1 233.392 424.42 233.392 426.88C233.392 429.36 234.272 430.62 236.032 430.62ZM247.455 421.5C250.295 421.5 251.815 423.82 251.815 426.82C251.815 429.8 250.175 432.2 247.415 432.2C246.075 432.2 245.035 431.68 244.335 430.72L244.375 435.24C244.375 435.36 244.315 435.4 244.215 435.4H242.075C241.975 435.4 241.915 435.36 241.915 435.24L241.975 427.64L241.915 421.86C241.915 421.74 241.975 421.7 242.075 421.7H244.175C244.275 421.7 244.335 421.74 244.335 421.86L244.295 423.12C244.995 422.1 246.075 421.5 247.455 421.5ZM246.755 430.56C248.515 430.56 249.375 429.18 249.375 426.96C249.375 424.58 248.515 423.16 246.815 423.16C245.195 423.16 244.255 424.38 244.235 426.76C244.215 429.18 245.135 430.56 246.755 430.56ZM251.593 421.86C251.593 421.76 251.653 421.7 251.753 421.7H260.793C260.893 421.7 260.953 421.76 260.953 421.86V423.26C260.953 423.36 260.893 423.42 260.793 423.42H257.473L257.453 426.76L257.493 431.84C257.493 431.96 257.433 432 257.333 432H255.193C255.093 432 255.033 431.96 255.033 431.84L255.093 426.76L255.053 423.42H251.753C251.653 423.42 251.593 423.36 251.593 423.26V421.86ZM263.982 429.42L268.182 421.82C268.222 421.74 268.282 421.7 268.362 421.7H270.882C270.982 421.7 271.042 421.74 271.042 421.86L270.982 426.76L271.042 431.84C271.042 431.96 270.982 432 270.882 432H268.802C268.702 432 268.642 431.96 268.642 431.84L268.662 426.86L268.722 424.34L264.542 431.88C264.502 431.96 264.442 432 264.362 432H261.822C261.722 432 261.662 431.96 261.662 431.84L261.702 426.66L261.642 421.86C261.642 421.74 261.702 421.7 261.802 421.7H263.902C264.002 421.7 264.062 421.74 264.062 421.86L264.042 426.7L263.982 429.42ZM278.71 426.48V426.5C280.43 426.88 281.15 427.74 281.15 429.1C281.15 431.64 278.41 432 276.77 432H272.29C272.19 432 272.13 431.96 272.13 431.84L272.19 426.76L272.15 421.86C272.15 421.74 272.21 421.7 272.31 421.7H276.73C279.35 421.7 280.85 422.5 280.85 424.24C280.85 425.48 280.01 426.18 278.71 426.48ZM276.71 423.3H274.53L274.51 425.84H276.71C277.79 425.84 278.43 425.44 278.43 424.56C278.43 423.72 277.75 423.3 276.71 423.3ZM274.51 427.4L274.53 430.4H276.73C277.93 430.4 278.71 429.94 278.71 428.9C278.71 427.86 277.83 427.4 276.73 427.4H274.51ZM288.656 425.72L288.616 421.86C288.616 421.74 288.676 421.7 288.776 421.7H290.896C290.996 421.7 291.056 421.74 291.056 421.86L290.996 426.76L291.056 431.84C291.056 431.96 290.996 432 290.896 432H288.776C288.676 432 288.616 431.96 288.616 431.84L288.656 427.44H284.276L284.316 431.84C284.316 431.96 284.256 432 284.156 432H282.036C281.936 432 281.876 431.96 281.876 431.84L281.936 426.76L281.876 421.86C281.876 421.74 281.936 421.7 282.036 421.7H284.156C284.256 421.7 284.316 421.74 284.316 421.86L284.276 425.72H288.656ZM294.45 421.68C294.55 421.68 294.61 421.72 294.61 421.84L294.57 425.36H296.07C299.09 425.36 300.67 426.4 300.67 428.66C300.67 430.94 299.07 432 296.07 432H294.59V432.02H292.29C292.19 432.02 292.13 431.98 292.13 431.86L292.19 426.84L292.15 421.84C292.15 421.72 292.21 421.68 292.31 421.68H294.45ZM301.41 426.94L301.35 421.86C301.35 421.74 301.41 421.7 301.51 421.7H303.65C303.75 421.7 303.81 421.74 303.81 421.86L303.77 426.94L303.81 431.84C303.81 431.96 303.75 432 303.65 432H301.51C301.41 432 301.35 431.96 301.35 431.84L301.41 426.94ZM294.55 426.96L294.57 430.4H296.09C297.45 430.4 298.23 429.9 298.23 428.72C298.23 427.6 297.61 426.96 296.09 426.96H294.55ZM309.783 430.62C311.043 430.62 311.863 429.96 312.163 428.6C312.183 428.5 312.243 428.46 312.323 428.46H314.323C314.423 428.46 314.503 428.52 314.483 428.62C314.183 430.64 312.503 432.24 309.743 432.24C306.423 432.24 304.643 430.02 304.643 426.88C304.643 423.64 306.523 421.46 309.663 421.46C312.863 421.46 314.663 423.6 314.723 427.1C314.723 427.2 314.663 427.26 314.563 427.26H307.043C307.143 429.52 308.043 430.62 309.783 430.62ZM309.683 423.06C308.223 423.06 307.383 423.98 307.123 425.7H312.123C312.043 424.3 311.263 423.06 309.683 423.06ZM326.206 423.02L326.146 421.86C326.146 421.74 326.206 421.7 326.306 421.7H328.426C328.526 421.7 328.586 421.74 328.586 421.86L328.526 426.8L328.586 431.84C328.586 431.96 328.526 432 328.426 432H326.326C326.226 432 326.166 431.96 326.166 431.84L326.206 430.58C325.506 431.6 324.426 432.2 323.046 432.2C320.186 432.2 318.686 429.88 318.686 426.88C318.686 423.9 320.326 421.5 323.086 421.5C324.446 421.5 325.506 422.02 326.206 423.02ZM323.686 430.56C325.306 430.56 326.246 429.34 326.266 426.94C326.286 424.5 325.366 423.14 323.746 423.12C321.986 423.1 321.126 424.5 321.126 426.74C321.126 429.12 321.986 430.58 323.686 430.56ZM336.249 426.48V426.5C337.969 426.88 338.689 427.74 338.689 429.1C338.689 431.64 335.949 432 334.309 432H329.829C329.729 432 329.669 431.96 329.669 431.84L329.729 426.76L329.689 421.86C329.689 421.74 329.749 421.7 329.849 421.7H334.269C336.889 421.7 338.389 422.5 338.389 424.24C338.389 425.48 337.549 426.18 336.249 426.48ZM334.249 423.3H332.069L332.049 425.84H334.249C335.329 425.84 335.969 425.44 335.969 424.56C335.969 423.72 335.289 423.3 334.249 423.3ZM332.049 427.4L332.069 430.4H334.269C335.469 430.4 336.249 429.94 336.249 428.9C336.249 427.86 335.369 427.4 334.269 427.4H332.049ZM338.82 421.86C338.82 421.76 338.88 421.7 338.98 421.7H348.02C348.12 421.7 348.18 421.76 348.18 421.86V423.26C348.18 423.36 348.12 423.42 348.02 423.42H344.7L344.68 426.76L344.72 431.84C344.72 431.96 344.66 432 344.56 432H342.42C342.32 432 342.26 431.96 342.26 431.84L342.32 426.76L342.28 423.42H338.98C338.88 423.42 338.82 423.36 338.82 423.26V421.86ZM353.064 432.24C349.804 432.24 347.964 430.14 347.964 426.88C347.964 423.62 349.804 421.46 353.064 421.46C356.304 421.46 358.124 423.58 358.124 426.84C358.124 430.08 356.304 432.24 353.064 432.24ZM353.064 430.62C354.804 430.62 355.644 429.36 355.644 426.88C355.644 424.42 354.784 423.08 353.044 423.08C351.264 423.1 350.424 424.42 350.424 426.88C350.424 429.36 351.304 430.62 353.064 430.62ZM364.686 429.36L367.486 421.82C367.506 421.74 367.586 421.7 367.666 421.7H370.306C370.406 421.7 370.466 421.74 370.466 421.86L370.426 426.9L370.466 431.84C370.466 431.96 370.406 432 370.306 432H368.306C368.206 432 368.146 431.96 368.146 431.84L368.166 427.22L368.206 425.02V424.3L365.406 431.88C365.386 431.96 365.306 432 365.226 432H363.826C363.746 432 363.666 431.96 363.646 431.88L360.786 424.2L360.806 425.04L360.866 427.22L360.886 431.84C360.886 431.96 360.826 432 360.726 432H359.106C359.006 432 358.946 431.96 358.946 431.84L359.006 426.9L358.966 421.86C358.966 421.74 359.026 421.7 359.126 421.7H361.726C361.806 421.7 361.886 421.74 361.906 421.82L364.686 429.36ZM376.384 432.24C373.124 432.24 371.284 430.14 371.284 426.88C371.284 423.62 373.124 421.46 376.384 421.46C379.624 421.46 381.444 423.58 381.444 426.84C381.444 430.08 379.624 432.24 376.384 432.24ZM376.384 430.62C378.124 430.62 378.964 429.36 378.964 426.88C378.964 424.42 378.104 423.08 376.364 423.08C374.584 423.1 373.744 424.42 373.744 426.88C373.744 429.36 374.624 430.62 376.384 430.62ZM387.943 422.1C390.843 422.1 392.223 424.3 392.223 427.02C392.223 430.18 390.343 432.22 387.223 432.22C384.043 432.22 382.263 430.04 382.263 425.84C382.263 421.76 383.643 419.2 386.883 418.58C388.063 418.36 390.123 418.26 391.463 418.02C391.583 418 391.643 418.06 391.643 418.16V419.7C391.643 419.78 391.603 419.86 391.503 419.88C390.183 420.14 388.183 420.24 387.203 420.44C385.243 420.82 384.483 422.14 384.263 424.3C384.923 422.92 386.143 422.1 387.943 422.1ZM387.243 430.58C388.863 430.58 389.763 429.36 389.763 427.2C389.763 425.02 388.883 423.74 387.283 423.74C385.683 423.74 384.703 424.98 384.703 427.2C384.703 429.3 385.603 430.58 387.243 430.58ZM395.388 429.42L399.588 421.82C399.628 421.74 399.688 421.7 399.768 421.7H402.288C402.388 421.7 402.448 421.74 402.448 421.86L402.388 426.76L402.448 431.84C402.448 431.96 402.388 432 402.288 432H400.208C400.108 432 400.048 431.96 400.048 431.84L400.068 426.86L400.128 424.34L395.948 431.88C395.908 431.96 395.848 432 395.768 432H393.228C393.128 432 393.068 431.96 393.068 431.84L393.108 426.66L393.048 421.86C393.048 421.74 393.108 421.7 393.208 421.7H395.308C395.408 421.7 395.468 421.74 395.468 421.86L395.448 426.7L395.388 429.42ZM412.737 421.7C412.837 421.7 412.897 421.74 412.897 421.86L412.877 426.92L412.937 431.84C412.937 431.96 412.877 432 412.777 432H410.657C410.557 432 410.497 431.96 410.497 431.84L410.517 426.92L410.457 423.42H407.277C407.197 425 407.077 427.36 406.957 428.68C406.737 430.86 406.197 432.2 404.157 432.2C403.737 432.2 403.437 432.14 403.217 432.06C403.137 432.04 403.097 431.96 403.097 431.88V430.58C403.097 430.48 403.157 430.42 403.277 430.44C403.397 430.46 403.537 430.48 403.657 430.48C404.457 430.48 404.777 430.02 404.917 428.42C405.057 426.96 405.177 424.02 405.237 421.86C405.237 421.76 405.297 421.7 405.397 421.7H412.737ZM416.364 429.42L420.564 421.82C420.604 421.74 420.664 421.7 420.744 421.7H423.264C423.364 421.7 423.424 421.74 423.424 421.86L423.364 426.76L423.424 431.84C423.424 431.96 423.364 432 423.264 432H421.184C421.084 432 421.024 431.96 421.024 431.84L421.044 426.86L421.104 424.34L416.924 431.88C416.884 431.96 416.824 432 416.744 432H414.204C414.104 432 414.044 431.96 414.044 431.84L414.084 426.66L414.024 421.86C414.024 421.74 414.084 421.7 414.184 421.7H416.284C416.384 421.7 416.444 421.74 416.444 421.86L416.424 426.7L416.364 429.42Z" fill="#1B1B1B"/>
</g>
<g filter="url(#filter8_d_2184_235)">
<circle cx="282.5" cy="35.5" r="28.5" fill="white"/>
</g>
<path d="M283.001 32.4C282.046 32.4 281.131 32.7793 280.456 33.4544C279.78 34.1295 279.401 35.0452 279.401 36C279.401 36.9548 279.78 37.8705 280.456 38.5456C281.131 39.2207 282.046 39.6 283.001 39.6C283.956 39.6 284.872 39.2207 285.547 38.5456C286.222 37.8705 286.601 36.9548 286.601 36C286.601 35.0452 286.222 34.1295 285.547 33.4544C284.872 32.7793 283.956 32.4 283.001 32.4ZM283.001 30C284.592 30 286.119 30.6321 287.244 31.7574C288.369 32.8826 289.001 34.4087 289.001 36C289.001 37.5913 288.369 39.1174 287.244 40.2426C286.119 41.3679 284.592 42 283.001 42C281.41 42 279.884 41.3679 278.759 40.2426C277.633 39.1174 277.001 37.5913 277.001 36C277.001 34.4087 277.633 32.8826 278.759 31.7574C279.884 30.6321 281.41 30 283.001 30ZM290.801 29.7C290.801 30.0978 290.643 30.4794 290.362 30.7607C290.081 31.042 289.699 31.2 289.301 31.2C288.903 31.2 288.522 31.042 288.241 30.7607C287.959 30.4794 287.801 30.0978 287.801 29.7C287.801 29.3022 287.959 28.9206 288.241 28.6393C288.522 28.358 288.903 28.2 289.301 28.2C289.699 28.2 290.081 28.358 290.362 28.6393C290.643 28.9206 290.801 29.3022 290.801 29.7ZM283.001 26.4C280.032 26.4 279.548 26.4084 278.166 26.4696C277.226 26.514 276.594 26.64 276.009 26.868C275.519 27.0484 275.076 27.3368 274.713 27.7116C274.338 28.0747 274.049 28.5177 273.868 29.0076C273.64 29.5956 273.514 30.2256 273.471 31.1652C273.408 32.49 273.4 32.9532 273.4 36C273.4 38.97 273.408 39.4536 273.47 40.8348C273.514 41.7744 273.64 42.4068 273.867 42.9912C274.071 43.5132 274.311 43.8888 274.709 44.2872C275.114 44.6904 275.489 44.9316 276.005 45.1308C276.598 45.36 277.229 45.4872 278.165 45.5304C279.49 45.5928 279.953 45.6 283 45.6C285.97 45.6 286.454 45.5916 287.835 45.5304C288.773 45.486 289.404 45.36 289.991 45.1332C290.481 44.9528 290.924 44.6644 291.287 44.2896C291.692 43.8864 291.933 43.5108 292.132 42.9936C292.36 42.4032 292.487 41.772 292.53 40.8336C292.593 39.51 292.6 39.0456 292.6 36C292.6 33.0312 292.592 32.5464 292.53 31.1652C292.486 30.2268 292.359 29.5932 292.132 29.0076C291.952 28.5178 291.663 28.0749 291.288 27.7116C290.925 27.3363 290.482 27.0476 289.992 26.8668C289.404 26.6388 288.773 26.5128 287.835 26.4696C286.511 26.4072 286.048 26.4 283 26.4M283 24C286.26 24 286.667 24.012 287.948 24.072C289.224 24.132 290.096 24.3324 290.86 24.63C291.652 24.9348 292.319 25.3476 292.986 26.0136C293.597 26.6133 294.069 27.339 294.37 28.14C294.666 28.9044 294.868 29.7756 294.928 31.0536C294.984 32.3328 295 32.7396 295 36C295 39.2604 294.988 39.6672 294.928 40.9464C294.868 42.2256 294.666 43.0944 294.37 43.86C294.069 44.661 293.597 45.3867 292.986 45.9864C292.387 46.5968 291.661 47.069 290.86 47.37C290.096 47.6664 289.224 47.868 287.948 47.928C286.667 47.9844 286.26 48 283 48C279.74 48 279.333 47.988 278.052 47.928C276.776 47.868 275.906 47.6664 275.14 47.37C274.339 47.069 273.613 46.5968 273.014 45.9864C272.403 45.3867 271.931 44.661 271.63 43.86C271.332 43.0956 271.132 42.2244 271.072 40.9464C271.014 39.6672 271 39.2604 271 36C271 32.7396 271.012 32.3328 271.072 31.0536C271.132 29.7744 271.332 28.9056 271.63 28.14C271.931 27.339 272.403 26.6133 273.014 26.0136C273.613 25.4032 274.339 24.931 275.14 24.63C275.904 24.3324 276.774 24.132 278.052 24.072C279.334 24.0156 279.741 24 283.001 24" fill="#FF6500"/>
<defs>
<filter id="filter0_d_2184_235" x="81.6" y="72.6" width="207.565" height="111.863" filterUnits="userSpaceOnUse" color-interpolation-filters="sRGB">
<feFlood flood-opacity="0" result="BackgroundImageFix"/>
<feColorMatrix in="SourceAlpha" type="matrix" values="0 0 0 0 0 0 0 0 0 0 0 0 0 0 0 0 0 0 127 0" result="hardAlpha"/>
<feOffset dy="12"/>
<feGaussianBlur stdDeviation="9.2"/>
<feComposite in2="hardAlpha" operator="out"/>
<feColorMatrix type="matrix" values="0 0 0 0 0.6625 0 0 0 0 0.6625 0 0 0 0 0.6625 0 0 0 0.21 0"/>
<feBlend mode="normal" in2="BackgroundImageFix" result="effect1_dropShadow_2184_235"/>
<feBlend mode="normal" in="SourceGraphic" in2="effect1_dropShadow_2184_235" result="shape"/>
</filter>
<filter id="filter1_d_2184_235" x="319.6" y="72.6" width="145.8" height="87.8" filterUnits="userSpaceOnUse" color-interpolation-filters="sRGB">
<feFlood flood-opacity="0" result="BackgroundImageFix"/>
<feColorMatrix in="SourceAlpha" type="matrix" values="0 0 0 0 0 0 0 0 0 0 0 0 0 0 0 0 0 0 127 0" result="hardAlpha"/>
<feOffset dy="12"/>
<feGaussianBlur stdDeviation="9.2"/>
<feComposite in2="hardAlpha" operator="out"/>
<feColorMatrix type="matrix" values="0 0 0 0 0.6625 0 0 0 0 0.6625 0 0 0 0 0.6625 0 0 0 0.21 0"/>
<feBlend mode="normal" in2="BackgroundImageFix" result="effect1_dropShadow_2184_235"/>
<feBlend mode="normal" in="SourceGraphic" in2="effect1_dropShadow_2184_235" result="shape"/>
</filter>
<filter id="filter2_d_2184_235" x="209.6" y="157.6" width="236.419" height="134.065" filterUnits="userSpaceOnUse" color-interpolation-filters="sRGB">
<feFlood flood-opacity="0" result="BackgroundImageFix"/>
<feColorMatrix in="SourceAlpha" type="matrix" values="0 0 0 0 0 0 0 0 0 0 0 0 0 0 0 0 0 0 127 0" result="hardAlpha"/>
<feOffset dy="12"/>
<feGaussianBlur stdDeviation="9.2"/>
<feComposite in2="hardAlpha" operator="out"/>
<feColorMatrix type="matrix" values="0 0 0 0 0.6625 0 0 0 0 0.6625 0 0 0 0 0.6625 0 0 0 0.21 0"/>
<feBlend mode="normal" in2="BackgroundImageFix" result="effect1_dropShadow_2184_235"/>
<feBlend mode="normal" in="SourceGraphic" in2="effect1_dropShadow_2184_235" result="shape"/>
</filter>
<filter id="filter3_d_2184_235" x="122.6" y="265.6" width="210.8" height="87.8" filterUnits="userSpaceOnUse" color-interpolation-filters="sRGB">
<feFlood flood-opacity="0" result="BackgroundImageFix"/>
<feColorMatrix in="SourceAlpha" type="matrix" values="0 0 0 0 0 0 0 0 0 0 0 0 0 0 0 0 0 0 127 0" result="hardAlpha"/>
<feOffset dy="12"/>
<feGaussianBlur stdDeviation="9.2"/>
<feComposite in2="hardAlpha" operator="out"/>
<feColorMatrix type="matrix" values="0 0 0 0 0.6625 0 0 0 0 0.6625 0 0 0 0 0.6625 0 0 0 0.21 0"/>
<feBlend mode="normal" in2="BackgroundImageFix" result="effect1_dropShadow_2184_235"/>
<feBlend mode="normal" in="SourceGraphic" in2="effect1_dropShadow_2184_235" result="shape"/>
</filter>
<filter id="filter4_d_2184_235" x="0.6" y="185.6" width="166.477" height="89.5368" filterUnits="userSpaceOnUse" color-interpolation-filters="sRGB">
<feFlood flood-opacity="0" result="BackgroundImageFix"/>
<feColorMatrix in="SourceAlpha" type="matrix" values="0 0 0 0 0 0 0 0 0 0 0 0 0 0 0 0 0 0 127 0" result="hardAlpha"/>
<feOffset dy="12"/>
<feGaussianBlur stdDeviation="9.2"/>
<feComposite in2="hardAlpha" operator="out"/>
<feColorMatrix type="matrix" values="0 0 0 0 0.6625 0 0 0 0 0.6625 0 0 0 0 0.6625 0 0 0 0.21 0"/>
<feBlend mode="normal" in2="BackgroundImageFix" result="effect1_dropShadow_2184_235"/>
<feBlend mode="normal" in="SourceGraphic" in2="effect1_dropShadow_2184_235" result="shape"/>
</filter>
<filter id="filter5_d_2184_235" x="432.6" y="132.6" width="148.708" height="101.627" filterUnits="userSpaceOnUse" color-interpolation-filters="sRGB">
<feFlood flood-opacity="0" result="BackgroundImageFix"/>
<feColorMatrix in="SourceAlpha" type="matrix" values="0 0 0 0 0 0 0 0 0 0 0 0 0 0 0 0 0 0 127 0" result="hardAlpha"/>
<feOffset dy="12"/>
<feGaussianBlur stdDeviation="9.2"/>
<feComposite in2="hardAlpha" operator="out"/>
<feColorMatrix type="matrix" values="0 0 0 0 0.6625 0 0 0 0 0.6625 0 0 0 0 0.6625 0 0 0 0.21 0"/>
<feBlend mode="normal" in2="BackgroundImageFix" result="effect1_dropShadow_2184_235"/>
<feBlend mode="normal" in="SourceGraphic" in2="effect1_dropShadow_2184_235" result="shape"/>
</filter>
<filter id="filter6_d_2184_235" x="456.599" y="312.6" width="145.809" height="103.909" filterUnits="userSpaceOnUse" color-interpolation-filters="sRGB">
<feFlood flood-opacity="0" result="BackgroundImageFix"/>
<feColorMatrix in="SourceAlpha" type="matrix" values="0 0 0 0 0 0 0 0 0 0 0 0 0 0 0 0 0 0 127 0" result="hardAlpha"/>
<feOffset dy="12"/>
<feGaussianBlur stdDeviation="9.2"/>
<feComposite in2="hardAlpha" operator="out"/>
<feColorMatrix type="matrix" values="0 0 0 0 0.6625 0 0 0 0 0.6625 0 0 0 0 0.6625 0 0 0 0.21 0"/>
<feBlend mode="normal" in2="BackgroundImageFix" result="effect1_dropShadow_2184_235"/>
<feBlend mode="normal" in="SourceGraphic" in2="effect1_dropShadow_2184_235" result="shape"/>
</filter>
<filter id="filter7_d_2184_235" x="156.6" y="393.6" width="307.8" height="87.8" filterUnits="userSpaceOnUse" color-interpolation-filters="sRGB">
<feFlood flood-opacity="0" result="BackgroundImageFix"/>
<feColorMatrix in="SourceAlpha" type="matrix" values="0 0 0 0 0 0 0 0 0 0 0 0 0 0 0 0 0 0 127 0" result="hardAlpha"/>
<feOffset dy="12"/>
<feGaussianBlur stdDeviation="9.2"/>
<feComposite in2="hardAlpha" operator="out"/>
<feColorMatrix type="matrix" values="0 0 0 0 0.6625 0 0 0 0 0.6625 0 0 0 0 0.6625 0 0 0 0.21 0"/>
<feBlend mode="normal" in2="BackgroundImageFix" result="effect1_dropShadow_2184_235"/>
<feBlend mode="normal" in="SourceGraphic" in2="effect1_dropShadow_2184_235" result="shape"/>
</filter>
<filter id="filter8_d_2184_235" x="235.6" y="0.6" width="93.8" height="93.8" filterUnits="userSpaceOnUse" color-interpolation-filters="sRGB">
<feFlood flood-opacity="0" result="BackgroundImageFix"/>
<feColorMatrix in="SourceAlpha" type="matrix" values="0 0 0 0 0 0 0 0 0 0 0 0 0 0 0 0 0 0 127 0" result="hardAlpha"/>
<feOffset dy="12"/>
<feGaussianBlur stdDeviation="9.2"/>
<feComposite in2="hardAlpha" operator="out"/>
<feColorMatrix type="matrix" values="0 0 0 0 0.6625 0 0 0 0 0.6625 0 0 0 0 0.6625 0 0 0 0.21 0"/>
<feBlend mode="normal" in2="BackgroundImageFix" result="effect1_dropShadow_2184_235"/>
<feBlend mode="normal" in="SourceGraphic" in2="effect1_dropShadow_2184_235" result="shape"/>
</filter>
</defs>
</svg>
