<svg width="292" height="201" viewBox="0 0 292 201" fill="none" xmlns="http://www.w3.org/2000/svg">
<path d="M54.0215 103.272L84.4346 80.9276C87.8048 78.4515 89.7953 74.5192 89.7953 70.3372V51.9231V31.2376C89.7953 23.9798 95.6789 18.0962 102.937 18.0962H177.405C184.662 18.0962 190.546 23.9798 190.546 31.2376V70.1655C190.546 74.4434 188.464 78.4536 184.965 80.9146L123.435 124.189C113.536 131.151 117.513 146.659 129.54 147.999L147.5 150L238.166 165.282C239.027 165.427 239.872 165.658 240.687 165.97L252.5 170.5V170.5C259.985 172.579 266.666 165.283 263.936 158.01L234.351 79.1794" stroke="#E6E6E6" stroke-width="0.973437"/>
<g filter="url(#filter0_d_2133_3087)">
<rect x="48.4258" y="50.5283" width="80.3086" height="24.8226" rx="12.4113" transform="rotate(-8.58644 48.4258 50.5283)" fill="white" shape-rendering="crispEdges"/>
<path d="M65.6283 58.0828L66.8026 57.9055C66.8507 57.8983 66.8936 57.9213 66.8927 57.9805L66.8914 58.6895C66.8876 58.7295 66.8727 58.7613 66.8246 58.7685L65.6311 58.9488L65.6486 61.1513L66.8325 60.9726C66.8807 60.9653 66.9235 60.9884 66.9226 61.0476L66.9021 61.7595C66.8983 61.7994 66.8834 61.8312 66.8353 61.8385L65.661 62.0158L65.6696 63.442C65.6673 63.4916 65.6509 63.5137 65.6028 63.521L64.6691 63.662C64.621 63.6692 64.5782 63.6462 64.5791 63.587L64.5734 62.18L63.4183 62.3544L63.4269 63.7806C63.4246 63.8302 63.4082 63.8523 63.3601 63.8596L62.4361 63.9991C62.3879 64.0064 62.3451 63.9833 62.346 63.9241L62.3403 62.5172L61.1468 62.6974C61.0986 62.7047 61.0558 62.6816 61.0567 62.6224L61.0772 61.9105C61.081 61.8706 61.0959 61.8388 61.144 61.8315L62.3279 61.6527L62.3104 59.4502L61.1361 59.6275C61.088 59.6347 61.0451 59.6117 61.046 59.5525L61.0472 58.8435C61.051 58.8035 61.0659 58.7717 61.1141 58.7645L62.3076 58.5843L62.2952 57.198C62.2975 57.1484 62.3139 57.1263 62.362 57.119L63.286 56.9795C63.3342 56.9722 63.377 56.9953 63.3761 57.0545L63.3856 58.4215L64.5407 58.2471L64.5282 56.8608C64.5306 56.8113 64.5469 56.7891 64.5951 56.7818L65.5287 56.6409C65.5768 56.6336 65.6197 56.6567 65.6188 56.7159L65.6283 58.0828ZM63.3884 59.2874L63.4059 61.49L64.561 61.3156L64.5434 59.113L63.3884 59.2874ZM73.8804 59.7312C74.0984 61.175 73.4854 62.3308 71.623 62.7104L71.8535 64.172C71.8622 64.2298 71.8362 64.2534 71.7881 64.2606L70.7871 64.4118C70.739 64.4191 70.7072 64.4042 70.6985 64.3464L70.4872 62.8819C68.615 63.0662 67.6798 62.154 67.4633 60.7198C67.2467 59.2857 67.8761 58.1077 69.7193 57.7309L69.4573 56.1264C69.4486 56.0687 69.4745 56.0451 69.5227 56.0378L70.5237 55.8867C70.5718 55.8794 70.6036 55.8943 70.6123 55.952L70.8454 57.5609C72.8028 57.354 73.661 58.2778 73.8804 59.7312ZM68.6183 60.5454C68.7782 61.6042 69.2413 62.1939 70.382 62.1201L70.0975 60.1055L69.8341 58.4913C68.7898 58.7475 68.457 59.477 68.6183 60.5454ZM70.9521 58.3324L71.1808 59.9124L71.4985 61.9515C72.5894 61.6785 72.8823 60.9451 72.7283 59.9248C72.567 58.8564 72.035 58.2673 70.9521 58.3324ZM77.0468 61.9112C75.4779 62.148 74.4397 61.2711 74.2028 59.7022C73.9659 58.1333 74.6945 56.96 76.2634 56.7231C77.8227 56.4877 78.8527 57.3757 79.0896 58.9446C79.325 60.5039 78.6061 61.6757 77.0468 61.9112ZM76.9291 61.1315C77.7664 61.0051 78.0791 60.3376 77.8989 59.1441C77.7202 57.9602 77.2089 57.3778 76.3715 57.5042C75.5163 57.6432 75.208 58.3395 75.3867 59.5234C75.567 60.717 76.082 61.2594 76.9291 61.1315ZM78.6209 56.5641C78.6136 56.5159 78.6381 56.4827 78.6863 56.4754L83.0369 55.8185C83.085 55.8113 83.1183 55.8358 83.1255 55.8839L83.2273 56.5577C83.2345 56.6058 83.21 56.639 83.1619 56.6463L81.5641 56.8875L81.7972 58.4964L82.1856 60.9383C82.1943 60.9961 82.1683 61.0197 82.1202 61.027L81.0903 61.1825C81.0422 61.1897 81.0104 61.1748 81.0017 61.1171L80.6614 58.6679L80.3994 57.0634L78.8113 57.3032C78.7631 57.3105 78.7299 57.286 78.7226 57.2378L78.6209 56.5641ZM86.2303 60.5245C84.6613 60.7614 83.6232 59.8845 83.3863 58.3155C83.1494 56.7466 83.878 55.5734 85.4469 55.3365C87.0062 55.101 88.0361 55.9891 88.273 57.558C88.5085 59.1173 87.7895 60.2891 86.2303 60.5245ZM86.1125 59.7449C86.9499 59.6184 87.2626 58.951 87.0824 57.7574C86.9037 56.5735 86.3924 55.9911 85.555 56.1176C84.6998 56.2566 84.3915 56.9529 84.5702 58.1368C84.7504 59.3303 85.2655 59.8728 86.1125 59.7449ZM88.2789 55.1058C88.2702 55.048 88.2961 55.0244 88.3442 55.0171L91.4628 54.5463C91.511 54.539 91.5442 54.5635 91.5515 54.6116L91.6532 55.2854C91.6605 55.3335 91.6359 55.3668 91.5878 55.374L89.5665 55.6792L89.7996 57.2881L90.188 59.73C90.1967 59.7878 90.1708 59.8114 90.1226 59.8186L89.0927 59.9742C89.0446 59.9814 89.0128 59.9665 89.0041 59.9088L88.6638 57.4596L88.2789 55.1058ZM94.519 53.9863C95.8858 53.78 96.7859 54.786 97.0039 56.2298C97.2204 57.664 96.6056 58.9382 95.2773 59.1388C94.6324 59.2361 94.0941 59.0615 93.6874 58.6503L94.0351 60.8227C94.0439 60.8805 94.0179 60.9041 93.9698 60.9113L92.9399 61.0669C92.8917 61.0741 92.86 61.0592 92.8512 61.0015L92.3278 57.3395L91.8789 54.5622C91.8702 54.5044 91.8962 54.4808 91.9443 54.4736L92.955 54.3209C93.0031 54.3137 93.0349 54.3286 93.0436 54.3863L93.1159 54.9956C93.3787 54.4539 93.8548 54.0866 94.519 53.9863ZM94.8405 58.3975C95.6875 58.2696 96.0011 57.5429 95.8398 56.4745C95.6668 55.3291 95.1498 54.7082 94.3316 54.8318C93.552 54.9495 93.1882 55.6049 93.3515 56.7518C93.5178 57.9179 94.0608 58.5152 94.8405 58.3975ZM100.655 53.808L100.542 53.2541C100.533 53.1964 100.559 53.1727 100.607 53.1655L101.628 53.0114C101.676 53.0042 101.708 53.019 101.716 53.0768L102.046 55.4586L102.442 57.8798C102.45 57.9376 102.424 57.9612 102.376 57.9684L101.366 58.121C101.317 58.1283 101.286 58.1134 101.277 58.0557L101.205 57.4464C100.942 57.9881 100.466 58.3554 99.8015 58.4556C98.4251 58.6635 97.5346 57.6559 97.3166 56.2121C97.1001 54.778 97.7149 53.5038 99.0432 53.3032C99.6978 53.2044 100.246 53.3776 100.655 53.808ZM99.9904 57.6199C100.77 57.5021 101.134 56.8467 100.969 55.6902C100.801 54.5145 100.26 53.9268 99.4786 54.0349C98.6301 54.1532 98.318 54.8894 98.4807 55.9675C98.6537 57.1129 99.1737 57.753 99.9904 57.6199ZM108.894 54.4443C109.112 55.8881 108.499 57.0439 106.637 57.4236L106.867 58.8851C106.876 58.9429 106.85 58.9665 106.802 58.9738L105.801 59.1249C105.753 59.1322 105.721 59.1173 105.712 59.0596L105.501 57.5951C103.629 57.7793 102.694 56.8671 102.477 55.433C102.261 53.9988 102.89 52.8208 104.733 52.4441L104.471 50.8396C104.462 50.7818 104.488 50.7582 104.536 50.7509L105.537 50.5998C105.586 50.5925 105.617 50.6074 105.626 50.6652L105.859 52.274C107.817 52.0671 108.675 52.9909 108.894 54.4443ZM103.632 55.2586C103.792 56.3173 104.255 56.907 105.396 56.8332L105.111 54.8186L104.848 53.2045C103.804 53.4606 103.471 54.1901 103.632 55.2586ZM105.966 53.0455L106.195 54.6255L106.512 56.6646C107.603 56.3916 107.896 55.6582 107.742 54.638C107.581 53.5696 107.049 52.9804 105.966 53.0455ZM110.605 55.4559L112.075 51.4931C112.088 51.4517 112.114 51.4281 112.152 51.4223L113.365 51.2391C113.413 51.2319 113.445 51.2468 113.454 51.3045L113.781 53.6671L114.179 56.1075C114.188 56.1653 114.162 56.1889 114.114 56.1961L113.113 56.3473C113.065 56.3546 113.033 56.3397 113.024 56.2819L112.672 53.8838L112.518 52.6666L111.054 56.5991C111.04 56.6405 111.014 56.6641 110.976 56.6699L109.753 56.8545C109.705 56.8618 109.674 56.8469 109.665 56.7891L109.308 54.2933L108.93 51.9876C108.921 51.9298 108.947 51.9062 108.995 51.899L110.006 51.7464C110.054 51.7391 110.086 51.754 110.095 51.8117L110.437 54.1425L110.605 55.4559ZM116.085 50.8285L118.077 50.5277C118.125 50.5204 118.157 50.5353 118.166 50.593L118.503 52.9541L118.891 55.3961C118.9 55.4538 118.874 55.4774 118.826 55.4847L117.805 55.6387C117.757 55.646 117.725 55.6311 117.717 55.5734L117.477 53.8572L116.534 53.9996L115.814 55.8804C115.8 55.9218 115.774 55.9454 115.736 55.9512L114.706 56.1067C114.648 56.1154 114.622 56.0702 114.643 56.0177L115.506 54.0367C114.733 53.9368 114.256 53.5166 114.134 52.7081C113.975 51.6589 114.65 51.0451 116.085 50.8285ZM117.369 53.0761L117.115 51.4605L116.172 51.6029C115.537 51.6988 115.237 52.0591 115.311 52.55C115.392 53.0891 115.791 53.3144 116.416 53.2199L117.369 53.0761Z" fill="#FF6500"/>
</g>
<g filter="url(#filter1_d_2133_3087)">
<rect x="164.262" y="38.5386" width="53.0523" height="24.8226" rx="12.4113" fill="white" shape-rendering="crispEdges"/>
<path d="M180.015 48.5763H181.203C181.252 48.5763 181.291 48.6055 181.281 48.6639L181.174 49.3648C181.164 49.4038 181.145 49.433 181.096 49.433H179.889L179.577 51.6135H180.775C180.823 51.6135 180.862 51.6427 180.853 51.7011L180.726 52.4019C180.716 52.4409 180.697 52.4701 180.648 52.4701H179.461L179.256 53.8816C179.246 53.9302 179.227 53.9497 179.178 53.9497H178.234C178.185 53.9497 178.146 53.9205 178.156 53.8621L178.361 52.4701H177.192L176.988 53.8816C176.978 53.9302 176.959 53.9497 176.91 53.9497H175.976C175.927 53.9497 175.888 53.9205 175.898 53.8621L176.102 52.4701H174.895C174.846 52.4701 174.808 52.4409 174.817 52.3825L174.944 51.6816C174.954 51.6427 174.973 51.6135 175.022 51.6135H176.219L176.531 49.433H175.343C175.294 49.433 175.255 49.4038 175.265 49.3453L175.372 48.6445C175.382 48.6055 175.401 48.5763 175.45 48.5763H176.657L176.852 47.2038C176.862 47.1551 176.881 47.1356 176.93 47.1356H177.864C177.913 47.1356 177.952 47.1649 177.942 47.2233L177.747 48.5763H178.915L179.11 47.2038C179.12 47.1551 179.139 47.1356 179.188 47.1356H180.132C180.181 47.1356 180.22 47.1649 180.21 47.2233L180.015 48.5763ZM177.621 49.433L177.309 51.6135H178.477L178.789 49.433H177.621ZM183.889 54.0665C182.332 54.0665 181.436 53.0444 181.436 51.4577C181.436 49.871 182.332 48.8197 183.909 48.8197C185.174 48.8197 185.972 49.5303 186.079 50.6108C186.089 50.6595 186.06 50.6887 186.011 50.6887H185.077C185.028 50.6887 185.009 50.6692 184.999 50.6206C184.882 49.9586 184.464 49.6179 183.909 49.6179C183.042 49.6276 182.633 50.2604 182.633 51.448C182.633 52.6648 183.052 53.2683 183.909 53.278C184.541 53.2878 184.979 52.8692 185.038 52.1294C185.048 52.0807 185.077 52.0515 185.125 52.0515H186.079C186.128 52.0515 186.157 52.0807 186.148 52.1196C186.05 53.2586 185.194 54.0665 183.889 54.0665ZM186.506 49.0144C186.506 48.956 186.535 48.9365 186.584 48.9365H190.818C190.867 48.9365 190.896 48.956 190.896 49.0144L190.877 51.3993L190.896 53.8718C190.896 53.9302 190.867 53.9497 190.818 53.9497H189.777C189.728 53.9497 189.699 53.9302 189.699 53.8718L189.728 51.3993L189.718 49.7737H187.694L187.684 51.3993L187.703 53.8718C187.703 53.9302 187.674 53.9497 187.625 53.9497H186.584C186.535 53.9497 186.506 53.9302 186.506 53.8718L186.535 51.3993L186.506 49.0144ZM193.786 54.0665C192.199 54.0665 191.304 53.0444 191.304 51.4577C191.304 49.871 192.199 48.8197 193.786 48.8197C195.363 48.8197 196.249 49.8515 196.249 51.4382C196.249 53.0152 195.363 54.0665 193.786 54.0665ZM193.786 53.278C194.633 53.278 195.042 52.6648 195.042 51.4577C195.042 50.2604 194.623 49.6082 193.776 49.6082C192.91 49.6179 192.501 50.2604 192.501 51.4577C192.501 52.6648 192.929 53.278 193.786 53.278ZM199.345 48.8392C200.728 48.8392 201.468 49.9683 201.468 51.4285C201.468 52.8789 200.669 54.0471 199.326 54.0471C198.674 54.0471 198.168 53.794 197.827 53.3267L197.846 55.5267C197.846 55.5851 197.817 55.6046 197.769 55.6046H196.727C196.678 55.6046 196.649 55.5851 196.649 55.5267L196.678 51.8276L196.649 49.0144C196.649 48.956 196.678 48.9365 196.727 48.9365H197.749C197.798 48.9365 197.827 48.956 197.827 49.0144L197.807 49.6276C198.148 49.1312 198.674 48.8392 199.345 48.8392ZM199.005 53.2488C199.861 53.2488 200.28 52.5772 200.28 51.4966C200.28 50.3383 199.861 49.6471 199.034 49.6471C198.245 49.6471 197.788 50.2409 197.778 51.3993C197.769 52.5772 198.216 53.2488 199.005 53.2488ZM201.36 49.0144C201.36 48.9657 201.389 48.9365 201.437 48.9365H205.837C205.886 48.9365 205.915 48.9657 205.915 49.0144V49.6958C205.915 49.7445 205.886 49.7737 205.837 49.7737H204.221L204.212 51.3993L204.231 53.8718C204.231 53.9302 204.202 53.9497 204.153 53.9497H203.112C203.063 53.9497 203.034 53.9302 203.034 53.8718L203.063 51.3993L203.044 49.7737H201.437C201.389 49.7737 201.36 49.7445 201.36 49.6958V49.0144Z" fill="#FF6500"/>
</g>
<g filter="url(#filter2_d_2133_3087)">
<rect x="116.881" y="79.9097" width="93.9367" height="24.8226" rx="12.4113" transform="rotate(14.3572 116.881 79.9097)" fill="white" shape-rendering="crispEdges"/>
<path d="M129.597 93.5264L130.748 93.8208C130.795 93.8329 130.825 93.8709 130.802 93.925L130.524 94.5775C130.505 94.6128 130.479 94.6362 130.432 94.6242L129.262 94.3248L128.42 96.36L129.58 96.6569C129.627 96.669 129.657 96.7069 129.634 96.7611L129.337 97.4087C129.318 97.444 129.292 97.4675 129.245 97.4554L128.094 97.1609L127.546 98.4776C127.525 98.5224 127.501 98.5364 127.454 98.5243L126.539 98.2902C126.492 98.2781 126.462 98.2402 126.485 98.186L127.029 96.8881L125.897 96.5985L125.349 97.9152C125.327 97.9599 125.304 97.974 125.257 97.9619L124.351 97.7302C124.304 97.7181 124.274 97.6802 124.298 97.626L124.841 96.3281L123.671 96.0288C123.624 96.0168 123.594 95.9788 123.618 95.9246L123.914 95.277C123.933 95.2417 123.959 95.2183 124.006 95.2303L125.166 95.5272L126.009 93.4921L124.858 93.1976C124.811 93.1855 124.781 93.1476 124.805 93.0934L125.082 92.441C125.101 92.4057 125.127 92.3822 125.175 92.3943L126.344 92.6936L126.873 91.4122C126.894 91.3674 126.918 91.3534 126.965 91.3655L127.87 91.5972C127.918 91.6093 127.948 91.6472 127.924 91.7014L127.4 92.9639L128.532 93.2536L129.061 91.9722C129.082 91.9275 129.106 91.9134 129.153 91.9255L130.068 92.1596C130.115 92.1717 130.145 92.2096 130.121 92.2638L129.597 93.5264ZM127.065 93.7624L126.223 95.7976L127.354 96.0872L128.197 94.0521L127.065 93.7624ZM134.003 95.0761C134.032 95.0432 134.062 95.041 134.1 95.0507L135.062 95.2969C135.119 95.3114 135.137 95.3563 135.085 95.4032L133.189 97.0382L134.126 100.132C134.14 100.195 134.111 100.228 134.055 100.214L132.895 99.917C132.857 99.9073 132.834 99.8812 132.824 99.8386L132.582 98.9023L132.151 97.4054L131.463 97.2292L130.943 99.337C130.929 99.3936 130.895 99.4052 130.848 99.3932L129.839 99.1349C129.792 99.1228 129.769 99.0967 129.783 99.0401L130.425 96.6521L130.988 94.3344C131.002 94.2778 131.035 94.2662 131.082 94.2782L132.091 94.5365C132.139 94.5486 132.162 94.5747 132.148 94.6313L131.67 96.4182L132.359 96.5944L134.003 95.0761ZM135.737 99.3483L138.635 96.2717C138.663 96.2388 138.696 96.2271 138.734 96.2368L139.922 96.5409C139.97 96.553 139.993 96.5791 139.979 96.6357L139.359 98.9389L138.774 101.341C138.76 101.398 138.726 101.41 138.679 101.398L137.699 101.147C137.651 101.134 137.628 101.108 137.642 101.052L138.253 98.706L138.585 97.5251L135.704 100.576C135.676 100.609 135.643 100.62 135.605 100.611L134.407 100.304C134.36 100.292 134.337 100.266 134.351 100.209L134.995 97.7717L135.546 95.5012C135.561 95.4446 135.594 95.433 135.641 95.4451L136.631 95.6985C136.678 95.7106 136.702 95.7367 136.687 95.7933L136.094 98.073L135.737 99.3483ZM143.223 99.4054L143.67 97.5805C143.684 97.5239 143.717 97.5123 143.764 97.5244L144.764 97.7802C144.811 97.7923 144.835 97.8184 144.82 97.875L144.201 100.178L143.616 102.581C143.601 102.637 143.568 102.649 143.521 102.637L142.521 102.381C142.474 102.369 142.451 102.343 142.465 102.286L143.015 100.216L140.95 99.6878L140.438 101.767C140.423 101.824 140.39 101.835 140.343 101.823L139.343 101.568C139.296 101.555 139.273 101.529 139.287 101.473L139.929 99.0847L140.492 96.767C140.506 96.7105 140.539 96.6988 140.586 96.7109L141.586 96.9668C141.633 96.9788 141.657 97.0049 141.642 97.0615L141.157 98.8768L143.223 99.4054ZM146.356 103.483C144.819 103.09 144.205 101.877 144.598 100.34C144.992 98.8031 146.12 98.0067 147.657 98.4001C149.185 98.7912 149.787 100.01 149.394 101.548C149.003 103.075 147.884 103.874 146.356 103.483ZM146.551 102.719C147.372 102.929 147.92 102.436 148.219 101.267C148.516 100.107 148.272 99.3716 147.452 99.1616C146.61 98.9562 146.055 99.4772 145.758 100.637C145.459 101.806 145.722 102.507 146.551 102.719ZM152.185 103.558L155.083 100.482C155.111 100.449 155.144 100.437 155.182 100.447L156.37 100.751C156.417 100.763 156.441 100.789 156.426 100.846L155.807 103.149L155.222 105.551C155.207 105.608 155.174 105.62 155.127 105.608L154.146 105.357C154.099 105.344 154.076 105.318 154.09 105.262L154.701 102.916L155.033 101.735L152.152 104.786C152.124 104.819 152.091 104.83 152.053 104.821L150.855 104.514C150.808 104.502 150.785 104.476 150.799 104.419L151.443 101.982L151.994 99.7112C152.009 99.6546 152.042 99.643 152.089 99.6551L153.079 99.9085C153.126 99.9206 153.15 99.9467 153.135 100.003L152.542 102.283L152.185 103.558ZM159.635 106.882C158.126 106.496 157.512 105.284 157.906 103.746C158.299 102.209 159.427 101.413 160.955 101.804C162.181 102.118 162.778 103.004 162.614 104.077C162.611 104.127 162.576 104.148 162.529 104.136L161.623 103.904C161.576 103.892 161.562 103.868 161.565 103.819C161.616 103.149 161.295 102.715 160.757 102.577C159.915 102.372 159.362 102.883 159.068 104.034C158.766 105.213 159.022 105.901 159.85 106.123C160.46 106.289 160.988 105.992 161.228 105.29C161.25 105.245 161.285 105.224 161.332 105.237L162.257 105.473C162.304 105.485 162.325 105.521 162.306 105.556C161.929 106.635 160.899 107.205 159.635 106.882ZM164.676 107.358C165.27 107.51 165.736 107.298 166.042 106.693C166.063 106.648 166.096 106.637 166.134 106.646L167.077 106.888C167.124 106.9 167.155 106.938 167.133 106.983C166.748 107.899 165.763 108.45 164.461 108.117C162.896 107.717 162.325 106.455 162.704 104.975C163.095 103.447 164.244 102.646 165.725 103.025C167.234 103.411 167.824 104.637 167.43 106.295C167.418 106.342 167.382 106.363 167.335 106.351L163.789 105.443C163.564 106.521 163.855 107.148 164.676 107.358ZM165.541 103.782C164.853 103.605 164.346 103.938 164.015 104.717L166.373 105.321C166.504 104.651 166.286 103.972 165.541 103.782ZM171.098 104.42C172.437 104.763 172.873 106.04 172.511 107.455C172.152 108.86 171.089 109.794 169.787 109.461C169.156 109.299 168.728 108.928 168.514 108.391L167.987 110.527C167.973 110.584 167.939 110.595 167.892 110.583L166.883 110.325C166.836 110.313 166.813 110.287 166.827 110.23L167.773 106.654L168.442 103.921C168.456 103.865 168.49 103.853 168.537 103.865L169.527 104.119C169.574 104.131 169.598 104.157 169.583 104.213L169.412 104.803C169.865 104.406 170.447 104.254 171.098 104.42ZM169.674 108.608C170.504 108.82 171.076 108.273 171.344 107.226C171.631 106.104 171.397 105.331 170.596 105.126C169.832 104.93 169.241 105.392 168.945 106.512C168.643 107.65 168.91 108.412 169.674 108.608ZM173.689 109.062L176.586 105.986C176.615 105.953 176.648 105.941 176.686 105.951L177.874 106.255C177.921 106.267 177.945 106.293 177.93 106.35L177.31 108.653L176.726 111.056C176.711 111.112 176.678 111.124 176.631 111.112L175.65 110.861C175.603 110.849 175.58 110.823 175.594 110.766L176.205 108.42L176.537 107.239L173.656 110.29C173.627 110.323 173.594 110.334 173.557 110.325L172.359 110.018C172.312 110.006 172.288 109.98 172.303 109.924L172.947 107.486L173.498 105.215C173.512 105.159 173.546 105.147 173.593 105.159L174.583 105.413C174.63 105.425 174.653 105.451 174.639 105.507L174.045 107.787L173.689 109.062ZM181.727 107.904L181.838 107.35C181.853 107.294 181.886 107.282 181.933 107.294L182.933 107.55C182.98 107.562 183.003 107.588 182.989 107.645L182.364 109.967L181.784 112.35C181.77 112.407 181.737 112.419 181.689 112.407L180.699 112.153C180.652 112.141 180.629 112.115 180.643 112.058L180.814 111.469C180.361 111.865 179.779 112.018 179.129 111.852C177.78 111.506 177.353 110.231 177.715 108.817C178.075 107.412 179.137 106.478 180.439 106.811C181.08 106.975 181.517 107.348 181.727 107.904ZM179.628 111.155C180.392 111.351 180.983 110.889 181.282 109.76C181.586 108.612 181.316 107.86 180.555 107.655C179.727 107.433 179.153 107.989 178.882 109.045C178.595 110.168 178.824 110.96 179.628 111.155ZM187.866 108.813C187.913 108.825 187.937 108.851 187.922 108.907L187.302 111.291L186.736 113.618C186.722 113.675 186.689 113.686 186.642 113.674L185.642 113.418C185.595 113.406 185.571 113.38 185.586 113.323L186.189 111.006L186.583 109.348L185.084 108.965C184.855 109.7 184.514 110.798 184.298 111.406C183.931 112.408 183.515 112.974 182.553 112.728C182.355 112.677 182.221 112.613 182.127 112.549C182.091 112.529 182.082 112.487 182.092 112.449L182.249 111.836C182.261 111.789 182.296 111.768 182.351 111.792C182.405 111.816 182.468 111.842 182.525 111.857C182.902 111.953 183.109 111.775 183.368 111.037C183.61 110.366 184.021 108.994 184.31 107.983C184.322 107.936 184.358 107.915 184.405 107.927L187.866 108.813ZM189.569 109.239C189.617 109.251 189.64 109.277 189.626 109.333L189.182 110.988L189.889 111.169C191.313 111.534 191.933 112.215 191.66 113.281C191.385 114.356 190.502 114.662 189.088 114.3L188.39 114.122L188.388 114.131L187.303 113.853C187.256 113.841 187.232 113.815 187.247 113.759L187.881 111.399L188.466 109.036C188.48 108.98 188.513 108.968 188.56 108.98L189.569 109.239ZM192.216 112.559L192.801 110.156C192.816 110.1 192.849 110.088 192.896 110.1L193.905 110.358C193.952 110.37 193.976 110.397 193.961 110.453L193.329 112.844L192.757 115.159C192.742 115.215 192.709 115.227 192.662 115.215L191.653 114.957C191.606 114.945 191.582 114.919 191.597 114.862L192.216 112.559ZM188.979 111.74L188.574 113.365L189.29 113.548C189.932 113.712 190.36 113.571 190.502 113.014C190.637 112.486 190.422 112.11 189.706 111.926L188.979 111.74Z" fill="#FF6500"/>
</g>
<g filter="url(#filter3_d_2133_3087)">
<rect x="9" y="94.3853" width="62.7867" height="24.8226" rx="12.4113" transform="rotate(-0.773584 9 94.3853)" fill="white" shape-rendering="crispEdges"/>
<path d="M24.7545 104.212L25.942 104.196C25.9907 104.195 26.03 104.224 26.0211 104.282L25.9235 104.984C25.9143 105.023 25.8952 105.053 25.8465 105.054L24.6396 105.07L24.3575 107.254L25.5547 107.238C25.6034 107.238 25.6427 107.266 25.6338 107.325L25.5167 108.027C25.5075 108.066 25.4884 108.096 25.4398 108.096L24.2523 108.112L24.0669 109.527C24.0579 109.575 24.0387 109.595 23.99 109.596L23.0459 109.609C22.9972 109.609 22.9579 109.58 22.9668 109.522L23.1524 108.127L21.9844 108.143L21.799 109.557C21.79 109.606 21.7708 109.626 21.7221 109.626L20.7877 109.639C20.739 109.64 20.6997 109.611 20.7086 109.552L20.8942 108.158L19.6873 108.174C19.6386 108.175 19.5993 108.146 19.6082 108.088L19.7253 107.385C19.7345 107.346 19.7536 107.316 19.8023 107.316L20.9995 107.3L21.2815 105.115L20.094 105.131C20.0454 105.132 20.006 105.103 20.015 105.045L20.1126 104.342C20.1218 104.303 20.1409 104.274 20.1895 104.273L21.3965 104.257L21.5726 102.882C21.5817 102.833 21.6009 102.813 21.6496 102.813L22.584 102.8C22.6326 102.799 22.672 102.828 22.663 102.887L22.4866 104.242L23.6546 104.226L23.8308 102.851C23.8399 102.803 23.8591 102.783 23.9077 102.782L24.8519 102.769C24.9005 102.769 24.9399 102.797 24.9309 102.856L24.7545 104.212ZM22.3717 105.1L22.0896 107.285L23.2576 107.269L23.5397 105.085L22.3717 105.1ZM29.4121 104.558C29.4311 104.518 29.4601 104.508 29.4991 104.508L30.4919 104.494C30.5503 104.494 30.58 104.532 30.5419 104.591L29.1388 106.664L30.8503 109.406C30.8802 109.464 30.8613 109.503 30.8029 109.504L29.6057 109.52C29.5668 109.52 29.5373 109.501 29.5173 109.463L29.0387 108.622L28.2321 107.29L27.5216 107.299L27.5703 109.47C27.5711 109.528 27.5422 109.548 27.4935 109.548L26.452 109.563C26.4034 109.563 26.3739 109.544 26.3731 109.486L26.3689 107.013L26.3075 104.629C26.3067 104.57 26.3357 104.55 26.3844 104.55L27.4258 104.536C27.4745 104.535 27.504 104.554 27.5048 104.613L27.5103 106.462L28.2208 106.453L29.4121 104.558ZM33.7065 104.354C35.0887 104.335 35.8436 105.454 35.8634 106.914C35.8829 108.364 35.1006 109.543 33.7573 109.561C33.1052 109.57 32.5956 109.324 32.2487 108.861L32.2978 111.061C32.2986 111.119 32.2697 111.139 32.221 111.14L31.1795 111.154C31.1309 111.154 31.1014 111.135 31.1006 111.077L31.0799 107.378L31.0127 104.565C31.0119 104.507 31.0408 104.487 31.0895 104.486L32.1115 104.472C32.1602 104.472 32.1897 104.491 32.1904 104.549L32.1793 105.163C32.5132 104.662 33.0349 104.363 33.7065 104.354ZM33.4254 108.767C34.2819 108.756 34.6914 108.079 34.6768 106.998C34.6612 105.84 34.2333 105.154 33.4059 105.166C32.6175 105.176 32.1681 105.776 32.174 106.935C32.1801 108.113 32.6369 108.778 33.4254 108.767ZM39.81 105.011L39.7732 104.447C39.7724 104.388 39.8014 104.369 39.85 104.368L40.8818 104.354C40.9304 104.353 40.9599 104.372 40.9607 104.431L40.964 106.835L41.0263 109.288C41.0271 109.346 40.9981 109.366 40.9495 109.367L39.9274 109.381C39.8788 109.381 39.8493 109.362 39.8485 109.304L39.8597 108.69C39.5257 109.191 39.0041 109.49 38.3325 109.499C36.9406 109.518 36.1953 108.399 36.1756 106.939C36.156 105.489 36.9384 104.31 38.2816 104.292C38.9435 104.283 39.4628 104.529 39.81 105.011ZM38.6332 108.697C39.4216 108.686 39.871 108.087 39.865 106.918C39.8587 105.731 39.402 105.075 38.6135 105.076C37.7568 105.078 37.3474 105.765 37.3622 106.855C37.3778 108.013 37.8059 108.718 38.6332 108.697ZM43.8821 109.444C42.3247 109.465 41.4155 108.455 41.394 106.869C41.3726 105.282 42.2539 104.219 43.8307 104.197C45.0961 104.18 45.9038 104.88 46.0255 105.959C46.0359 106.008 46.0071 106.037 45.9584 106.038L45.024 106.05C44.9753 106.051 44.9556 106.032 44.9452 105.983C44.8195 105.323 44.3963 104.988 43.8415 104.996C42.9754 105.017 42.5751 105.655 42.5911 106.843C42.6076 108.059 43.0342 108.657 43.8909 108.655C44.5237 108.657 44.9561 108.232 45.0045 107.492C45.0136 107.443 45.0424 107.413 45.0911 107.412L46.0449 107.4C46.0936 107.399 46.1232 107.428 46.114 107.467C46.032 108.607 45.1864 109.426 43.8821 109.444ZM48.8636 109.377C47.277 109.398 46.3678 108.388 46.3463 106.802C46.3249 105.215 47.2062 104.152 48.7928 104.13C50.3696 104.109 51.2693 105.129 51.2907 106.715C51.312 108.292 50.4404 109.355 48.8636 109.377ZM48.8529 108.588C49.6998 108.577 50.1003 107.958 50.084 106.751C50.0678 105.554 49.6405 104.907 48.7937 104.919C47.9275 104.94 47.5274 105.588 47.5436 106.786C47.5598 107.992 47.9964 108.6 48.8529 108.588ZM51.15 104.293C51.1493 104.245 51.1781 104.215 51.2268 104.214L55.6263 104.155C55.675 104.154 55.7046 104.183 55.7052 104.232L55.7144 104.913C55.7151 104.962 55.6863 104.991 55.6376 104.992L54.0219 105.014L54.0341 106.639L54.0869 109.111C54.0877 109.17 54.0588 109.19 54.0101 109.19L52.9686 109.204C52.92 109.205 52.8905 109.186 52.8897 109.128L52.8855 106.655L52.8441 105.03L51.2381 105.051C51.1894 105.052 51.1598 105.023 51.1592 104.975L51.15 104.293ZM59.2675 104.748L59.2307 104.184C59.2299 104.126 59.2588 104.106 59.3075 104.105L60.3392 104.091C60.3879 104.091 60.4174 104.11 60.4182 104.168L60.4214 106.573L60.4837 109.025C60.4845 109.084 60.4556 109.103 60.4069 109.104L59.3849 109.118C59.3362 109.119 59.3068 109.099 59.306 109.041L59.3172 108.428C58.9832 108.929 58.4615 109.228 57.7899 109.237C56.398 109.256 55.6528 108.136 55.6331 106.676C55.6135 105.226 56.3959 104.047 57.7391 104.029C58.401 104.02 58.9202 104.266 59.2675 104.748ZM58.0906 108.434C58.879 108.424 59.3285 107.824 59.3224 106.656C59.3161 105.468 58.8595 104.812 58.0709 104.813C57.2142 104.815 56.8049 105.502 56.8196 106.592C56.8353 107.75 57.2634 108.455 58.0906 108.434Z" fill="#FF6500"/>
</g>
<g filter="url(#filter4_d_2133_3087)">
<rect x="219.262" y="74.6978" width="51.5922" height="24.8226" rx="12.4113" transform="rotate(-7.74916 219.262 74.6978)" fill="white" shape-rendering="crispEdges"/>
<path d="M235.997 82.5511L237.173 82.391C237.222 82.3844 237.264 82.4081 237.262 82.4673L237.251 83.1762C237.246 83.2161 237.231 83.2477 237.183 83.2542L235.987 83.417L235.972 85.6196L237.159 85.4581C237.207 85.4516 237.249 85.4753 237.248 85.5344L237.217 86.246C237.212 86.2859 237.197 86.3174 237.149 86.324L235.972 86.4841L235.96 87.9103C235.957 87.9598 235.94 87.9817 235.892 87.9883L234.956 88.1156C234.908 88.1222 234.865 88.0985 234.867 88.0393L234.882 86.6324L233.725 86.79L233.712 88.2161C233.709 88.2656 233.693 88.2876 233.644 88.2941L232.718 88.4201C232.67 88.4267 232.628 88.403 232.629 88.3438L232.644 86.937L231.448 87.0997C231.4 87.1063 231.357 87.0826 231.359 87.0234L231.39 86.3119C231.394 86.272 231.41 86.2404 231.458 86.2338L232.644 86.0724L232.659 83.8698L231.482 84.0299C231.434 84.0365 231.392 84.0128 231.393 83.9536L231.405 83.2447C231.409 83.2048 231.425 83.1733 231.473 83.1667L232.669 83.004L232.677 81.6177C232.68 81.5681 232.697 81.5462 232.745 81.5397L233.671 81.4137C233.719 81.4071 233.762 81.4308 233.76 81.49L233.749 82.8569L234.907 82.6994L234.915 81.3132C234.918 81.2636 234.934 81.2417 234.983 81.2352L235.918 81.1078C235.966 81.1013 236.009 81.125 236.007 81.1842L235.997 82.5511ZM233.739 83.7228L233.725 85.9254L234.882 85.7679L234.897 83.5653L233.739 83.7228ZM240.662 82.3289C240.676 82.2877 240.703 82.2741 240.742 82.2689L241.726 82.135C241.784 82.1271 241.818 82.1618 241.787 82.2249L240.646 84.453L242.678 86.9666C242.715 87.0205 242.701 87.0617 242.643 87.0696L241.457 87.231C241.418 87.2363 241.386 87.2209 241.362 87.185L240.785 86.4088L239.822 85.1841L239.118 85.2799L239.43 87.4282C239.438 87.4861 239.412 87.5093 239.364 87.5159L238.331 87.6563C238.283 87.6629 238.252 87.6475 238.244 87.5896L237.939 85.1357L237.589 82.7765C237.581 82.7187 237.607 82.6954 237.656 82.6889L238.688 82.5484C238.736 82.5419 238.767 82.5572 238.775 82.6151L239.005 84.4504L239.709 84.3546L240.662 82.3289ZM245.775 83.5587L245.502 81.6997C245.494 81.6419 245.52 81.6186 245.569 81.6121L246.591 81.4729C246.639 81.4664 246.671 81.4817 246.679 81.5396L246.971 83.9067L247.334 86.3527C247.342 86.4106 247.315 86.4338 247.267 86.4404L246.245 86.5795C246.196 86.5861 246.165 86.5707 246.157 86.5128L245.887 84.3882L243.775 84.6756L244.083 86.795C244.091 86.8529 244.065 86.8761 244.016 86.8827L242.994 87.0218C242.946 87.0284 242.914 87.013 242.906 86.9552L242.602 84.5013L242.251 82.1421C242.244 82.0842 242.27 82.061 242.318 82.0544L243.341 81.9153C243.389 81.9087 243.42 81.9241 243.428 81.9819L243.662 83.8461L245.775 83.5587ZM248.821 84.9615L250.348 81.0206C250.362 80.9794 250.388 80.9562 250.427 80.9509L251.642 80.7856C251.691 80.779 251.722 80.7944 251.73 80.8522L252.023 83.2193L252.385 85.6653C252.393 85.7232 252.367 85.7464 252.318 85.753L251.315 85.8895C251.267 85.8961 251.235 85.8807 251.228 85.8228L250.91 83.4198L250.774 82.2005L249.253 86.1112C249.239 86.1524 249.212 86.1756 249.174 86.1809L247.949 86.3476C247.901 86.3541 247.869 86.3388 247.861 86.2809L247.541 83.7801L247.197 81.4691C247.189 81.4113 247.215 81.388 247.263 81.3815L248.276 81.2436C248.324 81.2371 248.356 81.2524 248.364 81.3103L248.672 83.6458L248.821 84.9615ZM252.255 80.7808C252.247 80.7229 252.273 80.6997 252.322 80.6931L255.447 80.2679C255.495 80.2613 255.528 80.2863 255.534 80.3345L255.626 81.0097C255.633 81.058 255.608 81.0908 255.56 81.0974L253.534 81.373L253.744 82.9851L254.096 85.4325C254.104 85.4903 254.078 85.5136 254.03 85.5201L252.997 85.6606C252.949 85.6671 252.918 85.6518 252.91 85.5939L252.605 83.14L252.255 80.7808ZM257.487 83.7823L259.014 79.8414C259.028 79.8002 259.054 79.777 259.093 79.7717L260.308 79.6063C260.356 79.5998 260.388 79.6151 260.396 79.673L260.689 82.0401L261.051 84.4861C261.059 84.544 261.032 84.5672 260.984 84.5737L259.981 84.7102C259.933 84.7168 259.901 84.7015 259.893 84.6436L259.576 82.2405L259.44 81.0213L257.919 84.9319C257.905 84.9732 257.878 84.9964 257.84 85.0016L256.615 85.1683C256.567 85.1749 256.535 85.1595 256.527 85.1017L256.206 82.6009L255.862 80.2899C255.855 80.232 255.881 80.2088 255.929 80.2022L256.942 80.0644C256.99 80.0578 257.022 80.0732 257.03 80.1311L257.338 82.4666L257.487 83.7823Z" fill="#FF6500"/>
</g>
<g filter="url(#filter5_d_2133_3087)">
<rect x="235.033" y="155.351" width="49.6453" height="24.8226" rx="12.4113" transform="rotate(9.48378 235.033 155.351)" fill="white" shape-rendering="crispEdges"/>
<path d="M248.716 167.813L249.888 168.009C249.936 168.017 249.969 168.052 249.95 168.108L249.729 168.782C249.713 168.819 249.689 168.844 249.641 168.836L248.45 168.637L247.784 170.737L248.965 170.934C249.013 170.942 249.046 170.977 249.027 171.033L248.787 171.704C248.771 171.741 248.747 171.766 248.699 171.758L247.527 171.562L247.093 172.921C247.076 172.967 247.053 172.983 247.005 172.975L246.074 172.82C246.026 172.812 245.992 172.777 246.012 172.721L246.442 171.381L245.29 171.189L244.856 172.547C244.839 172.594 244.816 172.61 244.768 172.602L243.846 172.448C243.798 172.44 243.765 172.404 243.784 172.348L244.215 171.009L243.024 170.81C242.976 170.802 242.943 170.767 242.962 170.711L243.202 170.041C243.218 170.004 243.242 169.978 243.29 169.986L244.471 170.183L245.138 168.084L243.967 167.888C243.919 167.88 243.885 167.845 243.904 167.789L244.125 167.115C244.141 167.079 244.165 167.053 244.213 167.061L245.404 167.26L245.822 165.938C245.84 165.892 245.862 165.876 245.91 165.884L246.832 166.038C246.88 166.046 246.913 166.081 246.894 166.137L246.479 167.44L247.631 167.632L248.05 166.31C248.067 166.264 248.09 166.248 248.138 166.256L249.069 166.412C249.117 166.42 249.15 166.455 249.131 166.511L248.716 167.813ZM246.213 168.264L245.547 170.363L246.699 170.556L247.365 168.456L246.213 168.264ZM252.324 172.561L254.273 169.166C254.289 169.129 254.331 169.116 254.369 169.123L255.637 169.335C255.685 169.343 255.71 169.367 255.701 169.424L255.277 171.841L254.9 174.215C254.891 174.273 254.859 174.287 254.811 174.279L253.85 174.119C253.802 174.111 253.777 174.087 253.786 174.029L254.167 171.813L254.362 170.76L254.42 170.414L252.468 173.829C252.452 173.865 252.41 173.878 252.372 173.872L251.7 173.76C251.661 173.753 251.626 173.728 251.623 173.688L250.866 169.771L250.808 170.176L250.662 171.227L250.301 173.447C250.292 173.505 250.26 173.519 250.212 173.511L249.434 173.381C249.386 173.373 249.36 173.349 249.37 173.291L249.795 170.925L250.18 168.502C250.189 168.444 250.221 168.43 250.269 168.438L251.518 168.646C251.556 168.653 251.591 168.679 251.594 168.719L252.324 172.561ZM257.709 174.882C256.144 174.62 255.429 173.465 255.691 171.9C255.952 170.335 257.008 169.445 258.574 169.707C260.129 169.967 260.833 171.13 260.571 172.695C260.311 174.251 259.264 175.142 257.709 174.882ZM257.839 174.104C258.674 174.244 259.179 173.706 259.377 172.516C259.575 171.335 259.269 170.622 258.434 170.483C257.578 170.35 257.069 170.916 256.871 172.097C256.673 173.288 256.994 173.963 257.839 174.104ZM265.438 170.972C265.486 170.98 265.51 171.013 265.501 171.061L265.12 173.347L264.873 175.121L265.439 175.216C265.487 175.224 265.511 175.258 265.503 175.306L265.194 177.159C265.186 177.207 265.152 177.231 265.104 177.223L264.249 177.08C264.201 177.072 264.176 177.048 264.185 176.99L264.343 175.872L261.078 175.326L260.863 176.435C260.854 176.493 260.822 176.507 260.774 176.499L259.9 176.353C259.852 176.345 259.828 176.312 259.836 176.264L260.146 174.411C260.154 174.363 260.187 174.339 260.235 174.347L260.562 174.401C260.864 174.185 261.08 173.777 261.244 173.212C261.423 172.611 261.667 171.566 261.882 170.457C261.89 170.409 261.923 170.385 261.971 170.393L265.438 170.972ZM263.72 174.929L264.017 173.153L264.245 171.612L262.718 171.356C262.555 172.099 262.374 172.888 262.234 173.368C262.071 173.933 261.884 174.286 261.656 174.584L263.72 174.929ZM269.662 172.329L269.726 171.767C269.735 171.71 269.767 171.695 269.815 171.703L270.833 171.873C270.881 171.881 270.907 171.905 270.897 171.963L270.472 174.33L270.097 176.754C270.087 176.811 270.055 176.826 270.007 176.818L268.999 176.649C268.951 176.641 268.925 176.617 268.935 176.56L269.055 175.958C268.637 176.392 268.071 176.593 267.408 176.482C266.035 176.253 265.501 175.019 265.742 173.579C265.981 172.148 266.961 171.128 268.286 171.349C268.939 171.458 269.406 171.793 269.662 172.329ZM267.847 175.746C268.625 175.876 269.174 175.366 269.376 174.216C269.581 173.046 269.249 172.319 268.473 172.18C267.629 172.029 267.104 172.632 266.924 173.707C266.734 174.85 267.029 175.62 267.847 175.746Z" fill="#FF6500"/>
</g>
<g filter="url(#filter6_d_2133_3087)">
<circle cx="137.25" cy="17.3656" r="13.8715" fill="white"/>
</g>
<path d="M137.496 15.857C137.031 15.857 136.585 16.0416 136.257 16.3702C135.928 16.6988 135.743 17.1445 135.743 17.6092C135.743 18.0739 135.928 18.5196 136.257 18.8482C136.585 19.1768 137.031 19.3614 137.496 19.3614C137.96 19.3614 138.406 19.1768 138.734 18.8482C139.063 18.5196 139.248 18.0739 139.248 17.6092C139.248 17.1445 139.063 16.6988 138.734 16.3702C138.406 16.0416 137.96 15.857 137.496 15.857ZM137.496 14.6889C138.27 14.6889 139.013 14.9965 139.56 15.5442C140.108 16.0919 140.416 16.8347 140.416 17.6092C140.416 18.3837 140.108 19.1265 139.56 19.6741C139.013 20.2218 138.27 20.5295 137.496 20.5295C136.721 20.5295 135.978 20.2218 135.431 19.6741C134.883 19.1265 134.575 18.3837 134.575 17.6092C134.575 16.8347 134.883 16.0919 135.431 15.5442C135.978 14.9965 136.721 14.6889 137.496 14.6889ZM141.292 14.5429C141.292 14.7365 141.215 14.9222 141.078 15.0591C140.941 15.196 140.755 15.2729 140.562 15.2729C140.368 15.2729 140.183 15.196 140.046 15.0591C139.909 14.9222 139.832 14.7365 139.832 14.5429C139.832 14.3492 139.909 14.1635 140.046 14.0266C140.183 13.8897 140.368 13.8128 140.562 13.8128C140.755 13.8128 140.941 13.8897 141.078 14.0266C141.215 14.1635 141.292 14.3492 141.292 14.5429ZM137.496 12.9367C136.051 12.9367 135.815 12.9408 135.142 12.9706C134.684 12.9922 134.377 13.0535 134.092 13.1645C133.854 13.2523 133.638 13.3926 133.461 13.5751C133.279 13.7518 133.138 13.9674 133.05 14.2058C132.939 14.492 132.878 14.7987 132.857 15.256C132.827 15.9008 132.822 16.1262 132.822 17.6092C132.822 19.0547 132.827 19.2901 132.856 19.9624C132.878 20.4197 132.939 20.7275 133.05 21.0119C133.149 21.266 133.266 21.4488 133.46 21.6427C133.656 21.839 133.839 21.9564 134.09 22.0533C134.379 22.1649 134.686 22.2268 135.142 22.2478C135.787 22.2782 136.012 22.2817 137.495 22.2817C138.94 22.2817 139.176 22.2776 139.848 22.2478C140.305 22.2262 140.612 22.1649 140.898 22.0545C141.136 21.9667 141.352 21.8263 141.528 21.6439C141.725 21.4476 141.843 21.2648 141.94 21.0131C142.051 20.7257 142.113 20.4185 142.134 19.9618C142.164 19.3176 142.167 19.0915 142.167 17.6092C142.167 16.1642 142.163 15.9282 142.134 15.256C142.112 14.7993 142.05 14.4909 141.94 14.2058C141.852 13.9675 141.711 13.7519 141.529 13.5751C141.352 13.3924 141.137 13.2519 140.898 13.1639C140.612 13.0529 140.305 12.9916 139.848 12.9706C139.204 12.9402 138.978 12.9367 137.495 12.9367M137.495 11.7686C139.082 11.7686 139.28 11.7744 139.903 11.8036C140.524 11.8328 140.948 11.9303 141.321 12.0752C141.706 12.2235 142.031 12.4245 142.355 12.7486C142.653 13.0405 142.882 13.3937 143.029 13.7836C143.173 14.1556 143.271 14.5796 143.3 15.2017C143.328 15.8243 143.336 16.0223 143.336 17.6092C143.336 19.1961 143.33 19.3941 143.3 20.0167C143.271 20.6393 143.173 21.0622 143.029 21.4348C142.882 21.8247 142.653 22.1779 142.355 22.4697C142.064 22.7669 141.71 22.9967 141.321 23.1432C140.948 23.2874 140.524 23.3856 139.903 23.4148C139.28 23.4422 139.082 23.4498 137.495 23.4498C135.908 23.4498 135.71 23.444 135.087 23.4148C134.465 23.3856 134.042 23.2874 133.669 23.1432C133.279 22.9967 132.926 22.7669 132.634 22.4697C132.337 22.1779 132.107 21.8247 131.961 21.4348C131.816 21.0627 131.719 20.6387 131.689 20.0167C131.661 19.3941 131.654 19.1961 131.654 17.6092C131.654 16.0223 131.66 15.8243 131.689 15.2017C131.719 14.5791 131.816 14.1562 131.961 13.7836C132.107 13.3937 132.337 13.0405 132.634 12.7486C132.926 12.4515 133.279 12.2217 133.669 12.0752C134.041 11.9303 134.465 11.8328 135.087 11.8036C135.711 11.7761 135.909 11.7686 137.496 11.7686" fill="#FF6500"/>
<defs>
<filter id="filter0_d_2133_3087" x="39.4702" y="35.4231" width="101.026" height="54.4459" filterUnits="userSpaceOnUse" color-interpolation-filters="sRGB">
<feFlood flood-opacity="0" result="BackgroundImageFix"/>
<feColorMatrix in="SourceAlpha" type="matrix" values="0 0 0 0 0 0 0 0 0 0 0 0 0 0 0 0 0 0 127 0" result="hardAlpha"/>
<feOffset dy="5.84062"/>
<feGaussianBlur stdDeviation="4.47781"/>
<feComposite in2="hardAlpha" operator="out"/>
<feColorMatrix type="matrix" values="0 0 0 0 0.6625 0 0 0 0 0.6625 0 0 0 0 0.6625 0 0 0 0.21 0"/>
<feBlend mode="normal" in2="BackgroundImageFix" result="effect1_dropShadow_2133_3087"/>
<feBlend mode="normal" in="SourceGraphic" in2="effect1_dropShadow_2133_3087" result="shape"/>
</filter>
<filter id="filter1_d_2133_3087" x="155.306" y="35.4236" width="70.964" height="42.734" filterUnits="userSpaceOnUse" color-interpolation-filters="sRGB">
<feFlood flood-opacity="0" result="BackgroundImageFix"/>
<feColorMatrix in="SourceAlpha" type="matrix" values="0 0 0 0 0 0 0 0 0 0 0 0 0 0 0 0 0 0 127 0" result="hardAlpha"/>
<feOffset dy="5.84062"/>
<feGaussianBlur stdDeviation="4.47781"/>
<feComposite in2="hardAlpha" operator="out"/>
<feColorMatrix type="matrix" values="0 0 0 0 0.6625 0 0 0 0 0.6625 0 0 0 0 0.6625 0 0 0 0.21 0"/>
<feBlend mode="normal" in2="BackgroundImageFix" result="effect1_dropShadow_2133_3087"/>
<feBlend mode="normal" in="SourceGraphic" in2="effect1_dropShadow_2133_3087" result="shape"/>
</filter>
<filter id="filter2_d_2133_3087" x="101.77" y="76.7947" width="115.069" height="65.2521" filterUnits="userSpaceOnUse" color-interpolation-filters="sRGB">
<feFlood flood-opacity="0" result="BackgroundImageFix"/>
<feColorMatrix in="SourceAlpha" type="matrix" values="0 0 0 0 0 0 0 0 0 0 0 0 0 0 0 0 0 0 127 0" result="hardAlpha"/>
<feOffset dy="5.84062"/>
<feGaussianBlur stdDeviation="4.47781"/>
<feComposite in2="hardAlpha" operator="out"/>
<feColorMatrix type="matrix" values="0 0 0 0 0.6625 0 0 0 0 0.6625 0 0 0 0 0.6625 0 0 0 0.21 0"/>
<feBlend mode="normal" in2="BackgroundImageFix" result="effect1_dropShadow_2133_3087"/>
<feBlend mode="normal" in="SourceGraphic" in2="effect1_dropShadow_2133_3087" result="shape"/>
</filter>
<filter id="filter3_d_2133_3087" x="0.0443783" y="90.4226" width="81.0275" height="43.5792" filterUnits="userSpaceOnUse" color-interpolation-filters="sRGB">
<feFlood flood-opacity="0" result="BackgroundImageFix"/>
<feColorMatrix in="SourceAlpha" type="matrix" values="0 0 0 0 0 0 0 0 0 0 0 0 0 0 0 0 0 0 127 0" result="hardAlpha"/>
<feOffset dy="5.84062"/>
<feGaussianBlur stdDeviation="4.47781"/>
<feComposite in2="hardAlpha" operator="out"/>
<feColorMatrix type="matrix" values="0 0 0 0 0.6625 0 0 0 0 0.6625 0 0 0 0 0.6625 0 0 0 0.21 0"/>
<feBlend mode="normal" in2="BackgroundImageFix" result="effect1_dropShadow_2133_3087"/>
<feBlend mode="normal" in="SourceGraphic" in2="effect1_dropShadow_2133_3087" result="shape"/>
</filter>
<filter id="filter4_d_2133_3087" x="210.306" y="64.6262" width="72.379" height="49.464" filterUnits="userSpaceOnUse" color-interpolation-filters="sRGB">
<feFlood flood-opacity="0" result="BackgroundImageFix"/>
<feColorMatrix in="SourceAlpha" type="matrix" values="0 0 0 0 0 0 0 0 0 0 0 0 0 0 0 0 0 0 127 0" result="hardAlpha"/>
<feOffset dy="5.84062"/>
<feGaussianBlur stdDeviation="4.47781"/>
<feComposite in2="hardAlpha" operator="out"/>
<feColorMatrix type="matrix" values="0 0 0 0 0.6625 0 0 0 0 0.6625 0 0 0 0 0.6625 0 0 0 0.21 0"/>
<feBlend mode="normal" in2="BackgroundImageFix" result="effect1_dropShadow_2133_3087"/>
<feBlend mode="normal" in="SourceGraphic" in2="effect1_dropShadow_2133_3087" result="shape"/>
</filter>
<filter id="filter5_d_2133_3087" x="221.988" y="152.236" width="70.9679" height="50.5748" filterUnits="userSpaceOnUse" color-interpolation-filters="sRGB">
<feFlood flood-opacity="0" result="BackgroundImageFix"/>
<feColorMatrix in="SourceAlpha" type="matrix" values="0 0 0 0 0 0 0 0 0 0 0 0 0 0 0 0 0 0 127 0" result="hardAlpha"/>
<feOffset dy="5.84062"/>
<feGaussianBlur stdDeviation="4.47781"/>
<feComposite in2="hardAlpha" operator="out"/>
<feColorMatrix type="matrix" values="0 0 0 0 0.6625 0 0 0 0 0.6625 0 0 0 0 0.6625 0 0 0 0.21 0"/>
<feBlend mode="normal" in2="BackgroundImageFix" result="effect1_dropShadow_2133_3087"/>
<feBlend mode="normal" in="SourceGraphic" in2="effect1_dropShadow_2133_3087" result="shape"/>
</filter>
<filter id="filter6_d_2133_3087" x="114.423" y="0.379142" width="45.6544" height="45.6544" filterUnits="userSpaceOnUse" color-interpolation-filters="sRGB">
<feFlood flood-opacity="0" result="BackgroundImageFix"/>
<feColorMatrix in="SourceAlpha" type="matrix" values="0 0 0 0 0 0 0 0 0 0 0 0 0 0 0 0 0 0 127 0" result="hardAlpha"/>
<feOffset dy="5.84062"/>
<feGaussianBlur stdDeviation="4.47781"/>
<feComposite in2="hardAlpha" operator="out"/>
<feColorMatrix type="matrix" values="0 0 0 0 0.6625 0 0 0 0 0.6625 0 0 0 0 0.6625 0 0 0 0.21 0"/>
<feBlend mode="normal" in2="BackgroundImageFix" result="effect1_dropShadow_2133_3087"/>
<feBlend mode="normal" in="SourceGraphic" in2="effect1_dropShadow_2133_3087" result="shape"/>
</filter>
</defs>
</svg>
