<svg width="24" height="24" viewBox="0 0 24 24" fill="none" xmlns="http://www.w3.org/2000/svg">
<g clip-path="url(#clip0_2133_2514)">
<path fill-rule="evenodd" clip-rule="evenodd" d="M24 12C24 11.7726 23.9091 11.5528 23.7474 11.3937L22.3023 9.95116L23.0855 8.064C23.1739 7.85432 23.1739 7.61937 23.0855 7.40716C22.9996 7.19747 22.8328 7.03074 22.6206 6.94484L20.7335 6.16421L20.736 4.12295C20.736 3.89305 20.6451 3.67579 20.4859 3.51411C20.3237 3.3539 20.105 3.26404 19.8771 3.264L17.8358 3.26653L17.0552 1.37937C16.9693 1.16716 16.8025 1.00042 16.5928 0.914526C16.4889 0.870753 16.3772 0.848204 16.2644 0.848204C16.1516 0.848204 16.04 0.870753 15.936 0.914526L14.0488 1.69768L12.6063 0.252632C12.4472 0.0909474 12.2274 0 12 0C11.7726 0 11.5528 0.0909474 11.3937 0.252632L9.95116 1.69768L8.064 0.914526C7.96004 0.870753 7.84838 0.848204 7.73558 0.848204C7.62278 0.848204 7.51112 0.870753 7.40716 0.914526C7.19747 1.00042 7.03074 1.16716 6.94484 1.37937L6.16421 3.26653L4.12295 3.264C3.89305 3.264 3.67579 3.35495 3.51411 3.51411C3.35495 3.67579 3.264 3.89305 3.264 4.12295L3.26653 6.16421L1.37937 6.94484C1.16716 7.03074 1.00042 7.19747 0.914526 7.40716C0.870753 7.51112 0.848204 7.62278 0.848204 7.73558C0.848204 7.84838 0.870753 7.96004 0.914526 8.064L1.69768 9.95116L0.252632 11.3937C0.0909474 11.5528 0 11.7726 0 12C0 12.2274 0.0909474 12.4472 0.252632 12.6063L1.69768 14.0488L0.914526 15.936C0.870753 16.04 0.848204 16.1516 0.848204 16.2644C0.848204 16.3772 0.870753 16.4889 0.914526 16.5928C1.00042 16.8025 1.16716 16.9693 1.37937 17.0552L3.26653 17.8358L3.264 19.8771C3.264 20.1069 3.35495 20.3242 3.51411 20.4859C3.67579 20.6451 3.89305 20.736 4.12295 20.736L6.16421 20.7335L6.94484 22.6206C7.03074 22.8328 7.19747 22.9996 7.40716 23.0855C7.61937 23.1739 7.85432 23.1739 8.064 23.0855L9.95116 22.3023L11.3937 23.7474C11.5528 23.9091 11.7726 24 12 24C12.2274 24 12.4472 23.9091 12.6063 23.7474L14.0488 22.3023L15.936 23.0855C16.1457 23.1739 16.3806 23.1739 16.5928 23.0855C16.8025 22.9996 16.9693 22.8328 17.0552 22.6206L17.8358 20.7335L19.8771 20.736C20.1069 20.736 20.3242 20.6451 20.4859 20.4859C20.6451 20.3242 20.736 20.1069 20.736 19.8771L20.7335 17.8358L22.6206 17.0552C22.8328 16.9693 22.9996 16.8025 23.0855 16.5928C23.1739 16.3806 23.1739 16.1457 23.0855 15.936L22.3023 14.0488L23.7474 12.6063C23.9091 12.4472 24 12.2274 24 12ZM7.86088 12.913C7.35891 12.4108 7.35891 11.5892 7.86088 11.087C8.36286 10.5848 9.18114 10.5848 9.68691 11.087L11.2163 12.6164L14.1949 8.64455C14.6211 8.0741 15.4315 7.95992 16.0022 8.38585C16.5726 8.81204 16.6868 9.62223 16.2609 10.1929L12.388 15.3555C12.1635 15.6561 11.8173 15.8423 11.4447 15.8691C11.0721 15.8958 10.7065 15.7587 10.4403 15.4924L7.86088 12.913Z" fill="#FF6500"/>
</g>
<defs>
<clipPath id="clip0_2133_2514">
<rect width="24" height="24" fill="white"/>
</clipPath>
</defs>
</svg>
