<svg width="23" height="23" viewBox="0 0 23 23" fill="none" xmlns="http://www.w3.org/2000/svg">
<g clip-path="url(#clip0_2133_2518)">
<path d="M11.9111 22.9861C13.6698 22.7362 15.2117 20.9005 16.1819 18.1896C14.7794 17.8754 13.3482 17.7069 11.9111 17.6868L11.9111 22.9861ZM14.721 22.555C14.8249 22.5249 14.9285 22.4946 15.0313 22.4613C15.118 22.4334 15.2035 22.4033 15.289 22.3734C15.3903 22.3386 15.4911 22.3023 15.5913 22.2644C15.6768 22.2319 15.7615 22.1973 15.8464 22.1628C15.9443 22.1217 16.0421 22.0807 16.1388 22.0396C16.3193 21.9596 16.4979 21.8753 16.6743 21.7867C16.757 21.7446 16.8392 21.7017 16.921 21.658C17.0132 21.6087 17.1047 21.5582 17.1955 21.5065C17.2767 21.4604 17.3573 21.4132 17.4372 21.365C17.526 21.3104 17.6146 21.2556 17.7031 21.2006C17.7823 21.1505 17.8607 21.0992 17.9384 21.0469C18.025 20.9881 18.1107 20.9281 18.1957 20.8669C18.2718 20.8125 18.3475 20.7577 18.4229 20.7024C18.5064 20.6382 18.5895 20.5732 18.6719 20.5075C18.7452 20.4492 18.8183 20.3912 18.8903 20.3312C18.9724 20.2629 19.0511 20.1923 19.1308 20.1216C19.2006 20.0596 19.2709 19.9981 19.3391 19.9346C19.4176 19.8613 19.494 19.7854 19.5705 19.7102C19.6368 19.6447 19.7038 19.5803 19.7686 19.5133C19.7807 19.5008 19.7921 19.4874 19.8046 19.4745C18.9081 19.0115 17.9636 18.6481 16.988 18.3907C16.4806 20.0089 15.5777 21.4751 14.3609 22.6566C14.3943 22.6479 14.4276 22.6409 14.4609 22.6323C14.5488 22.6076 14.6351 22.5805 14.721 22.555ZM23.0001 11.9203H18.0714C18.0527 13.8447 17.7735 15.7577 17.2415 17.6072C18.3265 17.897 19.3736 18.3136 20.361 18.8485C21.9825 16.8944 22.9105 14.4579 23 11.9203H23.0001ZM11.9111 11.0982H17.2493C17.2284 9.2418 16.9562 7.39683 16.4401 5.61354C14.9536 5.95253 13.4355 6.13358 11.9111 6.15366V11.0982ZM11.9111 0.0322266V5.33156C13.3482 5.31133 14.7794 5.14285 16.1819 4.82879C15.2117 2.1178 13.6699 0.282146 11.9111 0.0322266H11.9111ZM11.9111 16.8647C13.4355 16.885 14.9536 17.0661 16.4401 17.405C16.9562 15.6217 17.2284 13.7767 17.2493 11.9203H11.9111V16.8647ZM20.3611 4.16988C19.3736 4.70478 18.3265 5.12144 17.2415 5.41125C17.7736 7.26074 18.0528 9.17375 18.0714 11.0982H23.0001C22.9103 8.56055 21.9823 6.12419 20.3611 4.16988ZM19.8058 3.54626C19.7937 3.53403 19.7823 3.52077 19.7704 3.50813C19.7054 3.44108 19.638 3.37644 19.5717 3.31124C19.4955 3.23597 19.4194 3.15992 19.3407 3.08686C19.2727 3.0234 19.2022 2.96339 19.1324 2.90019C19.0527 2.82954 18.973 2.75827 18.8911 2.69004C18.8201 2.63002 18.7473 2.57263 18.675 2.51503C18.5924 2.44801 18.5086 2.38248 18.4237 2.3185C18.3493 2.26279 18.2742 2.20799 18.1985 2.15413C18.1129 2.092 18.0263 2.03124 17.9388 1.97188C17.8618 1.92018 17.7841 1.86953 17.7058 1.81994C17.6173 1.76272 17.5279 1.70693 17.4376 1.65259C17.3583 1.60492 17.2784 1.55821 17.198 1.51248C17.1064 1.46008 17.014 1.40897 16.921 1.35915C16.8387 1.318 16.7566 1.27324 16.6743 1.23209C16.5798 1.1843 16.4844 1.13837 16.3867 1.0932C16.3038 1.05378 16.2203 1.01563 16.1362 0.978777C16.0388 0.935616 15.9405 0.89672 15.8424 0.855564C15.7579 0.820837 15.6731 0.787111 15.5879 0.754394C15.4878 0.716491 15.3871 0.680227 15.2858 0.645619C15.2003 0.615163 15.1143 0.585787 15.0281 0.5575C14.9253 0.524204 14.8225 0.493889 14.717 0.463369C14.6315 0.438295 14.5456 0.412809 14.4591 0.389893C14.426 0.380901 14.3923 0.373862 14.3589 0.36523C15.5756 1.54669 16.4785 3.01285 16.986 4.63108C17.9628 4.37379 18.9084 4.01 19.8058 3.54626ZM0 11.0982H4.92862C4.94729 9.17377 5.22639 7.26076 5.75832 5.41125C4.67335 5.12152 3.62633 4.70485 2.63895 4.16988C1.01758 6.12407 0.0895579 8.5605 0 11.0982ZM11.0889 22.9861V17.6869C9.65183 17.7071 8.22064 17.8756 6.81812 18.1896C7.7881 20.9006 9.33016 22.7363 11.0889 22.9862V22.9861ZM11.0889 11.9203H5.75072C5.77151 13.7767 6.04374 15.6217 6.55998 17.405C8.04637 17.0658 9.56447 16.8847 11.0889 16.8647V11.9203ZM11.0889 0.0322266C9.33016 0.282146 7.7881 2.1178 6.81812 4.82879C8.22061 5.14306 9.65182 5.31154 11.0889 5.33156V0.0322266ZM11.0889 6.15366C9.56449 6.13357 8.04641 5.95253 6.55998 5.61354C6.04376 7.39681 5.77153 9.24179 5.75072 11.0982H11.0889V6.15366ZM8.6379 0.36487C8.6046 0.373451 8.57125 0.38049 8.53796 0.389122C8.45087 0.412398 8.36496 0.438295 8.27823 0.463369C8.17505 0.493478 8.0727 0.523793 7.96917 0.556677C7.88182 0.584989 7.79596 0.615098 7.71005 0.645054C7.6095 0.680507 7.50874 0.715857 7.40916 0.753571C7.32325 0.786507 7.23857 0.820624 7.15349 0.855564C7.05571 0.896669 6.95777 0.937825 6.86123 0.978777C6.77669 1.0162 6.69259 1.0546 6.60894 1.09397C6.51392 1.13858 6.4195 1.18449 6.32573 1.23168C6.14979 1.32076 5.97612 1.41425 5.80488 1.51207C5.72321 1.55768 5.64239 1.60479 5.56246 1.65336C5.47316 1.70716 5.38483 1.76281 5.29692 1.81778C5.21779 1.86834 5.13933 1.91931 5.06169 1.97193C4.9751 2.03074 4.88931 2.09074 4.80437 2.15192C4.7282 2.20626 4.65239 2.26112 4.57696 2.31649C4.49285 2.37969 4.41254 2.44556 4.32786 2.51123C4.25485 2.5696 4.18117 2.62761 4.1097 2.68798C4.02744 2.75586 3.94939 2.8261 3.87005 2.89638C3.79982 2.95897 3.72896 3.0198 3.66031 3.08465C3.58221 3.15751 3.50617 3.23314 3.42992 3.30821C3.36364 3.37367 3.29623 3.43825 3.23123 3.50551C3.21941 3.51795 3.20795 3.53161 3.19547 3.54425C4.09188 4.00748 5.03638 4.371 6.01205 4.6283C6.51936 3.01098 7.42185 1.54569 8.6379 0.36487ZM3.42812 19.7071C3.50458 19.7824 3.58067 19.8585 3.65913 19.9317C3.72737 19.9949 3.79761 20.055 3.86764 20.1182C3.94733 20.189 4.02702 20.2601 4.10893 20.3284C4.17999 20.388 4.25244 20.4455 4.32509 20.5033C4.40735 20.57 4.48946 20.6362 4.57655 20.7003C4.65064 20.7559 4.72592 20.8096 4.80114 20.8649C4.88702 20.9268 4.97374 20.9876 5.06128 21.0473C5.13831 21.0989 5.21599 21.1497 5.2943 21.1994C5.38319 21.2564 5.47192 21.3124 5.56246 21.3666C5.64174 21.4144 5.72179 21.4611 5.8021 21.5069C5.89365 21.5593 5.98598 21.6103 6.07905 21.66C6.16115 21.7012 6.24347 21.7459 6.32573 21.7871C6.42027 21.8349 6.51564 21.8808 6.61336 21.9262C6.69638 21.9653 6.77988 22.0034 6.86385 22.0404C6.96116 22.0836 7.05935 22.1225 7.1577 22.1636C7.24237 22.1982 7.32669 22.2323 7.41219 22.2648C7.51192 22.3031 7.61309 22.3388 7.71426 22.3737C7.79976 22.4037 7.88526 22.4338 7.97194 22.4617C8.0747 22.495 8.17747 22.5255 8.28306 22.5558C8.36856 22.5809 8.45446 22.6064 8.54079 22.6294C8.57408 22.6385 8.60779 22.6455 8.64113 22.6541C7.42452 21.4725 6.52159 20.0063 6.014 18.3881C5.03833 18.6455 4.09384 19.0092 3.19747 19.4725C3.20954 19.4847 3.221 19.498 3.23303 19.5106C3.29468 19.5773 3.36107 19.6419 3.42812 19.7071ZM2.63895 18.8485C3.62639 18.3136 4.6734 17.897 5.75832 17.6071C5.22639 15.7576 4.94729 13.8446 4.92862 11.9202H0C0.0896734 14.4578 1.01769 16.8942 2.63895 18.8485Z" fill="#FF6500"/>
</g>
<defs>
<clipPath id="clip0_2133_2518">
<rect width="23" height="23" fill="white"/>
</clipPath>
</defs>
</svg>
