<svg width="23" height="19" viewBox="0 0 23 19" fill="none" xmlns="http://www.w3.org/2000/svg">
<g clip-path="url(#clip0_2133_2516)">
<path d="M21.0833 2.85004H16.2917V1.90001C16.2917 0.852147 15.4321 0 14.375 0H8.62498C7.56793 0 6.70831 0.852103 6.70831 1.90001V2.84999H1.91668C0.859578 2.85004 7.53024e-10 3.70214 7.53024e-10 4.75V7.59999C7.53024e-10 8.6479 0.859578 9.5 1.91668 9.5H9.58335V9.02499C9.5833 8.96259 9.59567 8.90081 9.61974 8.84316C9.6438 8.78551 9.6791 8.73313 9.7236 8.68901C9.76811 8.64489 9.82095 8.60991 9.8791 8.58605C9.93726 8.56219 9.99959 8.54993 10.0625 8.54997H12.9375C13.0005 8.54993 13.0628 8.56219 13.1209 8.58605C13.1791 8.60991 13.2319 8.64489 13.2764 8.68901C13.3209 8.73313 13.3562 8.78551 13.3803 8.84316C13.4044 8.90081 13.4167 8.96259 13.4167 9.02499V9.5H21.0834C22.1404 9.5 23 8.6479 23 7.59999V4.75C23 3.70214 22.1404 2.85004 21.0833 2.85004ZM14.375 2.85004H8.62498V1.90001H14.375V2.85004ZM22.7342 10.0126C22.6543 9.97329 22.5649 9.95688 22.4761 9.96515C22.3874 9.97343 22.3027 10.0061 22.2316 10.0594C21.8909 10.315 21.4941 10.45 21.0832 10.45H13.4167V11.875C13.4167 11.9374 13.4043 11.9992 13.3803 12.0568C13.3562 12.1145 13.3209 12.1668 13.2764 12.211C13.2319 12.2551 13.1791 12.2901 13.1209 12.3139C13.0627 12.3378 13.0004 12.35 12.9375 12.35H10.0625C9.99954 12.35 9.93721 12.3378 9.87906 12.3139C9.8209 12.2901 9.76806 12.2551 9.72356 12.211C9.67905 12.1668 9.64376 12.1145 9.61969 12.0568C9.59562 11.9992 9.58326 11.9374 9.5833 11.875V10.45H1.91668C1.50582 10.45 1.10903 10.315 0.768342 10.0594C0.697441 10.0056 0.61271 9.97273 0.523835 9.96444C0.43496 9.95616 0.345526 9.97283 0.265757 10.0126C0.185926 10.0519 0.118761 10.1126 0.071813 10.1878C0.0248647 10.2629 -4.99674e-06 10.3496 7.53024e-10 10.438L7.53024e-10 17.1C7.53024e-10 18.1479 0.859578 19 1.91668 19H21.0833C22.1404 19 23 18.1479 23 17.1V10.438C23 10.3496 22.9751 10.2629 22.9282 10.1878C22.8812 10.1126 22.814 10.0519 22.7342 10.0126Z" fill="#FF6500"/>
</g>
<defs>
<clipPath id="clip0_2133_2516">
<rect width="23" height="19" fill="white"/>
</clipPath>
</defs>
</svg>
